<svg xmlns="http://www.w3.org/2000/svg" xmlns:xlink="http://www.w3.org/1999/xlink" width="500" zoomAndPan="magnify" viewBox="0 0 375 374.999991" height="500" preserveAspectRatio="xMidYMid meet" version="1.0"><defs><clipPath id="a3314d0f1b"><path d="M 9.140625 0 L 366.140625 0 L 366.140625 375 L 9.140625 375 Z M 9.140625 0 " clip-rule="nonzero"/></clipPath><clipPath id="ae7713ca6e"><path d="M 9.140625 279 L 201 279 L 201 296 L 9.140625 296 Z M 9.140625 279 " clip-rule="nonzero"/></clipPath><clipPath id="15872aee25"><path d="M 9.140625 318 L 134 318 L 134 336 L 9.140625 336 Z M 9.140625 318 " clip-rule="nonzero"/></clipPath><clipPath id="e4b95fc556"><path d="M 164 279 L 366.140625 279 L 366.140625 375 L 164 375 Z M 164 279 " clip-rule="nonzero"/></clipPath><clipPath id="4968f0eea9"><path d="M 235 318 L 366.140625 318 L 366.140625 375 L 235 375 Z M 235 318 " clip-rule="nonzero"/></clipPath><clipPath id="23f8f44ea0"><path d="M 327 358 L 366.140625 358 L 366.140625 375 L 327 375 Z M 327 358 " clip-rule="nonzero"/></clipPath></defs><g clip-path="url(#a3314d0f1b)"><path fill="#000000" d="M 365.402344 244.730469 C 365.292969 244.476562 365.144531 244.25 365.011719 244.011719 C 364.875 243.765625 364.753906 243.507812 364.59375 243.273438 C 364.578125 243.25 364.554688 243.230469 364.539062 243.207031 C 363.03125 241.074219 360.5625 239.675781 357.753906 239.675781 L 195.910156 239.675781 L 195.910156 210.988281 L 225.90625 185.1875 C 228.019531 185.347656 230.875 185.5 234.265625 185.5 C 250.140625 185.5 272.167969 182.394531 286.964844 167.605469 C 309.726562 144.863281 304.417969 104.4375 304.183594 102.726562 C 303.671875 99.042969 300.777344 96.148438 297.09375 95.640625 C 296.886719 95.609375 292.003906 94.945312 284.867188 94.945312 C 268.988281 94.945312 246.960938 98.050781 232.164062 112.839844 C 213.644531 131.34375 213.707031 161.550781 214.5 173.089844 L 195.914062 189.078125 L 195.914062 127.910156 C 205.019531 120.125 229.871094 96.191406 229.871094 66.636719 C 229.871094 31.242188 194.136719 3.820312 192.617188 2.667969 C 189.652344 0.421875 185.554688 0.421875 182.585938 2.667969 C 181.066406 3.816406 145.335938 31.242188 145.335938 66.636719 C 145.335938 96.191406 170.1875 120.125 179.292969 127.910156 L 179.292969 189.25 L 160.503906 173.089844 C 161.296875 161.550781 161.363281 131.34375 142.84375 112.839844 C 128.042969 98.050781 106.011719 94.945312 90.140625 94.945312 C 83.003906 94.945312 78.117188 95.609375 77.914062 95.640625 C 74.226562 96.148438 71.332031 99.042969 70.824219 102.726562 C 70.585938 104.4375 65.277344 144.863281 88.039062 167.605469 C 102.835938 182.394531 124.863281 185.5 140.738281 185.5 C 144.128906 185.5 146.984375 185.347656 149.097656 185.1875 L 179.292969 211.160156 L 179.292969 239.675781 L 17.449219 239.675781 C 12.863281 239.675781 9.140625 243.390625 9.140625 247.976562 C 9.140625 252.5625 12.863281 256.28125 17.449219 256.28125 L 283.503906 256.28125 C 265.285156 263.472656 248.28125 272.074219 233.363281 280.132812 C 216.660156 289.136719 199.75 299.089844 183.394531 308.714844 C 177.121094 312.40625 170.84375 316.101562 164.5625 319.753906 C 141.042969 333.464844 115.804688 347.550781 90.402344 358.03125 L 17.449219 358.03125 C 12.863281 358.03125 9.140625 361.75 9.140625 366.335938 C 9.140625 370.921875 12.863281 374.640625 17.449219 374.640625 L 92.066406 374.640625 C 92.078125 374.640625 92.085938 374.644531 92.097656 374.644531 C 92.636719 374.644531 93.183594 374.585938 93.726562 374.472656 C 93.980469 374.421875 94.214844 374.328125 94.460938 374.253906 C 94.71875 374.179688 94.976562 374.128906 95.230469 374.027344 C 95.257812 374.015625 95.28125 374.003906 95.308594 373.992188 C 95.324219 373.988281 95.335938 373.980469 95.347656 373.976562 C 122.15625 363.050781 148.480469 348.355469 172.929688 334.101562 C 179.226562 330.441406 185.527344 326.730469 191.832031 323.027344 C 208.050781 313.480469 224.828125 303.609375 241.265625 294.742188 C 273.613281 277.265625 316.113281 257.097656 357.933594 256.332031 C 362.523438 256.246094 366.175781 252.460938 366.089844 247.875 C 366.070312 246.828125 365.835938 245.835938 365.464844 244.921875 C 365.441406 244.855469 365.425781 244.789062 365.402344 244.730469 Z M 243.910156 124.582031 C 255.253906 113.246094 274.4375 111.550781 284.863281 111.550781 C 286.054688 111.550781 287.171875 111.578125 288.191406 111.609375 C 288.550781 122.339844 287.519531 143.566406 275.214844 155.863281 C 263.871094 167.199219 244.6875 168.894531 234.261719 168.894531 C 233.070312 168.894531 231.957031 168.867188 230.9375 168.835938 C 230.574219 158.105469 231.605469 136.878906 243.910156 124.582031 Z M 161.957031 66.636719 C 161.957031 46.398438 178.90625 28.210938 187.601562 20.210938 C 196.300781 28.214844 213.25 46.402344 213.25 66.636719 C 213.25 86.878906 196.285156 105.074219 187.589844 113.070312 C 178.890625 105.105469 161.957031 86.972656 161.957031 66.636719 Z M 99.785156 155.863281 C 87.480469 143.566406 86.449219 122.332031 86.8125 111.609375 C 87.832031 111.578125 88.945312 111.550781 90.140625 111.550781 C 100.5625 111.550781 119.746094 113.246094 131.089844 124.582031 C 143.398438 136.878906 144.429688 158.113281 144.066406 168.835938 C 143.046875 168.867188 141.929688 168.894531 140.738281 168.894531 C 130.3125 168.894531 111.132812 167.199219 99.785156 155.863281 Z M 99.785156 155.863281 " fill-opacity="1" fill-rule="nonzero"/></g><g clip-path="url(#ae7713ca6e)"><path fill="#000000" d="M 17.449219 295.742188 L 192.289062 295.742188 C 196.878906 295.742188 200.601562 292.023438 200.601562 287.4375 C 200.601562 282.851562 196.878906 279.132812 192.289062 279.132812 L 17.449219 279.132812 C 12.863281 279.132812 9.140625 282.851562 9.140625 287.4375 C 9.140625 292.023438 12.863281 295.742188 17.449219 295.742188 Z M 17.449219 295.742188 " fill-opacity="1" fill-rule="nonzero"/></g><g clip-path="url(#15872aee25)"><path fill="#000000" d="M 17.449219 335.226562 L 125.636719 335.226562 C 130.226562 335.226562 133.949219 331.511719 133.949219 326.925781 C 133.949219 322.339844 130.226562 318.621094 125.636719 318.621094 L 17.449219 318.621094 C 12.863281 318.621094 9.140625 322.339844 9.140625 326.925781 C 9.140625 331.511719 12.863281 335.226562 17.449219 335.226562 Z M 17.449219 335.226562 " fill-opacity="1" fill-rule="nonzero"/></g><g clip-path="url(#e4b95fc556)"><path fill="#000000" d="M 357.613281 279.136719 C 312.183594 280.054688 267.347656 301.253906 233.355469 319.621094 C 220.128906 326.769531 207.9375 334.523438 196.152344 342.019531 C 187.269531 347.671875 178.082031 353.511719 168.375 359.15625 C 164.410156 361.464844 163.0625 366.542969 165.371094 370.507812 C 166.914062 373.160156 169.699219 374.636719 172.5625 374.636719 C 173.980469 374.636719 175.417969 374.277344 176.734375 373.507812 C 186.726562 367.699219 196.054688 361.769531 205.074219 356.03125 C 217.148438 348.351562 228.554688 341.097656 241.261719 334.226562 C 273.601562 316.753906 316.089844 296.585938 357.949219 295.742188 C 362.535156 295.648438 366.179688 291.855469 366.085938 287.273438 C 365.996094 282.6875 362.058594 279.175781 357.613281 279.136719 Z M 357.613281 279.136719 " fill-opacity="1" fill-rule="nonzero"/></g><g clip-path="url(#4968f0eea9)"><path fill="#000000" d="M 357.613281 318.621094 C 316.285156 319.460938 281.257812 336.648438 239.757812 359.027344 C 235.722656 361.203125 234.214844 366.242188 236.394531 370.277344 C 237.894531 373.058594 240.757812 374.636719 243.714844 374.636719 C 245.046875 374.636719 246.398438 374.316406 247.65625 373.640625 C 288.464844 351.628906 320.269531 335.992188 357.949219 335.226562 C 362.539062 335.132812 366.183594 331.339844 366.089844 326.757812 C 365.996094 322.171875 362.058594 318.617188 357.613281 318.621094 Z M 357.613281 318.621094 " fill-opacity="1" fill-rule="nonzero"/></g><g clip-path="url(#23f8f44ea0)"><path fill="#000000" d="M 357.753906 358.03125 L 335.886719 358.03125 C 331.296875 358.03125 327.578125 361.746094 327.578125 366.332031 C 327.578125 370.921875 331.296875 374.636719 335.886719 374.636719 L 357.753906 374.636719 C 362.34375 374.636719 366.066406 370.921875 366.066406 366.332031 C 366.066406 361.746094 362.34375 358.03125 357.753906 358.03125 Z M 357.753906 358.03125 " fill-opacity="1" fill-rule="nonzero"/></g></svg>