<svg xmlns="http://www.w3.org/2000/svg" xmlns:xlink="http://www.w3.org/1999/xlink" width="500" zoomAndPan="magnify" viewBox="0 0 375 374.999991" height="500" preserveAspectRatio="xMidYMid meet" version="1.0"><defs><clipPath id="45b22680f5"><path d="M 153.730469 118.410156 L 231.730469 118.410156 L 231.730469 262.410156 L 153.730469 262.410156 Z M 153.730469 118.410156 " clip-rule="nonzero"/></clipPath></defs><g clip-path="url(#45b22680f5)"><path fill="#000000" d="M 210.414062 133.195312 C 213.925781 133.195312 216.746094 133.117188 219.5625 133.210938 C 227.132812 133.46875 231.589844 137.519531 231.609375 144.875 C 231.71875 179.9375 231.699219 215 231.605469 250.0625 C 231.589844 256.96875 227.203125 261.796875 220.234375 261.898438 C 202.042969 262.167969 183.832031 262.148438 165.640625 261.882812 C 158.355469 261.773438 153.855469 256.96875 153.832031 249.765625 C 153.738281 214.890625 153.726562 180.023438 153.855469 145.152344 C 153.886719 137.402344 158.671875 133.316406 166.894531 133.191406 C 174.757812 133.070312 174.859375 133.074219 175.34375 125.566406 C 175.609375 121.429688 177.695312 119.039062 181.6875 118.890625 C 188.957031 118.625 196.246094 118.628906 203.519531 118.761719 C 207.867188 118.839844 210.101562 121.496094 210.390625 125.699219 C 210.542969 127.929688 210.414062 130.175781 210.414062 133.195312 Z M 189.355469 201.199219 C 188.464844 204.25 187.839844 206.566406 187.109375 208.851562 C 184.570312 216.820312 181.898438 224.753906 179.503906 232.761719 C 179.023438 234.363281 179.53125 236.257812 179.582031 238.015625 C 181.183594 237.027344 183.242188 236.390625 184.316406 235 C 195.476562 220.511719 206.488281 205.910156 217.503906 191.316406 C 218.226562 190.363281 218.671875 189.195312 219.859375 186.988281 C 211.382812 186.988281 203.933594 186.988281 196.054688 186.988281 C 198.195312 178.480469 200.214844 170.96875 201.902344 163.382812 C 202.285156 161.636719 201.527344 159.644531 201.300781 157.765625 C 199.839844 158.765625 198.027344 159.488281 196.972656 160.808594 C 187.34375 172.859375 177.832031 185.003906 168.324219 197.160156 C 167.582031 198.109375 167.175781 199.320312 166.203125 201.199219 C 174.183594 201.199219 181.351562 201.199219 189.355469 201.199219 Z M 189.355469 201.199219 " fill-opacity="1" fill-rule="nonzero"/></g></svg>