<svg xmlns="http://www.w3.org/2000/svg" xmlns:xlink="http://www.w3.org/1999/xlink" width="500" zoomAndPan="magnify" viewBox="0 0 375 374.999991" height="500" preserveAspectRatio="xMidYMid meet" version="1.0"><defs><clipPath id="875737fc72"><path d="M 14.476562 46.917969 L 360.226562 46.917969 L 360.226562 328.167969 L 14.476562 328.167969 Z M 14.476562 46.917969 " clip-rule="nonzero"/></clipPath></defs><g clip-path="url(#875737fc72)"><path fill="#000000" d="M 342.128906 291.660156 L 337.402344 291.660156 L 337.402344 126.699219 L 342.128906 126.699219 C 342.726562 126.699219 343.320312 126.667969 343.914062 126.609375 C 344.511719 126.550781 345.101562 126.464844 345.683594 126.347656 C 346.269531 126.230469 346.851562 126.085938 347.421875 125.910156 C 347.992188 125.738281 348.554688 125.535156 349.105469 125.308594 C 349.65625 125.078125 350.195312 124.824219 350.722656 124.542969 C 351.25 124.261719 351.761719 123.953125 352.257812 123.621094 C 352.753906 123.289062 353.234375 122.933594 353.695312 122.554688 C 354.15625 122.175781 354.597656 121.773438 355.019531 121.351562 C 355.441406 120.929688 355.84375 120.484375 356.222656 120.023438 C 356.601562 119.5625 356.957031 119.082031 357.289062 118.585938 C 357.621094 118.085938 357.925781 117.574219 358.207031 117.046875 C 358.488281 116.519531 358.746094 115.980469 358.972656 115.429688 C 359.203125 114.875 359.402344 114.3125 359.574219 113.742188 C 359.75 113.171875 359.894531 112.589844 360.011719 112.003906 C 360.128906 111.417969 360.214844 110.828125 360.273438 110.234375 C 360.332031 109.636719 360.359375 109.042969 360.359375 108.441406 C 360.359375 107.84375 360.332031 107.25 360.273438 106.652344 C 360.214844 106.058594 360.128906 105.46875 360.011719 104.882812 C 359.894531 104.296875 359.75 103.714844 359.574219 103.144531 C 359.402344 102.574219 359.203125 102.011719 358.972656 101.457031 C 358.746094 100.90625 358.488281 100.367188 358.207031 99.839844 C 357.925781 99.3125 357.621094 98.800781 357.289062 98.300781 C 356.957031 97.804688 356.601562 97.324219 356.222656 96.863281 C 355.84375 96.402344 355.441406 95.957031 355.019531 95.535156 C 354.597656 95.113281 354.15625 94.710938 353.695312 94.332031 C 353.234375 93.953125 352.753906 93.597656 352.257812 93.265625 C 351.761719 92.933594 351.25 92.625 350.722656 92.34375 C 350.195312 92.0625 349.65625 91.808594 349.105469 91.578125 C 348.554688 91.351562 347.992188 91.148438 347.421875 90.976562 C 346.851562 90.800781 346.269531 90.65625 345.683594 90.539062 C 345.101562 90.421875 344.511719 90.335938 343.914062 90.277344 C 343.320312 90.21875 342.726562 90.1875 342.128906 90.1875 L 334.835938 90.1875 L 334.835938 73.285156 C 334.835938 72.976562 334.804688 72.667969 334.746094 72.363281 C 334.683594 72.058594 334.59375 71.761719 334.476562 71.476562 C 334.359375 71.1875 334.210938 70.914062 334.039062 70.65625 C 333.867188 70.398438 333.671875 70.160156 333.453125 69.941406 C 333.230469 69.71875 332.992188 69.523438 332.734375 69.351562 C 332.476562 69.179688 332.203125 69.03125 331.917969 68.914062 C 331.632812 68.796875 331.335938 68.707031 331.03125 68.644531 C 330.726562 68.585938 330.417969 68.554688 330.109375 68.554688 L 317.648438 68.554688 L 317.648438 51.652344 C 317.648438 51.339844 317.617188 51.035156 317.558594 50.730469 C 317.496094 50.425781 317.40625 50.128906 317.289062 49.839844 C 317.171875 49.554688 317.023438 49.28125 316.851562 49.023438 C 316.679688 48.765625 316.484375 48.523438 316.265625 48.304688 C 316.042969 48.085938 315.804688 47.890625 315.546875 47.714844 C 315.289062 47.542969 315.015625 47.398438 314.730469 47.28125 C 314.445312 47.160156 314.148438 47.070312 313.84375 47.011719 C 313.539062 46.949219 313.230469 46.917969 312.921875 46.917969 L 281.519531 46.917969 C 281.210938 46.917969 280.902344 46.949219 280.597656 47.011719 C 280.292969 47.070312 280 47.160156 279.710938 47.28125 C 279.425781 47.398438 279.152344 47.542969 278.894531 47.71875 C 278.636719 47.890625 278.398438 48.085938 278.179688 48.304688 C 277.957031 48.527344 277.761719 48.765625 277.589844 49.023438 C 277.417969 49.28125 277.273438 49.554688 277.152344 49.839844 C 277.035156 50.128906 276.945312 50.425781 276.882812 50.730469 C 276.824219 51.035156 276.792969 51.339844 276.792969 51.652344 L 276.792969 68.554688 L 264.335938 68.554688 C 264.023438 68.554688 263.71875 68.585938 263.414062 68.644531 C 263.109375 68.707031 262.8125 68.796875 262.527344 68.914062 C 262.238281 69.03125 261.96875 69.179688 261.707031 69.351562 C 261.449219 69.523438 261.210938 69.71875 260.992188 69.941406 C 260.773438 70.160156 260.578125 70.398438 260.40625 70.65625 C 260.230469 70.914062 260.085938 71.1875 259.96875 71.476562 C 259.847656 71.761719 259.757812 72.058594 259.699219 72.363281 C 259.640625 72.667969 259.609375 72.976562 259.609375 73.285156 L 259.609375 90.1875 L 115.367188 90.1875 L 115.367188 73.285156 C 115.367188 72.976562 115.339844 72.667969 115.277344 72.363281 C 115.21875 72.058594 115.128906 71.761719 115.007812 71.476562 C 114.890625 71.1875 114.746094 70.914062 114.570312 70.65625 C 114.398438 70.398438 114.203125 70.160156 113.984375 69.941406 C 113.765625 69.71875 113.527344 69.523438 113.269531 69.351562 C 113.007812 69.179688 112.738281 69.03125 112.449219 68.914062 C 112.164062 68.796875 111.867188 68.707031 111.5625 68.644531 C 111.257812 68.585938 110.953125 68.554688 110.640625 68.554688 L 98.179688 68.554688 L 98.179688 51.652344 C 98.179688 51.339844 98.152344 51.035156 98.089844 50.730469 C 98.03125 50.425781 97.941406 50.128906 97.820312 49.839844 C 97.703125 49.554688 97.558594 49.28125 97.386719 49.023438 C 97.210938 48.765625 97.015625 48.523438 96.796875 48.304688 C 96.578125 48.085938 96.339844 47.890625 96.082031 47.714844 C 95.824219 47.542969 95.550781 47.398438 95.261719 47.28125 C 94.976562 47.160156 94.679688 47.070312 94.375 47.011719 C 94.070312 46.949219 93.765625 46.917969 93.453125 46.917969 L 62.054688 46.917969 C 61.742188 46.917969 61.433594 46.949219 61.128906 47.011719 C 60.828125 47.070312 60.53125 47.160156 60.242188 47.28125 C 59.957031 47.398438 59.683594 47.542969 59.425781 47.71875 C 59.167969 47.890625 58.929688 48.085938 58.710938 48.304688 C 58.492188 48.527344 58.296875 48.765625 58.121094 49.023438 C 57.949219 49.28125 57.804688 49.554688 57.6875 49.839844 C 57.566406 50.128906 57.476562 50.425781 57.417969 50.730469 C 57.355469 51.035156 57.324219 51.339844 57.324219 51.652344 L 57.324219 68.554688 L 44.867188 68.554688 C 44.558594 68.554688 44.25 68.585938 43.945312 68.644531 C 43.640625 68.707031 43.347656 68.796875 43.058594 68.914062 C 42.773438 69.03125 42.5 69.179688 42.242188 69.351562 C 41.984375 69.523438 41.746094 69.71875 41.523438 69.941406 C 41.304688 70.160156 41.109375 70.398438 40.9375 70.65625 C 40.765625 70.914062 40.621094 71.1875 40.5 71.476562 C 40.382812 71.761719 40.292969 72.058594 40.230469 72.363281 C 40.171875 72.667969 40.140625 72.976562 40.140625 73.285156 L 40.140625 90.1875 L 32.847656 90.1875 C 32.25 90.1875 31.65625 90.21875 31.0625 90.277344 C 30.46875 90.335938 29.878906 90.421875 29.292969 90.539062 C 28.707031 90.65625 28.128906 90.800781 27.554688 90.976562 C 26.984375 91.148438 26.421875 91.351562 25.871094 91.578125 C 25.320312 91.808594 24.78125 92.0625 24.253906 92.34375 C 23.726562 92.625 23.214844 92.933594 22.71875 93.265625 C 22.222656 93.597656 21.742188 93.953125 21.28125 94.332031 C 20.820312 94.710938 20.378906 95.113281 19.957031 95.535156 C 19.535156 95.957031 19.132812 96.402344 18.753906 96.863281 C 18.375 97.324219 18.019531 97.804688 17.6875 98.300781 C 17.355469 98.800781 17.050781 99.3125 16.769531 99.839844 C 16.488281 100.367188 16.230469 100.90625 16.003906 101.457031 C 15.773438 102.011719 15.574219 102.574219 15.402344 103.144531 C 15.226562 103.714844 15.082031 104.296875 14.964844 104.882812 C 14.847656 105.46875 14.761719 106.058594 14.703125 106.652344 C 14.644531 107.25 14.617188 107.84375 14.617188 108.441406 C 14.617188 109.042969 14.644531 109.636719 14.703125 110.234375 C 14.761719 110.828125 14.847656 111.417969 14.964844 112.003906 C 15.082031 112.589844 15.226562 113.171875 15.402344 113.742188 C 15.574219 114.3125 15.773438 114.875 16.003906 115.429688 C 16.230469 115.980469 16.488281 116.519531 16.769531 117.046875 C 17.050781 117.574219 17.355469 118.085938 17.6875 118.585938 C 18.019531 119.082031 18.375 119.5625 18.753906 120.023438 C 19.132812 120.484375 19.535156 120.929688 19.957031 121.351562 C 20.378906 121.773438 20.820312 122.175781 21.28125 122.554688 C 21.742188 122.933594 22.222656 123.289062 22.71875 123.621094 C 23.214844 123.953125 23.726562 124.261719 24.253906 124.542969 C 24.78125 124.824219 25.320312 125.078125 25.871094 125.308594 C 26.421875 125.535156 26.984375 125.738281 27.554688 125.910156 C 28.128906 126.085938 28.707031 126.230469 29.292969 126.347656 C 29.878906 126.464844 30.46875 126.550781 31.0625 126.609375 C 31.65625 126.667969 32.25 126.699219 32.847656 126.699219 L 37.574219 126.699219 L 37.574219 291.660156 L 32.847656 291.660156 C 32.25 291.660156 31.65625 291.691406 31.0625 291.75 C 30.46875 291.808594 29.878906 291.898438 29.292969 292.015625 C 28.707031 292.132812 28.128906 292.277344 27.558594 292.453125 C 26.988281 292.625 26.425781 292.828125 25.875 293.054688 C 25.324219 293.285156 24.785156 293.539062 24.261719 293.824219 C 23.734375 294.105469 23.222656 294.410156 22.726562 294.742188 C 22.230469 295.078125 21.753906 295.433594 21.292969 295.8125 C 20.832031 296.191406 20.390625 296.589844 19.96875 297.015625 C 19.546875 297.4375 19.144531 297.878906 18.765625 298.339844 C 18.390625 298.804688 18.035156 299.28125 17.703125 299.78125 C 17.371094 300.277344 17.066406 300.789062 16.785156 301.316406 C 16.503906 301.84375 16.246094 302.382812 16.019531 302.933594 C 15.792969 303.484375 15.589844 304.046875 15.417969 304.621094 C 15.246094 305.191406 15.101562 305.769531 14.984375 306.355469 C 14.867188 306.941406 14.78125 307.53125 14.722656 308.128906 C 14.664062 308.722656 14.632812 309.316406 14.632812 309.914062 C 14.632812 310.511719 14.664062 311.109375 14.722656 311.703125 C 14.78125 312.296875 14.867188 312.890625 14.984375 313.476562 C 15.101562 314.0625 15.246094 314.640625 15.417969 315.210938 C 15.589844 315.78125 15.792969 316.34375 16.019531 316.898438 C 16.246094 317.449219 16.503906 317.988281 16.785156 318.515625 C 17.066406 319.042969 17.371094 319.554688 17.703125 320.050781 C 18.035156 320.546875 18.390625 321.027344 18.765625 321.488281 C 19.144531 321.953125 19.546875 322.394531 19.96875 322.816406 C 20.390625 323.238281 20.832031 323.640625 21.292969 324.019531 C 21.753906 324.398438 22.230469 324.753906 22.726562 325.085938 C 23.222656 325.417969 23.734375 325.726562 24.261719 326.007812 C 24.785156 326.289062 25.324219 326.546875 25.875 326.773438 C 26.425781 327.003906 26.988281 327.207031 27.558594 327.378906 C 28.128906 327.554688 28.707031 327.699219 29.292969 327.816406 C 29.878906 327.933594 30.46875 328.019531 31.0625 328.082031 C 31.65625 328.140625 32.25 328.167969 32.847656 328.167969 L 342.128906 328.167969 C 342.726562 328.167969 343.320312 328.140625 343.914062 328.082031 C 344.507812 328.019531 345.097656 327.933594 345.683594 327.816406 C 346.269531 327.699219 346.847656 327.554688 347.417969 327.378906 C 347.988281 327.207031 348.550781 327.003906 349.101562 326.773438 C 349.652344 326.546875 350.191406 326.289062 350.714844 326.007812 C 351.242188 325.726562 351.753906 325.417969 352.25 325.085938 C 352.746094 324.753906 353.222656 324.398438 353.683594 324.019531 C 354.144531 323.640625 354.585938 323.238281 355.007812 322.816406 C 355.429688 322.394531 355.832031 321.953125 356.210938 321.488281 C 356.589844 321.027344 356.941406 320.546875 357.273438 320.050781 C 357.605469 319.554688 357.910156 319.042969 358.191406 318.515625 C 358.472656 317.988281 358.730469 317.449219 358.957031 316.898438 C 359.183594 316.34375 359.386719 315.78125 359.558594 315.210938 C 359.730469 314.640625 359.878906 314.0625 359.992188 313.476562 C 360.109375 312.890625 360.195312 312.296875 360.253906 311.703125 C 360.3125 311.109375 360.34375 310.511719 360.34375 309.914062 C 360.34375 309.316406 360.3125 308.722656 360.253906 308.128906 C 360.195312 307.53125 360.109375 306.941406 359.992188 306.355469 C 359.878906 305.769531 359.730469 305.191406 359.558594 304.621094 C 359.386719 304.046875 359.183594 303.484375 358.957031 302.933594 C 358.730469 302.382812 358.472656 301.84375 358.191406 301.316406 C 357.910156 300.789062 357.605469 300.277344 357.273438 299.78125 C 356.941406 299.28125 356.589844 298.804688 356.210938 298.339844 C 355.832031 297.878906 355.429688 297.4375 355.007812 297.015625 C 354.585938 296.589844 354.144531 296.191406 353.683594 295.8125 C 353.222656 295.433594 352.746094 295.078125 352.25 294.742188 C 351.753906 294.410156 351.242188 294.105469 350.714844 293.824219 C 350.191406 293.539062 349.652344 293.285156 349.101562 293.054688 C 348.550781 292.828125 347.988281 292.625 347.417969 292.453125 C 346.847656 292.277344 346.269531 292.132812 345.683594 292.015625 C 345.097656 291.898438 344.507812 291.808594 343.914062 291.75 C 343.320312 291.691406 342.726562 291.660156 342.128906 291.660156 Z M 286.246094 56.386719 L 308.195312 56.386719 L 308.195312 68.554688 L 286.246094 68.554688 Z M 269.0625 78.019531 L 325.382812 78.019531 L 325.382812 90.1875 L 269.0625 90.1875 Z M 66.78125 56.386719 L 88.726562 56.386719 L 88.726562 68.554688 L 66.78125 68.554688 Z M 49.59375 78.019531 L 105.914062 78.019531 L 105.914062 90.1875 L 49.59375 90.1875 Z M 24.070312 108.449219 C 24.070312 107.871094 24.125 107.300781 24.238281 106.734375 C 24.351562 106.167969 24.519531 105.617188 24.738281 105.085938 C 24.960938 104.550781 25.230469 104.046875 25.550781 103.566406 C 25.871094 103.085938 26.234375 102.640625 26.640625 102.234375 C 27.050781 101.824219 27.492188 101.460938 27.972656 101.140625 C 28.449219 100.820312 28.957031 100.546875 29.488281 100.328125 C 30.023438 100.105469 30.570312 99.9375 31.136719 99.824219 C 31.699219 99.710938 32.273438 99.65625 32.847656 99.652344 L 342.128906 99.652344 C 342.703125 99.652344 343.277344 99.710938 343.839844 99.824219 C 344.40625 99.9375 344.957031 100.101562 345.488281 100.324219 C 346.019531 100.542969 346.527344 100.816406 347.003906 101.136719 C 347.484375 101.457031 347.929688 101.820312 348.335938 102.230469 C 348.742188 102.636719 349.105469 103.082031 349.425781 103.558594 C 349.746094 104.039062 350.019531 104.546875 350.238281 105.078125 C 350.460938 105.613281 350.625 106.164062 350.738281 106.730469 C 350.851562 107.292969 350.90625 107.867188 350.90625 108.441406 C 350.90625 109.019531 350.851562 109.59375 350.738281 110.15625 C 350.625 110.722656 350.460938 111.273438 350.238281 111.808594 C 350.019531 112.339844 349.746094 112.847656 349.425781 113.328125 C 349.105469 113.804688 348.742188 114.25 348.335938 114.65625 C 347.929688 115.066406 347.484375 115.429688 347.003906 115.75 C 346.527344 116.070312 346.019531 116.34375 345.488281 116.5625 C 344.957031 116.785156 344.40625 116.949219 343.839844 117.0625 C 343.277344 117.175781 342.703125 117.230469 342.128906 117.230469 L 32.847656 117.230469 C 32.273438 117.230469 31.703125 117.175781 31.136719 117.0625 C 30.574219 116.949219 30.023438 116.78125 29.492188 116.5625 C 28.960938 116.339844 28.453125 116.070312 27.976562 115.75 C 27.496094 115.429688 27.054688 115.066406 26.644531 114.65625 C 26.238281 114.25 25.875 113.804688 25.554688 113.328125 C 25.234375 112.847656 24.964844 112.339844 24.742188 111.808594 C 24.519531 111.277344 24.355469 110.726562 24.242188 110.160156 C 24.128906 109.597656 24.070312 109.027344 24.070312 108.449219 Z M 47.03125 126.699219 L 327.949219 126.699219 L 327.949219 291.660156 L 47.03125 291.660156 Z M 342.128906 318.703125 L 32.847656 318.703125 C 32.273438 318.703125 31.699219 318.648438 31.136719 318.535156 C 30.570312 318.421875 30.019531 318.257812 29.488281 318.035156 C 28.957031 317.816406 28.449219 317.542969 27.972656 317.222656 C 27.492188 316.902344 27.046875 316.539062 26.640625 316.128906 C 26.234375 315.722656 25.871094 315.277344 25.550781 314.796875 C 25.230469 314.320312 24.957031 313.8125 24.738281 313.277344 C 24.515625 312.746094 24.351562 312.195312 24.238281 311.628906 C 24.125 311.0625 24.070312 310.492188 24.070312 309.914062 C 24.070312 309.339844 24.125 308.765625 24.238281 308.199219 C 24.351562 307.636719 24.515625 307.085938 24.738281 306.550781 C 24.957031 306.019531 25.230469 305.511719 25.550781 305.03125 C 25.871094 304.554688 26.234375 304.109375 26.640625 303.699219 C 27.046875 303.292969 27.492188 302.929688 27.972656 302.609375 C 28.449219 302.289062 28.957031 302.015625 29.488281 301.796875 C 30.019531 301.574219 30.570312 301.40625 31.136719 301.296875 C 31.699219 301.183594 32.273438 301.125 32.847656 301.125 L 342.128906 301.125 C 342.703125 301.125 343.277344 301.183594 343.839844 301.296875 C 344.40625 301.40625 344.957031 301.574219 345.488281 301.796875 C 346.019531 302.015625 346.527344 302.289062 347.003906 302.609375 C 347.484375 302.929688 347.929688 303.292969 348.335938 303.699219 C 348.742188 304.109375 349.105469 304.554688 349.425781 305.03125 C 349.746094 305.511719 350.019531 306.019531 350.238281 306.550781 C 350.460938 307.085938 350.625 307.636719 350.738281 308.199219 C 350.851562 308.765625 350.90625 309.339844 350.90625 309.914062 C 350.90625 310.492188 350.851562 311.0625 350.738281 311.628906 C 350.625 312.195312 350.460938 312.746094 350.238281 313.277344 C 350.019531 313.8125 349.746094 314.320312 349.425781 314.796875 C 349.105469 315.277344 348.742188 315.722656 348.335938 316.128906 C 347.929688 316.539062 347.484375 316.902344 347.003906 317.222656 C 346.527344 317.542969 346.019531 317.816406 345.488281 318.035156 C 344.957031 318.257812 344.40625 318.421875 343.839844 318.535156 C 343.277344 318.648438 342.703125 318.703125 342.128906 318.703125 Z M 342.128906 318.703125 " fill-opacity="1" fill-rule="nonzero"/></g><path fill="#000000" d="M 217.199219 193.863281 L 192.351562 193.863281 L 192.492188 148.972656 C 192.492188 148.425781 192.402344 147.894531 192.222656 147.378906 C 192.039062 146.863281 191.777344 146.394531 191.433594 145.96875 C 191.085938 145.546875 190.683594 145.191406 190.214844 144.90625 C 189.746094 144.625 189.246094 144.425781 188.710938 144.316406 C 188.175781 144.207031 187.640625 144.191406 187.097656 144.269531 C 186.558594 144.347656 186.046875 144.511719 185.5625 144.765625 C 185.078125 145.023438 184.652344 145.351562 184.28125 145.753906 C 183.914062 146.15625 183.621094 146.609375 183.410156 147.113281 L 153.425781 217.925781 C 153.273438 218.285156 153.167969 218.65625 153.105469 219.042969 C 153.046875 219.429688 153.035156 219.820312 153.070312 220.207031 C 153.105469 220.597656 153.1875 220.976562 153.316406 221.34375 C 153.445312 221.714844 153.617188 222.0625 153.832031 222.386719 C 154.050781 222.714844 154.300781 223.007812 154.589844 223.273438 C 154.878906 223.535156 155.195312 223.761719 155.539062 223.945312 C 155.882812 224.132812 156.242188 224.269531 156.621094 224.367188 C 157 224.460938 157.386719 224.511719 157.777344 224.511719 L 182.625 224.511719 L 182.484375 269.402344 C 182.484375 269.949219 182.574219 270.480469 182.753906 270.996094 C 182.9375 271.511719 183.199219 271.980469 183.542969 272.40625 C 183.890625 272.832031 184.296875 273.183594 184.761719 273.46875 C 185.230469 273.75 185.730469 273.949219 186.265625 274.058594 C 186.800781 274.167969 187.339844 274.183594 187.878906 274.105469 C 188.417969 274.027344 188.929688 273.863281 189.414062 273.609375 C 189.898438 273.355469 190.324219 273.023438 190.695312 272.621094 C 191.0625 272.21875 191.355469 271.765625 191.566406 271.261719 L 221.550781 200.449219 C 221.703125 200.089844 221.808594 199.71875 221.871094 199.332031 C 221.929688 198.945312 221.941406 198.558594 221.90625 198.167969 C 221.871094 197.777344 221.789062 197.398438 221.660156 197.03125 C 221.53125 196.660156 221.359375 196.3125 221.144531 195.988281 C 220.925781 195.660156 220.675781 195.367188 220.386719 195.101562 C 220.097656 194.839844 219.78125 194.613281 219.4375 194.429688 C 219.09375 194.246094 218.734375 194.105469 218.355469 194.007812 C 217.976562 193.914062 217.589844 193.863281 217.199219 193.863281 Z M 192.019531 245.957031 L 192.101562 219.804688 C 192.101562 219.492188 192.074219 219.183594 192.011719 218.878906 C 191.953125 218.574219 191.863281 218.277344 191.746094 217.988281 C 191.628906 217.703125 191.480469 217.425781 191.308594 217.167969 C 191.136719 216.910156 190.941406 216.667969 190.722656 216.449219 C 190.503906 216.226562 190.265625 216.03125 190.003906 215.859375 C 189.746094 215.683594 189.472656 215.539062 189.1875 215.417969 C 188.898438 215.300781 188.605469 215.207031 188.300781 215.148438 C 187.992188 215.085938 187.6875 215.054688 187.375 215.054688 L 164.914062 215.054688 L 182.957031 172.425781 L 182.875 198.582031 C 182.875 198.894531 182.902344 199.199219 182.964844 199.507812 C 183.023438 199.8125 183.113281 200.109375 183.230469 200.398438 C 183.347656 200.683594 183.496094 200.957031 183.667969 201.21875 C 183.839844 201.476562 184.035156 201.71875 184.253906 201.9375 C 184.472656 202.15625 184.714844 202.355469 184.972656 202.527344 C 185.230469 202.703125 185.503906 202.847656 185.789062 202.96875 C 186.078125 203.085938 186.371094 203.175781 186.679688 203.238281 C 186.984375 203.300781 187.289062 203.328125 187.601562 203.328125 L 210.0625 203.328125 Z M 192.019531 245.957031 " fill-opacity="1" fill-rule="nonzero"/><path fill="#000000" d="M 98.890625 159.089844 L 88.835938 159.089844 L 88.835938 149.039062 C 88.835938 148.726562 88.804688 148.417969 88.742188 148.113281 C 88.683594 147.808594 88.59375 147.515625 88.476562 147.226562 C 88.355469 146.941406 88.210938 146.667969 88.039062 146.410156 C 87.867188 146.148438 87.667969 145.910156 87.449219 145.691406 C 87.230469 145.472656 86.992188 145.277344 86.734375 145.101562 C 86.476562 144.929688 86.203125 144.785156 85.917969 144.664062 C 85.628906 144.546875 85.335938 144.457031 85.03125 144.394531 C 84.726562 144.335938 84.417969 144.304688 84.109375 144.304688 C 83.796875 144.304688 83.488281 144.335938 83.1875 144.394531 C 82.882812 144.457031 82.585938 144.546875 82.300781 144.664062 C 82.011719 144.785156 81.738281 144.929688 81.480469 145.101562 C 81.222656 145.277344 80.984375 145.472656 80.765625 145.691406 C 80.546875 145.910156 80.351562 146.148438 80.175781 146.410156 C 80.003906 146.667969 79.859375 146.941406 79.742188 147.226562 C 79.621094 147.515625 79.53125 147.808594 79.472656 148.113281 C 79.410156 148.417969 79.378906 148.726562 79.378906 149.039062 L 79.378906 159.089844 L 69.335938 159.089844 C 69.023438 159.089844 68.71875 159.121094 68.414062 159.179688 C 68.109375 159.242188 67.8125 159.332031 67.527344 159.449219 C 67.238281 159.570312 66.96875 159.714844 66.710938 159.886719 C 66.449219 160.058594 66.210938 160.257812 65.992188 160.476562 C 65.773438 160.695312 65.578125 160.933594 65.40625 161.191406 C 65.234375 161.453125 65.085938 161.722656 64.96875 162.011719 C 64.847656 162.296875 64.757812 162.59375 64.699219 162.898438 C 64.636719 163.203125 64.609375 163.511719 64.609375 163.824219 C 64.609375 164.132812 64.636719 164.441406 64.699219 164.746094 C 64.757812 165.050781 64.847656 165.347656 64.96875 165.632812 C 65.085938 165.921875 65.234375 166.195312 65.40625 166.453125 C 65.578125 166.710938 65.773438 166.949219 65.992188 167.167969 C 66.210938 167.390625 66.449219 167.585938 66.710938 167.757812 C 66.96875 167.929688 67.238281 168.074219 67.527344 168.195312 C 67.8125 168.3125 68.109375 168.402344 68.414062 168.464844 C 68.71875 168.523438 69.023438 168.554688 69.335938 168.554688 L 79.378906 168.554688 L 79.378906 178.621094 C 79.378906 178.929688 79.410156 179.238281 79.472656 179.542969 C 79.53125 179.847656 79.621094 180.144531 79.742188 180.433594 C 79.859375 180.71875 80.003906 180.992188 80.175781 181.25 C 80.351562 181.507812 80.546875 181.746094 80.765625 181.96875 C 80.984375 182.1875 81.222656 182.382812 81.480469 182.554688 C 81.738281 182.726562 82.011719 182.875 82.300781 182.992188 C 82.585938 183.113281 82.882812 183.203125 83.1875 183.261719 C 83.488281 183.324219 83.796875 183.351562 84.109375 183.351562 C 84.417969 183.351562 84.726562 183.324219 85.03125 183.261719 C 85.335938 183.203125 85.628906 183.113281 85.917969 182.992188 C 86.203125 182.875 86.476562 182.726562 86.734375 182.554688 C 86.992188 182.382812 87.230469 182.1875 87.449219 181.96875 C 87.667969 181.746094 87.867188 181.507812 88.039062 181.25 C 88.210938 180.992188 88.355469 180.71875 88.476562 180.433594 C 88.59375 180.144531 88.683594 179.847656 88.742188 179.542969 C 88.804688 179.238281 88.835938 178.929688 88.835938 178.621094 L 88.835938 168.554688 L 98.890625 168.554688 C 99.203125 168.554688 99.507812 168.523438 99.8125 168.464844 C 100.117188 168.402344 100.414062 168.3125 100.699219 168.195312 C 100.988281 168.074219 101.257812 167.929688 101.515625 167.757812 C 101.773438 167.585938 102.015625 167.390625 102.234375 167.167969 C 102.453125 166.949219 102.648438 166.710938 102.820312 166.453125 C 102.992188 166.195312 103.140625 165.921875 103.257812 165.632812 C 103.378906 165.347656 103.464844 165.050781 103.527344 164.746094 C 103.585938 164.441406 103.617188 164.132812 103.617188 163.824219 C 103.617188 163.511719 103.585938 163.203125 103.527344 162.898438 C 103.464844 162.59375 103.378906 162.296875 103.257812 162.011719 C 103.140625 161.722656 102.992188 161.453125 102.820312 161.191406 C 102.648438 160.933594 102.453125 160.695312 102.234375 160.476562 C 102.015625 160.257812 101.773438 160.058594 101.515625 159.886719 C 101.257812 159.714844 100.988281 159.570312 100.699219 159.449219 C 100.414062 159.332031 100.117188 159.242188 99.8125 159.179688 C 99.507812 159.121094 99.203125 159.089844 98.890625 159.089844 Z M 98.890625 159.089844 " fill-opacity="1" fill-rule="nonzero"/><path fill="#000000" d="M 305.640625 159.089844 L 276.097656 159.089844 C 275.789062 159.089844 275.480469 159.121094 275.175781 159.179688 C 274.871094 159.242188 274.578125 159.332031 274.289062 159.449219 C 274.003906 159.570312 273.730469 159.714844 273.472656 159.886719 C 273.214844 160.058594 272.976562 160.257812 272.757812 160.476562 C 272.539062 160.695312 272.339844 160.933594 272.167969 161.191406 C 271.996094 161.453125 271.851562 161.722656 271.730469 162.011719 C 271.613281 162.296875 271.523438 162.59375 271.464844 162.898438 C 271.402344 163.203125 271.371094 163.511719 271.371094 163.824219 C 271.371094 164.132812 271.402344 164.441406 271.464844 164.746094 C 271.523438 165.050781 271.613281 165.347656 271.730469 165.632812 C 271.851562 165.921875 271.996094 166.195312 272.167969 166.453125 C 272.339844 166.710938 272.539062 166.949219 272.757812 167.167969 C 272.976562 167.390625 273.214844 167.585938 273.472656 167.757812 C 273.730469 167.929688 274.003906 168.074219 274.289062 168.195312 C 274.578125 168.3125 274.871094 168.402344 275.175781 168.464844 C 275.480469 168.523438 275.789062 168.554688 276.097656 168.554688 L 305.640625 168.554688 C 305.953125 168.554688 306.257812 168.523438 306.5625 168.464844 C 306.867188 168.402344 307.164062 168.3125 307.449219 168.195312 C 307.738281 168.074219 308.007812 167.929688 308.269531 167.757812 C 308.527344 167.585938 308.765625 167.390625 308.984375 167.167969 C 309.203125 166.949219 309.398438 166.710938 309.570312 166.453125 C 309.746094 166.195312 309.890625 165.921875 310.007812 165.632812 C 310.128906 165.347656 310.21875 165.050781 310.277344 164.746094 C 310.339844 164.441406 310.367188 164.132812 310.367188 163.824219 C 310.367188 163.511719 310.339844 163.203125 310.277344 162.898438 C 310.21875 162.59375 310.128906 162.296875 310.007812 162.011719 C 309.890625 161.722656 309.746094 161.453125 309.570312 161.191406 C 309.398438 160.933594 309.203125 160.695312 308.984375 160.476562 C 308.765625 160.257812 308.527344 160.058594 308.269531 159.886719 C 308.007812 159.714844 307.738281 159.570312 307.449219 159.449219 C 307.164062 159.332031 306.867188 159.242188 306.5625 159.179688 C 306.257812 159.121094 305.953125 159.089844 305.640625 159.089844 Z M 305.640625 159.089844 " fill-opacity="1" fill-rule="nonzero"/></svg>