<svg xmlns="http://www.w3.org/2000/svg" xmlns:xlink="http://www.w3.org/1999/xlink" width="500" zoomAndPan="magnify" viewBox="0 0 375 374.999991" height="500" preserveAspectRatio="xMidYMid meet" version="1.0"><defs><clipPath id="a695d86c4a"><path d="M 0 17.578125 L 375 17.578125 L 375 357.328125 L 0 357.328125 Z M 0 17.578125 " clip-rule="nonzero"/></clipPath></defs><g clip-path="url(#a695d86c4a)"><path fill="#000000" d="M 375 158.164062 L 375 152.304688 C 375 144.625 370.011719 138.148438 363.128906 135.765625 C 359.976562 70.167969 292.9375 17.578125 210.9375 17.578125 C 128.9375 17.578125 61.898438 70.167969 58.746094 135.765625 C 51.863281 138.148438 46.875 144.625 46.875 152.304688 L 46.875 158.164062 C 46.875 165.789062 51.789062 172.230469 58.59375 174.65625 L 58.59375 187.453125 L 46.875 187.453125 C 27.488281 187.453125 11.71875 203.21875 11.71875 222.601562 L 11.71875 316.324219 L 5.859375 316.324219 C 2.625 316.324219 0 318.945312 0 322.179688 L 0 351.46875 C 0 354.707031 2.625 357.328125 5.859375 357.328125 L 369.140625 357.328125 C 372.375 357.328125 375 354.707031 375 351.46875 L 375 322.179688 C 375 318.945312 372.375 316.324219 369.140625 316.324219 L 363.28125 316.324219 L 363.28125 174.65625 C 370.085938 172.230469 375 165.789062 375 158.164062 Z M 210.9375 29.292969 C 285.992188 29.292969 347.503906 76.074219 351.371094 134.734375 L 70.503906 134.734375 C 74.371094 76.074219 135.882812 29.292969 210.9375 29.292969 Z M 58.59375 152.304688 C 58.59375 149.074219 61.222656 146.449219 64.453125 146.449219 L 357.421875 146.449219 C 360.652344 146.449219 363.28125 149.074219 363.28125 152.304688 L 363.28125 158.164062 C 363.28125 161.394531 360.652344 164.023438 357.421875 164.023438 L 64.453125 164.023438 C 61.222656 164.023438 58.59375 161.394531 58.59375 158.164062 Z M 46.875 316.324219 L 46.875 222.601562 L 58.59375 222.601562 L 58.59375 316.324219 Z M 35.15625 251.886719 L 23.4375 251.886719 L 23.4375 222.601562 C 23.4375 221.585938 23.609375 220.621094 23.738281 219.640625 L 35.15625 224.226562 Z M 23.4375 263.605469 L 35.15625 263.605469 L 35.15625 287.035156 L 23.4375 287.035156 Z M 46.875 199.167969 L 58.59375 199.167969 L 58.59375 210.882812 L 46.875 210.882812 C 44.152344 210.882812 41.671875 211.855469 39.683594 213.421875 L 28.066406 208.757812 C 32.335938 202.972656 39.148438 199.167969 46.875 199.167969 Z M 23.4375 298.75 L 35.15625 298.75 L 35.15625 316.324219 L 23.4375 316.324219 Z M 363.28125 345.613281 L 11.71875 345.613281 L 11.71875 328.039062 L 363.28125 328.039062 Z M 281.25 269.460938 L 316.40625 269.460938 L 316.40625 287.035156 L 281.25 287.035156 Z M 316.40625 257.746094 L 281.25 257.746094 L 281.25 240.171875 L 316.40625 240.171875 Z M 281.25 298.75 L 316.40625 298.75 L 316.40625 316.324219 L 281.25 316.324219 Z M 328.125 316.324219 L 328.125 216.742188 C 328.125 207.050781 320.238281 199.167969 310.546875 199.167969 C 307.3125 199.167969 304.6875 201.789062 304.6875 205.027344 C 304.6875 208.265625 307.3125 210.882812 310.546875 210.882812 C 313.777344 210.882812 316.40625 213.511719 316.40625 216.742188 L 316.40625 228.457031 L 281.25 228.457031 L 281.25 216.742188 C 281.25 207.050781 273.363281 199.167969 263.671875 199.167969 C 260.4375 199.167969 257.8125 201.789062 257.8125 205.027344 C 257.8125 208.265625 260.4375 210.882812 263.671875 210.882812 C 266.902344 210.882812 269.53125 213.511719 269.53125 216.742188 L 269.53125 316.324219 L 70.3125 316.324219 L 70.3125 175.738281 L 351.5625 175.738281 L 351.5625 316.324219 Z M 181.640625 187.453125 C 144.84375 187.453125 111.328125 212.582031 111.328125 240.171875 C 111.328125 252.90625 117.007812 258.542969 121.570312 263.070312 C 125.148438 266.617188 127.972656 269.441406 128.929688 275.941406 C 129.050781 288.480469 132.71875 296.582031 135.503906 301.59375 C 136.574219 303.519531 138.570312 304.609375 140.628906 304.609375 C 141.59375 304.609375 142.570312 304.375 143.46875 303.871094 C 146.296875 302.304688 147.320312 298.734375 145.746094 295.90625 C 143.503906 291.867188 140.980469 286.082031 140.683594 277.035156 C 144.394531 271.789062 148.910156 270.855469 156.058594 269.46875 C 166.28125 267.480469 180.277344 264.765625 194.621094 245.636719 C 198.417969 240.578125 200.972656 236.363281 203.027344 232.976562 C 208.121094 224.574219 210.230469 221.09375 224.472656 216.457031 C 225.953125 215.96875 227.183594 214.917969 227.890625 213.519531 C 228.589844 212.125 228.707031 210.511719 228.214844 209.03125 C 227.921875 208.148438 220.574219 187.453125 181.640625 187.453125 Z M 193.003906 226.90625 C 190.984375 230.238281 188.695312 234.011719 185.25 238.609375 C 173.609375 254.125 163.550781 256.074219 153.824219 257.964844 C 150.101562 258.6875 146.335938 259.496094 142.714844 260.980469 C 148.617188 241.570312 165.746094 230.730469 176.78125 225.597656 C 179.710938 224.234375 180.984375 220.753906 179.621094 217.816406 C 178.257812 214.886719 174.773438 213.613281 171.835938 214.980469 C 151.089844 224.625 137.328125 239.082031 131.734375 256.679688 C 131.085938 256.003906 130.445312 255.367188 129.824219 254.753906 C 125.742188 250.703125 123.046875 248.027344 123.046875 240.171875 C 123.046875 221.210938 148.640625 199.167969 181.640625 199.167969 C 199.957031 199.167969 209.085938 204.121094 213.441406 208.046875 C 201.941406 212.933594 198.234375 218.28125 193.003906 226.90625 Z M 193.003906 226.90625 " fill-opacity="1" fill-rule="nonzero"/></g></svg>