<svg xmlns="http://www.w3.org/2000/svg" xmlns:xlink="http://www.w3.org/1999/xlink" width="500" zoomAndPan="magnify" viewBox="0 0 375 374.999991" height="500" preserveAspectRatio="xMidYMid meet" version="1.0"><defs><clipPath id="8467efd7cd"><path d="M 7.109375 0 L 367.859375 0 L 367.859375 375 L 7.109375 375 Z M 7.109375 0 " clip-rule="nonzero"/></clipPath></defs><g clip-path="url(#8467efd7cd)"><path fill="#1f1a17" d="M 261.226562 374.15625 L 367.847656 374.15625 L 367.847656 363.757812 L 330.582031 363.757812 L 330.582031 159.828125 L 268.519531 120.878906 L 249.042969 124.59375 L 249.042969 39.71875 L 186.941406 0.734375 L 125.914062 32.269531 L 125.914062 124.59375 L 106.441406 120.878906 L 44.339844 159.828125 L 44.339844 363.757812 L 7.109375 363.757812 L 7.109375 374.15625 Z M 190.050781 363.757812 L 205.238281 363.757812 L 196.839844 358.503906 L 196.839844 346.25 L 224.816406 363.757812 L 238.644531 363.757812 L 238.644531 45.414062 L 190.050781 14.960938 Z M 231.925781 348.285156 L 196.839844 326.308594 L 196.839844 338.566406 L 231.925781 360.503906 Z M 231.925781 328.308594 L 231.925781 340.601562 L 196.839844 318.625 L 196.839844 306.296875 Z M 231.925781 308.40625 L 196.839844 286.394531 L 196.839844 298.648438 L 231.925781 320.625 Z M 231.925781 288.433594 L 231.925781 300.6875 L 196.839844 278.710938 L 196.839844 266.453125 Z M 231.925781 268.457031 L 196.839844 246.480469 L 196.839844 258.773438 L 231.925781 280.710938 Z M 231.925781 248.515625 L 231.925781 260.738281 L 196.839844 238.796875 L 196.839844 226.503906 Z M 231.925781 228.542969 L 219.421875 220.714844 L 219.386719 220.714844 L 196.839844 206.601562 L 196.839844 218.859375 L 200.949219 221.429688 L 231.925781 240.835938 Z M 231.925781 208.640625 L 231.925781 220.894531 L 196.839844 198.882812 L 196.839844 186.664062 Z M 231.925781 188.664062 L 196.839844 166.6875 L 196.839844 178.945312 L 231.925781 200.921875 Z M 231.925781 168.726562 L 231.925781 181.015625 L 196.839844 159.007812 L 196.839844 146.75 Z M 231.925781 148.75 L 196.839844 126.808594 L 196.839844 139.066406 L 231.925781 161.042969 Z M 231.925781 128.847656 L 231.925781 141.101562 L 196.839844 119.089844 L 196.839844 106.835938 Z M 231.925781 108.871094 L 196.839844 86.894531 L 196.839844 99.152344 L 231.925781 121.128906 Z M 231.925781 88.898438 L 231.925781 101.222656 L 196.839844 79.210938 L 196.839844 66.921875 Z M 231.925781 68.957031 L 196.839844 46.996094 L 196.839844 59.238281 L 231.925781 81.25 Z M 231.925781 48.984375 L 231.925781 61.308594 L 196.839844 39.300781 L 196.839844 27.027344 Z M 88.898438 363.757812 L 103.332031 363.757812 L 103.332031 135.101562 L 54.703125 165.617188 L 54.703125 363.757812 L 69.386719 363.757812 L 96.542969 346.746094 L 96.542969 358.96875 Z M 61.527344 348.75 L 61.527344 361.007812 L 96.542969 338.992188 L 96.542969 326.773438 Z M 61.527344 328.808594 L 96.542969 306.796875 L 96.542969 319.089844 L 61.527344 341.101562 Z M 61.527344 308.835938 L 61.527344 321.128906 L 96.542969 299.117188 L 96.542969 286.894531 Z M 61.527344 288.894531 L 96.542969 266.957031 L 96.542969 279.175781 L 61.527344 301.152344 Z M 61.527344 268.957031 L 61.527344 281.175781 L 96.542969 259.199219 L 96.542969 246.945312 Z M 61.527344 248.980469 L 96.542969 227.003906 L 96.542969 239.296875 L 61.527344 261.238281 Z M 61.527344 229.042969 L 61.527344 241.300781 L 96.542969 219.324219 L 96.542969 207.101562 Z M 61.527344 209.066406 L 96.542969 187.128906 L 96.542969 199.382812 L 61.527344 221.359375 Z M 61.527344 189.164062 L 61.527344 201.386719 L 96.542969 179.410156 L 96.542969 167.152344 Z M 61.527344 169.191406 L 96.542969 147.214844 L 96.542969 159.433594 L 61.527344 181.445312 Z M 157.109375 141.066406 L 157.109375 363.757812 L 113.695312 363.757812 L 113.695312 132.882812 Z M 286.027344 363.757812 L 278.414062 358.96875 L 278.414062 346.75 L 305.535156 363.757812 L 320.21875 363.757812 L 320.21875 165.617188 L 271.625 135.101562 L 271.625 363.757812 Z M 313.464844 348.75 L 278.414062 326.773438 L 278.414062 338.992188 L 313.464844 361.007812 Z M 313.464844 328.808594 L 313.464844 341.101562 L 278.414062 319.089844 L 278.414062 306.796875 Z M 313.464844 308.835938 L 278.414062 286.894531 L 278.414062 299.117188 L 313.464844 321.128906 Z M 313.464844 288.894531 L 313.464844 301.152344 L 278.414062 279.175781 L 278.414062 266.957031 Z M 313.464844 268.957031 L 278.414062 246.945312 L 278.414062 259.199219 L 313.464844 281.175781 Z M 313.464844 248.980469 L 313.464844 261.238281 L 278.414062 239.296875 L 278.414062 227.003906 Z M 313.464844 229.042969 L 278.414062 207.101562 L 278.414062 219.324219 L 313.464844 241.300781 Z M 313.464844 209.066406 L 313.464844 221.359375 L 278.414062 199.382812 L 278.414062 187.128906 Z M 313.464844 189.164062 L 278.414062 167.152344 L 278.414062 179.410156 L 313.464844 201.386719 Z M 313.464844 169.191406 L 313.464844 181.445312 L 278.414062 159.433594 L 278.414062 147.214844 Z M 313.464844 169.191406 " fill-opacity="1" fill-rule="evenodd"/></g></svg>