<svg xmlns="http://www.w3.org/2000/svg" xmlns:xlink="http://www.w3.org/1999/xlink" width="500" zoomAndPan="magnify" viewBox="0 0 375 374.999991" height="500" preserveAspectRatio="xMidYMid meet" version="1.0"><defs><clipPath id="9536e9a561"><path d="M 21.09375 0 L 354.09375 0 L 354.09375 375 L 21.09375 375 Z M 21.09375 0 " clip-rule="nonzero"/></clipPath></defs><g clip-path="url(#9536e9a561)"><path fill="#000000" d="M 176.835938 231.628906 L 176.835938 192.257812 C 176.835938 189.117188 174.28125 186.578125 171.136719 186.578125 L 160.882812 186.578125 L 191.605469 143.285156 L 191.605469 173.097656 C 191.605469 176.242188 194.15625 178.773438 197.257812 178.773438 L 214.351562 178.773438 Z M 225.335938 167.417969 L 202.957031 167.417969 L 202.957031 125.457031 C 202.957031 119.953125 195.828125 117.671875 192.652344 122.167969 L 145.246094 188.972656 C 142.582031 192.726562 145.273438 197.941406 149.894531 197.941406 L 165.484375 197.941406 L 165.484375 249.46875 C 165.484375 254.964844 172.570312 257.261719 175.789062 252.746094 L 229.988281 176.382812 C 232.632812 172.65625 229.957031 167.417969 225.335938 167.417969 Z M 323.660156 285.042969 C 313.128906 285.042969 304.558594 276.492188 304.558594 265.96875 C 304.558594 255.449219 313.128906 246.898438 323.660156 246.898438 C 334.1875 246.898438 342.757812 255.449219 342.757812 265.96875 C 342.757812 276.492188 334.191406 285.042969 323.660156 285.042969 Z M 210.660156 324.621094 C 206.238281 319.515625 200.175781 315.890625 193.292969 314.585938 L 193.292969 281.328125 C 223.648438 279.511719 250.179688 263.230469 266.089844 239.304688 L 294.898438 255.941406 C 292.644531 262.40625 292.648438 269.535156 294.898438 276 Z M 187.59375 363.550781 C 177.0625 363.550781 168.539062 354.996094 168.539062 344.480469 C 168.539062 333.960938 177.0625 325.402344 187.59375 325.402344 C 198.125 325.402344 206.691406 333.960938 206.691406 344.480469 C 206.691406 354.996094 198.125 363.550781 187.59375 363.550781 Z M 80.289062 276 C 82.539062 269.535156 82.539062 262.40625 80.289062 255.9375 L 109.144531 239.300781 C 125.007812 263.230469 151.539062 279.511719 181.941406 281.328125 L 181.941406 314.585938 C 175.011719 315.890625 168.949219 319.515625 164.574219 324.621094 Z M 51.527344 285.042969 C 41 285.042969 32.472656 276.492188 32.472656 265.96875 C 32.472656 255.449219 41 246.898438 51.527344 246.898438 C 62.058594 246.898438 70.628906 255.449219 70.628906 265.96875 C 70.628906 276.492188 62.058594 285.042969 51.527344 285.042969 Z M 32.472656 108.945312 C 32.472656 98.433594 41 89.871094 51.527344 89.871094 C 62.058594 89.871094 70.628906 98.433594 70.628906 108.945312 C 70.628906 119.46875 62.058594 128.023438 51.527344 128.023438 C 40.996094 128.023438 32.472656 119.46875 32.472656 108.945312 Z M 164.574219 50.300781 C 168.949219 55.402344 175.011719 59.03125 181.941406 60.332031 L 181.941406 93.589844 C 151.539062 95.40625 125.007812 111.683594 109.144531 135.621094 L 80.292969 118.980469 C 82.539062 112.515625 82.542969 105.382812 80.292969 98.914062 Z M 187.59375 11.359375 C 198.125 11.359375 206.691406 19.917969 206.691406 30.4375 C 206.691406 40.953125 198.125 49.515625 187.59375 49.515625 C 177.0625 49.515625 168.539062 40.953125 168.539062 30.4375 C 168.539062 19.917969 177.0625 11.359375 187.59375 11.359375 Z M 294.898438 98.917969 C 292.648438 105.382812 292.648438 112.519531 294.898438 118.980469 L 266.089844 135.621094 C 250.179688 111.6875 223.648438 95.410156 193.292969 93.589844 L 193.292969 60.335938 C 200.175781 59.03125 206.238281 55.40625 210.660156 50.300781 Z M 323.660156 89.871094 C 334.1875 89.871094 342.757812 98.433594 342.757812 108.945312 C 342.757812 119.46875 334.191406 128.023438 323.660156 128.023438 C 313.128906 128.023438 304.558594 119.46875 304.558594 108.945312 C 304.558594 98.433594 313.128906 89.871094 323.660156 89.871094 Z M 57.226562 236.074219 C 64.109375 237.375 70.171875 241.007812 74.59375 246.113281 L 103.445312 229.472656 C 90.195312 203.003906 90.1875 171.917969 103.445312 145.453125 L 74.59375 128.800781 C 70.171875 133.910156 64.109375 137.535156 57.226562 138.847656 Z M 187.59375 270.144531 C 233.222656 270.144531 270.328125 233.050781 270.328125 187.457031 C 270.328125 141.867188 233.222656 104.769531 187.59375 104.769531 C 142.011719 104.769531 104.859375 141.867188 104.859375 187.457031 C 104.859375 233.050781 142.011719 270.144531 187.59375 270.144531 Z M 300.640625 246.113281 C 305.015625 241.007812 311.078125 237.375 317.960938 236.074219 L 317.960938 138.847656 C 311.078125 137.535156 305.015625 133.910156 300.640625 128.800781 L 271.785156 145.453125 C 285.046875 171.917969 285.039062 203.003906 271.785156 229.472656 Z M 329.359375 236.074219 L 329.359375 138.847656 C 343.441406 136.171875 354.109375 123.789062 354.109375 108.945312 C 354.109375 92.167969 340.433594 78.511719 323.660156 78.511719 C 314.453125 78.511719 306.203125 82.617188 300.640625 89.09375 L 216.359375 40.464844 C 223.183594 20.886719 208.699219 0 187.59375 0 C 166.804688 0 151.929688 20.53125 158.878906 40.464844 L 74.59375 89.09375 C 68.988281 82.617188 60.738281 78.511719 51.53125 78.511719 C 34.753906 78.511719 21.078125 92.167969 21.078125 108.945312 C 21.078125 123.789062 31.792969 136.171875 45.878906 138.847656 L 45.878906 236.074219 C 31.792969 238.742188 21.078125 251.128906 21.078125 265.96875 C 21.078125 282.75 34.753906 296.402344 51.53125 296.402344 C 60.738281 296.402344 68.988281 292.292969 74.59375 285.824219 L 158.878906 334.453125 C 151.929688 354.417969 166.820312 374.914062 187.59375 374.914062 C 208.679688 374.914062 223.183594 354.0625 216.359375 334.453125 L 300.640625 285.824219 C 306.203125 292.292969 314.453125 296.402344 323.660156 296.402344 C 340.433594 296.402344 354.109375 282.75 354.109375 265.96875 C 354.109375 251.128906 343.441406 238.742188 329.359375 236.074219 Z M 329.359375 236.074219 " fill-opacity="1" fill-rule="evenodd"/></g></svg>