<svg xmlns="http://www.w3.org/2000/svg" xmlns:xlink="http://www.w3.org/1999/xlink" width="500" zoomAndPan="magnify" viewBox="0 0 375 374.999991" height="500" preserveAspectRatio="xMidYMid meet" version="1.0"><defs><clipPath id="eef68f10dd"><path d="M 67.03125 0 L 307.78125 0 L 307.78125 375 L 67.03125 375 Z M 67.03125 0 " clip-rule="nonzero"/></clipPath></defs><path fill="#000000" d="M 172.59375 252.90625 C 174.480469 254.132812 175.605469 256.144531 175.605469 258.292969 L 175.605469 296.515625 C 168.269531 289.894531 162.652344 281.613281 159.257812 272.214844 C 158.699219 270.667969 156.996094 269.863281 155.453125 270.425781 C 153.910156 270.988281 153.109375 272.691406 153.667969 274.234375 C 157.988281 286.191406 165.574219 296.523438 175.605469 304.257812 L 175.605469 306.269531 C 175.605469 312.808594 180.488281 318.179688 186.710938 318.492188 C 186.925781 318.503906 187.140625 318.507812 187.351562 318.507812 C 190.375 318.507812 193.222656 317.378906 195.429688 315.28125 C 197.753906 313.078125 199.085938 309.976562 199.085938 306.777344 L 199.085938 283.992188 C 207.625 276.449219 212.871094 266.851562 214.621094 255.410156 C 214.871094 253.785156 213.757812 252.265625 212.136719 252.019531 C 210.53125 251.777344 208.996094 252.882812 208.746094 254.507812 C 207.484375 262.769531 204.285156 269.722656 199.085938 275.625 L 199.085938 258.292969 C 199.085938 256.144531 200.164062 254.140625 201.921875 253.042969 C 209.898438 247.988281 214.660156 239.355469 214.660156 229.945312 C 214.660156 222.160156 211.332031 214.71875 205.53125 209.535156 C 199.742188 204.363281 191.957031 201.886719 184.183594 202.78125 C 171.800781 204.1875 161.730469 214.171875 160.226562 226.527344 C 158.957031 237.097656 163.695312 247.207031 172.59375 252.90625 Z M 172.59375 252.90625 " fill-opacity="1" fill-rule="nonzero"/><g clip-path="url(#eef68f10dd)"><path fill="#000000" d="M 307.664062 325.507812 L 307.664062 168.96875 C 307.664062 153.375 295.75 140.515625 280.554688 139.019531 L 280.554688 93.386719 C 280.554688 41.949219 238.742188 0.105469 187.347656 0.105469 C 162.441406 0.105469 139.035156 9.804688 121.433594 27.417969 C 103.832031 45.03125 94.136719 68.460938 94.136719 93.386719 L 94.136719 139.070312 C 84.101562 140.054688 75.242188 145.902344 70.511719 154.945312 C 70.433594 155.058594 70.359375 155.179688 70.292969 155.304688 C 68.160156 159.515625 67.03125 164.238281 67.03125 168.96875 L 67.03125 344.792969 C 67.03125 361.390625 80.523438 374.894531 97.109375 374.894531 L 277.582031 374.894531 C 294.167969 374.894531 307.664062 361.390625 307.664062 344.792969 L 307.664062 325.519531 C 307.664062 325.515625 307.664062 325.511719 307.664062 325.507812 Z M 301.71875 168.96875 L 301.71875 183.023438 C 285.996094 175.792969 277.046875 163.238281 274.464844 144.816406 L 277.582031 144.816406 C 290.890625 144.816406 301.71875 155.648438 301.71875 168.96875 Z M 123.117188 138.867188 L 123.117188 91.15625 C 123.117188 73.996094 129.796875 57.863281 141.921875 45.726562 C 154.050781 33.589844 170.183594 26.90625 187.347656 26.90625 C 222.765625 26.90625 251.578125 55.726562 251.578125 91.15625 L 251.578125 138.867188 Z M 97.109375 144.816406 L 98.785156 144.816406 C 104.339844 148.820312 108.324219 154.023438 110.855469 160.765625 C 111.300781 161.957031 112.433594 162.695312 113.636719 162.695312 C 113.984375 162.695312 114.335938 162.632812 114.683594 162.503906 C 116.21875 161.929688 116.996094 160.210938 116.417969 158.671875 C 114.414062 153.335938 111.527344 148.710938 107.832031 144.816406 L 140.722656 144.816406 C 121.335938 162.789062 112.007812 185.683594 113.042969 213.015625 C 113.105469 214.617188 114.421875 215.878906 116.011719 215.878906 C 116.050781 215.878906 116.085938 215.878906 116.125 215.875 C 117.765625 215.8125 119.042969 214.429688 118.984375 212.789062 C 117.933594 185.039062 128.304688 162.183594 149.78125 144.816406 L 245.46875 144.816406 C 250.800781 150.679688 255.554688 157.566406 260.34375 166.402344 C 260.882812 167.394531 261.90625 167.957031 262.960938 167.957031 C 263.4375 167.957031 263.925781 167.839844 264.375 167.597656 C 265.816406 166.8125 266.355469 165.007812 265.570312 163.5625 C 261.585938 156.214844 257.609375 150.128906 253.316406 144.816406 L 268.476562 144.816406 C 271.308594 166.542969 282.480469 181.558594 301.714844 189.488281 L 301.714844 214.269531 C 287.964844 209.277344 281.097656 195.082031 273.265625 178.816406 L 273.242188 178.777344 C 272.53125 177.292969 270.761719 176.695312 269.285156 177.410156 C 267.804688 178.125 267.195312 179.925781 267.910156 181.402344 C 276.324219 198.871094 284.320312 215.378906 301.714844 220.519531 L 301.714844 278.730469 C 294.554688 314.199219 271.910156 346.195312 237.894531 368.953125 L 221.507812 368.953125 C 228.574219 352.578125 237.390625 342.523438 245.941406 332.789062 C 247.222656 331.332031 248.496094 329.878906 249.753906 328.417969 C 250.828125 327.171875 250.6875 325.296875 249.445312 324.222656 C 248.203125 323.152344 246.324219 323.289062 245.25 324.535156 C 244.007812 325.980469 242.742188 327.417969 241.472656 328.863281 C 232.210938 339.410156 222.648438 350.328125 215.066406 368.957031 L 206.417969 368.957031 C 204.230469 366.621094 197.988281 359.003906 197.988281 348.195312 C 197.988281 339.929688 202.265625 330.683594 207.6875 318.984375 C 216.355469 300.257812 227.144531 276.957031 227.144531 243.460938 C 227.144531 208.328125 209.289062 179.75 187.347656 179.75 C 177.871094 179.75 168.714844 185.085938 161.5625 194.789062 C 160.585938 196.109375 160.871094 197.96875 162.191406 198.945312 C 163.511719 199.917969 165.371094 199.640625 166.34375 198.320312 C 170.59375 192.558594 177.679688 185.695312 187.34375 185.695312 C 206.011719 185.695312 221.199219 211.605469 221.199219 243.457031 C 221.199219 275.636719 210.714844 298.285156 202.289062 316.480469 C 196.789062 328.355469 192.039062 338.613281 192.039062 348.191406 C 192.039062 357.367188 195.667969 364.5 198.785156 368.953125 L 162.441406 368.953125 C 136.457031 344.871094 122.414062 314.59375 120.738281 278.921875 C 120.660156 277.277344 119.207031 275.957031 117.628906 276.089844 C 115.988281 276.167969 114.71875 277.558594 114.796875 279.203125 C 116.449219 314.359375 129.59375 344.515625 153.863281 368.953125 L 139.070312 368.953125 C 114.136719 348.550781 103.234375 319.636719 106.726562 282.972656 C 106.878906 281.335938 105.683594 279.886719 104.046875 279.730469 C 102.414062 279.535156 100.960938 280.777344 100.808594 282.410156 C 97.371094 318.515625 107.230469 347.578125 130.058594 368.953125 L 116.828125 368.953125 C 105.871094 362.671875 103.195312 350.175781 100.390625 336.945312 C 99.011719 330.441406 97.589844 323.722656 95.105469 317.625 C 88.878906 302.265625 77.847656 296.972656 72.976562 295.316406 L 72.976562 290.839844 C 74.285156 290.914062 75.566406 290.964844 76.816406 290.964844 C 83.308594 290.964844 89.023438 289.917969 94.140625 287.8125 C 95.660156 287.1875 96.382812 285.449219 95.757812 283.929688 C 95.136719 282.410156 93.402344 281.691406 91.878906 282.308594 C 86.550781 284.503906 80.296875 285.28125 72.976562 284.816406 L 72.976562 274.785156 C 76.503906 276.460938 80.429688 277.324219 84.734375 277.324219 C 85.402344 277.324219 86.082031 277.304688 86.765625 277.261719 C 88.402344 277.167969 89.652344 275.757812 89.554688 274.117188 C 89.457031 272.472656 88.011719 271.210938 86.414062 271.324219 C 81.132812 271.652344 76.738281 270.460938 72.976562 267.875 L 72.976562 249.074219 C 80.824219 252.625 86.6875 259.160156 90.804688 268.964844 C 91.28125 270.101562 92.382812 270.785156 93.542969 270.785156 C 93.925781 270.785156 94.316406 270.710938 94.695312 270.554688 C 96.207031 269.917969 96.917969 268.175781 96.285156 266.660156 C 91.214844 254.585938 83.359375 246.566406 72.976562 242.699219 L 72.976562 226.027344 C 88.871094 228.910156 102.144531 240.699219 112.46875 261.121094 C 112.992188 262.160156 114.039062 262.753906 115.125 262.753906 C 115.578125 262.753906 116.035156 262.65625 116.464844 262.4375 C 117.929688 261.695312 118.515625 259.902344 117.773438 258.441406 C 106.328125 235.792969 91.265625 222.898438 72.976562 220.011719 L 72.976562 212.261719 L 88.007812 214.417969 C 88.152344 214.441406 88.292969 214.449219 88.4375 214.449219 C 89.890625 214.449219 91.164062 213.382812 91.375 211.898438 C 91.609375 210.273438 90.480469 208.765625 88.851562 208.53125 L 72.976562 206.25 L 72.976562 190.09375 C 77.664062 191.296875 81.941406 193.777344 85.707031 197.546875 C 86.285156 198.128906 87.046875 198.417969 87.808594 198.417969 C 88.566406 198.417969 89.328125 198.128906 89.910156 197.546875 C 91.070312 196.386719 91.070312 194.503906 89.910156 193.34375 C 84.976562 188.402344 79.289062 185.261719 72.976562 183.964844 L 72.976562 168.96875 C 72.976562 165.835938 73.625 162.722656 74.804688 159.828125 C 81.28125 160.667969 86.492188 164.121094 90.648438 170.40625 C 91.21875 171.269531 92.164062 171.738281 93.128906 171.738281 C 93.6875 171.738281 94.261719 171.578125 94.765625 171.242188 C 96.132812 170.332031 96.507812 168.488281 95.601562 167.117188 C 91.011719 160.183594 85.09375 155.941406 77.9375 154.371094 C 82.4375 148.410156 89.4375 144.816406 97.109375 144.816406 Z M 72.976562 344.792969 L 72.976562 301.699219 C 77.40625 303.660156 84.996094 308.511719 89.601562 319.859375 C 91.886719 325.472656 93.253906 331.929688 94.578125 338.175781 C 96.957031 349.402344 99.425781 360.917969 107.210938 368.949219 L 97.109375 368.949219 C 83.804688 368.945312 72.976562 358.109375 72.976562 344.792969 Z M 277.582031 368.945312 L 248.214844 368.945312 C 273.351562 350.363281 291.789062 326.625 301.71875 300.203125 L 301.71875 324.835938 C 296.746094 336.164062 290.480469 345.109375 282.566406 352.144531 C 281.335938 353.234375 281.226562 355.113281 282.316406 356.34375 C 282.902344 357.007812 283.722656 357.34375 284.542969 357.34375 C 285.242188 357.34375 285.949219 357.097656 286.515625 356.59375 C 292.402344 351.359375 297.421875 345.160156 301.722656 337.875 L 301.722656 344.789062 C 301.71875 358.109375 290.890625 368.945312 277.582031 368.945312 Z M 277.582031 368.945312 " fill-opacity="1" fill-rule="nonzero"/></g><path fill="#000000" d="M 188.953125 164.238281 C 183.621094 164.238281 178.324219 165.40625 173.222656 167.714844 C 171.726562 168.390625 171.0625 170.152344 171.738281 171.648438 C 172.414062 173.144531 174.175781 173.808594 175.667969 173.136719 C 180 171.179688 184.464844 170.1875 188.949219 170.1875 C 214.890625 170.1875 234.453125 203.515625 234.453125 247.703125 C 234.453125 273.425781 226.800781 291.375 220.046875 307.210938 C 214.21875 320.882812 208.714844 333.792969 208.714844 349.523438 C 208.714844 351.167969 210.046875 352.496094 211.6875 352.496094 C 213.328125 352.496094 214.660156 351.167969 214.660156 349.523438 C 214.660156 335.007812 219.691406 323.207031 225.515625 309.546875 C 232.492188 293.1875 240.398438 274.648438 240.398438 247.707031 C 240.402344 200.121094 218.28125 164.238281 188.953125 164.238281 Z M 188.953125 164.238281 " fill-opacity="1" fill-rule="nonzero"/><path fill="#000000" d="M 161.730469 175.148438 C 149.277344 189.238281 145.515625 203.105469 143.703125 219.605469 C 142.277344 232.824219 144.773438 248.925781 150.542969 263.777344 C 151.003906 264.953125 152.125 265.671875 153.316406 265.671875 C 153.675781 265.671875 154.039062 265.609375 154.394531 265.472656 C 155.925781 264.875 156.683594 263.15625 156.089844 261.621094 C 150.648438 247.628906 148.292969 232.550781 149.613281 220.253906 C 151.300781 204.890625 154.769531 192.007812 166.183594 179.09375 C 167.273438 177.863281 167.15625 175.984375 165.929688 174.894531 C 164.691406 173.800781 162.816406 173.921875 161.730469 175.148438 Z M 161.730469 175.148438 " fill-opacity="1" fill-rule="nonzero"/><path fill="#000000" d="M 145.496094 300.574219 C 145.160156 298.300781 144.828125 296.039062 144.476562 293.796875 C 144.226562 292.175781 142.714844 291.082031 141.082031 291.316406 C 139.460938 291.574219 138.351562 293.097656 138.605469 294.71875 C 138.953125 296.941406 139.28125 299.1875 139.613281 301.441406 C 142.066406 318.183594 144.609375 335.496094 155.277344 349.214844 C 155.863281 349.964844 156.738281 350.363281 157.625 350.363281 C 158.261719 350.363281 158.90625 350.160156 159.449219 349.734375 C 160.746094 348.726562 160.976562 346.855469 159.96875 345.5625 C 150.261719 333.074219 147.839844 316.554688 145.496094 300.574219 Z M 145.496094 300.574219 " fill-opacity="1" fill-rule="nonzero"/><path fill="#000000" d="M 99.058594 216.078125 C 97.578125 216.789062 96.957031 218.570312 97.667969 220.050781 C 101.605469 228.242188 106.765625 234.324219 112.230469 240.765625 C 117.488281 246.96875 122.925781 253.378906 127.585938 262.175781 C 130.046875 266.855469 131.054688 271.402344 131.054688 277.863281 C 131.054688 279.507812 132.382812 280.839844 134.023438 280.839844 C 135.664062 280.839844 136.996094 279.507812 136.996094 277.863281 C 136.996094 270.457031 135.757812 264.933594 132.84375 259.394531 C 127.878906 250.019531 122.226562 243.355469 116.761719 236.914062 C 111.554688 230.773438 106.636719 224.972656 103.027344 217.46875 C 102.316406 215.992188 100.539062 215.367188 99.058594 216.078125 Z M 99.058594 216.078125 " fill-opacity="1" fill-rule="nonzero"/><path fill="#000000" d="M 95.675781 208.605469 C 95.941406 210.03125 97.191406 211.027344 98.59375 211.027344 C 98.773438 211.027344 98.960938 211.011719 99.144531 210.976562 C 100.757812 210.671875 101.820312 209.117188 101.519531 207.503906 C 96.570312 181.195312 107.386719 170.785156 107.898438 170.308594 C 109.113281 169.214844 109.214844 167.34375 108.125 166.121094 C 107.03125 164.898438 105.152344 164.785156 103.929688 165.882812 C 103.359375 166.394531 90.050781 178.683594 95.675781 208.605469 Z M 95.675781 208.605469 " fill-opacity="1" fill-rule="nonzero"/><path fill="#000000" d="M 155.773438 290.28125 C 155.351562 288.695312 153.726562 287.742188 152.136719 288.167969 C 150.550781 288.589844 149.605469 290.214844 150.023438 291.804688 C 152.90625 302.695312 159.125 311.34375 165.140625 319.707031 C 173.296875 331.046875 181 341.757812 180.128906 357.296875 C 180.035156 358.941406 181.289062 360.34375 182.925781 360.4375 C 182.984375 360.441406 183.039062 360.441406 183.097656 360.441406 C 184.660156 360.441406 185.96875 359.21875 186.0625 357.636719 C 187.054688 339.988281 178.367188 327.914062 169.964844 316.230469 C 164.003906 307.9375 158.371094 300.105469 155.773438 290.28125 Z M 155.773438 290.28125 " fill-opacity="1" fill-rule="nonzero"/><path fill="#000000" d="M 189.414062 155.066406 C 197.78125 153.65625 206.414062 154.074219 214.632812 156.285156 C 214.890625 156.355469 215.148438 156.390625 215.40625 156.390625 C 216.714844 156.390625 217.917969 155.515625 218.273438 154.183594 C 218.699219 152.601562 217.757812 150.964844 216.171875 150.542969 C 207.132812 148.109375 197.632812 147.648438 188.425781 149.199219 C 186.804688 149.472656 185.714844 151.003906 185.984375 152.625 C 186.257812 154.242188 187.796875 155.328125 189.414062 155.066406 Z M 189.414062 155.066406 " fill-opacity="1" fill-rule="nonzero"/><path fill="#000000" d="M 128.53125 222.867188 C 128.679688 222.886719 128.828125 222.898438 128.976562 222.898438 C 130.417969 222.898438 131.6875 221.84375 131.910156 220.367188 C 136.058594 192.707031 152.601562 169.335938 175.082031 159.375 C 176.585938 158.710938 177.261719 156.953125 176.597656 155.453125 C 175.929688 153.945312 174.175781 153.269531 172.679688 153.933594 C 148.355469 164.71875 130.480469 189.832031 126.03125 219.484375 C 125.789062 221.105469 126.90625 222.625 128.53125 222.867188 Z M 128.53125 222.867188 " fill-opacity="1" fill-rule="nonzero"/><path fill="#000000" d="M 145.8125 282.351562 C 146.132812 283.722656 147.355469 284.648438 148.703125 284.648438 C 148.929688 284.648438 149.15625 284.621094 149.386719 284.570312 C 150.984375 284.195312 151.976562 282.597656 151.601562 281 C 148.511719 267.769531 143.210938 258.214844 138.953125 250.535156 C 135.039062 243.480469 131.945312 237.90625 131.945312 232.210938 C 131.945312 230.566406 130.613281 229.234375 128.972656 229.234375 C 127.332031 229.234375 126 230.566406 126 232.210938 C 126 239.449219 129.59375 245.921875 133.753906 253.425781 C 138.046875 261.160156 142.910156 269.925781 145.8125 282.351562 Z M 145.8125 282.351562 " fill-opacity="1" fill-rule="nonzero"/><path fill="#000000" d="M 224.554688 160.480469 C 225.027344 160.742188 271.460938 186.953125 271.460938 242.054688 C 271.460938 267.683594 268.136719 286.589844 260.992188 301.539062 C 260.285156 303.023438 260.914062 304.796875 262.390625 305.503906 C 262.804688 305.703125 263.242188 305.796875 263.671875 305.796875 C 264.78125 305.796875 265.847656 305.171875 266.355469 304.109375 C 273.894531 288.324219 277.40625 268.605469 277.40625 242.054688 C 277.40625 183.355469 227.914062 155.542969 227.414062 155.269531 C 225.976562 154.480469 224.167969 155.003906 223.386719 156.445312 C 222.589844 157.882812 223.117188 159.6875 224.554688 160.480469 Z M 224.554688 160.480469 " fill-opacity="1" fill-rule="nonzero"/><path fill="#000000" d="M 248.574219 294.132812 C 247.050781 293.535156 245.324219 294.304688 244.730469 295.835938 C 240.113281 307.816406 235.234375 313.546875 235.191406 313.597656 C 234.113281 314.832031 234.238281 316.714844 235.472656 317.792969 C 236.039062 318.289062 236.734375 318.527344 237.429688 318.527344 C 238.257812 318.527344 239.082031 318.1875 239.667969 317.511719 C 239.894531 317.253906 245.238281 311.042969 250.277344 297.972656 C 250.871094 296.441406 250.105469 294.71875 248.574219 294.132812 Z M 248.574219 294.132812 " fill-opacity="1" fill-rule="nonzero"/><path fill="#000000" d="M 252.125 281.96875 C 252.332031 282.011719 252.535156 282.03125 252.738281 282.03125 C 254.113281 282.03125 255.351562 281.070312 255.644531 279.667969 C 257.878906 269.015625 259.007812 257.566406 259.007812 245.648438 C 259.007812 196.09375 230.011719 170.789062 228.777344 169.734375 C 227.527344 168.675781 225.660156 168.820312 224.589844 170.070312 C 223.523438 171.316406 223.671875 173.191406 224.914062 174.261719 C 225.199219 174.503906 253.0625 198.960938 253.0625 245.652344 C 253.0625 257.164062 251.976562 268.195312 249.828125 278.445312 C 249.488281 280.050781 250.519531 281.632812 252.125 281.96875 Z M 252.125 281.96875 " fill-opacity="1" fill-rule="nonzero"/><path fill="#000000" d="M 241.78125 350.550781 C 240.527344 351.609375 240.367188 353.488281 241.429688 354.742188 C 242.019531 355.4375 242.855469 355.796875 243.699219 355.796875 C 244.378906 355.796875 245.058594 355.566406 245.617188 355.09375 C 246.878906 354.03125 276.648438 328.5625 284.871094 294.957031 C 292.964844 261.75 287.714844 221.238281 287.488281 219.53125 C 287.269531 217.898438 285.765625 216.761719 284.148438 216.976562 C 282.523438 217.191406 281.378906 218.6875 281.597656 220.316406 C 281.648438 220.722656 286.921875 261.445312 279.097656 293.546875 C 271.34375 325.238281 242.078125 350.300781 241.78125 350.550781 Z M 241.78125 350.550781 " fill-opacity="1" fill-rule="nonzero"/></svg>