<svg xmlns="http://www.w3.org/2000/svg" xmlns:xlink="http://www.w3.org/1999/xlink" width="500" zoomAndPan="magnify" viewBox="0 0 375 374.999991" height="500" preserveAspectRatio="xMidYMid meet" version="1.0"><defs><clipPath id="80b261ae5c"><path d="M 121.6875 251 L 223 251 L 223 262.5 L 121.6875 262.5 Z M 121.6875 251 " clip-rule="nonzero"/></clipPath><clipPath id="2f91214443"><path d="M 131 112.5 L 253.6875 112.5 L 253.6875 249 L 131 249 Z M 131 112.5 " clip-rule="nonzero"/></clipPath></defs><g clip-path="url(#80b261ae5c)"><path fill="#000000" d="M 215.871094 251.355469 L 128.4375 251.355469 C 124.746094 251.355469 121.753906 254.339844 121.753906 258.023438 L 121.753906 262.496094 L 222.554688 262.496094 L 222.554688 258.023438 C 222.554688 254.34375 219.5625 251.355469 215.871094 251.355469 Z M 215.871094 251.355469 " fill-opacity="1" fill-rule="nonzero"/></g><g clip-path="url(#2f91214443)"><path fill="#000000" d="M 252.863281 133.277344 L 248.738281 133.277344 L 248.738281 123.167969 C 248.738281 121.617188 247.480469 120.363281 245.925781 120.363281 C 244.375 120.363281 243.117188 121.617188 243.117188 123.167969 L 243.117188 133.277344 L 238.59375 133.277344 L 238.59375 123.167969 C 238.59375 121.617188 237.335938 120.363281 235.78125 120.363281 C 234.230469 120.363281 232.972656 121.617188 232.972656 123.167969 L 232.972656 133.277344 L 228.847656 133.277344 C 228.429688 133.277344 228.085938 133.613281 228.085938 134.035156 L 228.085938 141.140625 C 228.085938 147.210938 232.34375 152.285156 238.042969 153.5625 L 238.042969 224.109375 C 238.042969 227.144531 235.566406 229.613281 232.527344 229.613281 C 229.484375 229.613281 227.007812 227.140625 227.007812 224.109375 L 227.007812 180.65625 C 227.007812 174.320312 221.839844 169.167969 215.488281 169.167969 L 212.503906 169.167969 L 212.503906 120.878906 C 212.503906 116.25 208.742188 112.5 204.101562 112.5 L 140.210938 112.5 C 135.570312 112.5 131.808594 116.25 131.808594 120.878906 L 131.808594 248.554688 L 212.5 248.554688 L 212.5 174.773438 L 215.480469 174.773438 C 218.734375 174.773438 221.382812 177.410156 221.382812 180.65625 L 221.382812 224.109375 C 221.382812 230.234375 226.378906 235.21875 232.523438 235.21875 C 238.667969 235.21875 243.664062 230.234375 243.664062 224.109375 L 243.664062 153.558594 C 249.363281 152.28125 253.621094 147.210938 253.621094 141.140625 L 253.621094 134.03125 C 253.621094 133.613281 253.28125 133.273438 252.859375 133.273438 Z M 166.539062 228.402344 L 170.183594 209.566406 L 159.835938 209.566406 L 177.769531 187.699219 L 174.125 206.535156 L 184.472656 206.535156 Z M 198.527344 171.171875 C 198.527344 172.992188 197.050781 174.464844 195.222656 174.464844 L 149.082031 174.464844 C 147.257812 174.464844 145.777344 172.992188 145.777344 171.171875 L 145.777344 129.492188 C 145.777344 127.671875 147.257812 126.199219 149.082031 126.199219 L 195.222656 126.199219 C 197.050781 126.199219 198.527344 127.671875 198.527344 129.492188 Z M 198.527344 171.171875 " fill-opacity="1" fill-rule="nonzero"/></g></svg>