<svg xmlns="http://www.w3.org/2000/svg" xmlns:xlink="http://www.w3.org/1999/xlink" width="500" zoomAndPan="magnify" viewBox="0 0 375 374.999991" height="500" preserveAspectRatio="xMidYMid meet" version="1.0"><defs><clipPath id="9a9f94dafc"><path d="M 189.40625 197.800781 L 370.886719 197.800781 L 370.886719 338.84375 L 189.40625 338.84375 Z M 189.40625 197.800781 " clip-rule="nonzero"/></clipPath><clipPath id="d0a6173fe2"><path d="M 259.652344 294.183594 L 333.265625 294.183594 L 333.265625 367.828125 L 259.652344 367.828125 Z M 259.652344 294.183594 " clip-rule="nonzero"/></clipPath><clipPath id="717ed0c9e2"><path d="M 37.355469 330.761719 L 202.535156 330.761719 L 202.535156 367.828125 L 37.355469 367.828125 Z M 37.355469 330.761719 " clip-rule="nonzero"/></clipPath><clipPath id="7b457bca33"><path d="M 4.140625 7.121094 L 294 7.121094 L 294 243 L 4.140625 243 Z M 4.140625 7.121094 " clip-rule="nonzero"/></clipPath></defs><path fill="#000000" d="M 304.117188 159.042969 L 304.117188 188.011719 C 304.117188 190.769531 306.101562 193.28125 308.84375 193.558594 C 312 193.871094 314.660156 191.402344 314.660156 188.3125 L 314.660156 159.042969 C 314.660156 156.714844 312.773438 154.824219 310.441406 154.824219 L 308.332031 154.824219 C 306.003906 154.824219 304.117188 156.714844 304.117188 159.042969 " fill-opacity="1" fill-rule="nonzero"/><path fill="#000000" d="M 262.097656 159.042969 L 262.097656 188.011719 C 262.097656 190.769531 264.082031 193.28125 266.828125 193.554688 C 269.984375 193.871094 272.644531 191.402344 272.644531 188.3125 L 272.644531 159.042969 C 272.644531 156.714844 270.753906 154.824219 268.425781 154.824219 L 266.316406 154.824219 C 263.984375 154.824219 262.097656 156.714844 262.097656 159.042969 " fill-opacity="1" fill-rule="nonzero"/><path fill="#000000" d="M 327.425781 113.664062 C 327.425781 101.355469 320.210938 90.300781 309.042969 85.503906 C 302.507812 82.699219 295.550781 81.277344 288.371094 81.277344 C 280.5625 81.277344 273.054688 82.949219 266.050781 86.25 C 255.886719 91.039062 249.320312 101.777344 249.320312 113.609375 L 249.320312 144.28125 C 249.320312 146.609375 251.207031 148.496094 253.539062 148.496094 L 323.207031 148.496094 C 325.539062 148.496094 327.425781 146.609375 327.425781 144.28125 L 327.425781 113.664062 " fill-opacity="1" fill-rule="nonzero"/><g clip-path="url(#9a9f94dafc)"><path fill="#000000" d="M 366.582031 299.933594 C 365.089844 292.375 363.542969 284.558594 359.007812 279.578125 C 356.070312 276.378906 352 274.664062 348.035156 273.289062 C 341.019531 270.820312 333.601562 269.046875 326.429688 267.328125 C 319.398438 265.640625 312.242188 263.910156 305.242188 261.507812 C 303.1875 260.804688 301.015625 260.535156 298.863281 260.8125 C 289.058594 262.09375 263.242188 265.125 238.496094 265.125 C 222.664062 265.125 207.273438 263.882812 196.792969 260.152344 C 195.320312 259.628906 194.34375 258.097656 194.640625 256.558594 C 195.019531 254.597656 197.023438 253.511719 198.824219 254.160156 C 208.414062 257.597656 219.035156 258.277344 229.132812 258.625 C 241.105469 259.042969 253.105469 258.585938 265.050781 257.769531 C 268.355469 257.542969 271.65625 257.285156 274.957031 257 C 277.851562 256.746094 282.0625 256.738281 284.628906 255.300781 C 289.199219 252.742188 281.953125 249.460938 280.085938 247.980469 C 276.453125 245.101562 273.003906 242.003906 269.5625 238.90625 C 267.152344 236.742188 264.660156 234.5 262.179688 232.414062 C 242.089844 215.394531 217.644531 203.78125 189.480469 197.828125 L 189.480469 326.289062 C 192.820312 329.558594 195.617188 332.949219 197.953125 336.34375 C 199.023438 337.898438 200.804688 338.800781 202.695312 338.796875 C 218.238281 338.785156 233.765625 338.78125 249.292969 338.78125 C 251.742188 338.78125 253.683594 336.703125 253.480469 334.257812 C 253.398438 333.195312 253.351562 332.121094 253.351562 331.035156 C 253.351562 307.261719 272.695312 287.917969 296.472656 287.917969 C 320.25 287.917969 339.589844 307.261719 339.589844 331.035156 C 339.589844 332.121094 339.546875 333.191406 339.460938 334.253906 C 339.261719 336.695312 341.207031 338.78125 343.65625 338.78125 L 347.046875 338.78125 C 349.550781 338.78125 352.492188 338.734375 355.351562 338.402344 C 360.117188 337.796875 363.589844 336.34375 366.246094 333.839844 C 373.289062 327.085938 370.878906 317.796875 368.328125 307.960938 C 367.65625 305.367188 367.113281 302.605469 366.582031 299.933594 " fill-opacity="1" fill-rule="nonzero"/></g><g clip-path="url(#d0a6173fe2)"><path fill="#000000" d="M 296.472656 353.171875 C 284.265625 353.171875 274.335938 343.242188 274.335938 331.039062 C 274.335938 318.832031 284.265625 308.902344 296.472656 308.902344 C 308.675781 308.902344 318.609375 318.832031 318.609375 331.039062 C 318.609375 343.242188 308.675781 353.171875 296.472656 353.171875 Z M 296.472656 294.246094 C 276.183594 294.246094 259.679688 310.75 259.679688 331.035156 C 259.679688 351.324219 276.183594 367.828125 296.472656 367.828125 C 316.761719 367.828125 333.265625 351.324219 333.265625 331.035156 C 333.265625 310.75 316.761719 294.246094 296.472656 294.246094 " fill-opacity="1" fill-rule="nonzero"/></g><path fill="#000000" d="M 113.34375 148.726562 C 113.941406 149.464844 114.179688 150.433594 113.980469 151.371094 L 106.601562 186.519531 L 141.757812 138.980469 L 128.945312 138.980469 C 127.992188 138.980469 127.089844 138.550781 126.488281 137.808594 C 125.890625 137.070312 125.652344 136.097656 125.847656 135.164062 L 133.257812 99.863281 L 98.097656 147.554688 L 110.886719 147.554688 C 111.839844 147.554688 112.742188 147.984375 113.34375 148.726562 " fill-opacity="1" fill-rule="nonzero"/><g clip-path="url(#717ed0c9e2)"><path fill="#000000" d="M 53.5625 332.054688 C 43.171875 342.828125 39.089844 354.988281 37.488281 362.808594 C 36.957031 365.40625 38.980469 367.828125 41.632812 367.828125 L 198.214844 367.828125 C 200.867188 367.828125 202.894531 365.402344 202.355469 362.804688 C 200.675781 354.660156 196.320312 341.820312 185.042969 330.785156 L 56.601562 330.785156 C 55.464844 330.785156 54.351562 331.234375 53.5625 332.054688 " fill-opacity="1" fill-rule="nonzero"/></g><path fill="#000000" d="M 296.472656 315.230469 C 287.753906 315.230469 280.664062 322.320312 280.664062 331.039062 C 280.664062 339.753906 287.753906 346.84375 296.472656 346.84375 C 305.1875 346.84375 312.28125 339.753906 312.28125 331.039062 C 312.28125 322.320312 305.1875 315.230469 296.472656 315.230469 " fill-opacity="1" fill-rule="nonzero"/><path fill="#000000" d="M 89.289062 148.84375 L 136.792969 84.402344 C 137.679688 83.203125 139.277344 82.785156 140.632812 83.390625 C 141.992188 84 142.742188 85.472656 142.4375 86.929688 L 132.84375 132.652344 L 148.03125 132.652344 C 149.226562 132.652344 150.320312 133.324219 150.855469 134.390625 C 151.394531 135.457031 151.285156 136.738281 150.578125 137.699219 L 103.070312 201.9375 C 102.457031 202.765625 101.503906 203.21875 100.523438 203.21875 C 100.089844 203.21875 99.648438 203.128906 99.230469 202.941406 C 97.875 202.332031 97.125 200.863281 97.429688 199.40625 L 106.988281 153.886719 L 91.835938 153.886719 C 90.640625 153.886719 89.550781 153.214844 89.011719 152.148438 C 88.472656 151.082031 88.582031 149.804688 89.289062 148.84375 Z M 119.933594 229.28125 C 148.300781 229.28125 171.253906 197.691406 182.679688 169.914062 C 182.996094 169.140625 183.152344 168.320312 183.152344 167.488281 L 183.152344 90.644531 C 183.152344 77.601562 172.578125 67.027344 159.535156 67.027344 L 80.308594 67.027344 C 67.277344 67.027344 56.714844 77.589844 56.714844 90.617188 L 56.714844 167.488281 C 56.714844 168.320312 56.871094 169.140625 57.1875 169.914062 C 68.613281 197.691406 91.566406 229.28125 119.933594 229.28125 " fill-opacity="1" fill-rule="nonzero"/><g clip-path="url(#7b457bca33)"><path fill="#000000" d="M 260.675781 7.167969 L 37.109375 7.167969 C 18.902344 7.167969 4.140625 21.929688 4.140625 40.136719 L 4.140625 209.914062 C 4.140625 228.121094 18.902344 242.882812 37.109375 242.882812 L 46.171875 242.882812 C 48.5 242.882812 50.390625 240.992188 50.390625 238.664062 L 50.390625 236.554688 C 50.390625 234.222656 48.5 232.335938 46.171875 232.335938 L 37.109375 232.335938 C 24.726562 232.335938 14.6875 222.296875 14.6875 209.914062 L 14.6875 40.136719 C 14.6875 27.753906 24.726562 17.714844 37.109375 17.714844 L 260.675781 17.714844 C 273.058594 17.714844 283.09375 27.753906 283.09375 40.136719 L 283.09375 70.757812 C 283.09375 73.128906 285.046875 75.003906 287.421875 74.960938 C 287.738281 74.953125 288.054688 74.949219 288.371094 74.949219 C 288.691406 74.949219 289.007812 74.953125 289.324219 74.957031 C 291.691406 75 293.644531 73.125 293.644531 70.753906 L 293.644531 40.136719 C 293.644531 21.925781 278.882812 7.167969 260.675781 7.167969 " fill-opacity="1" fill-rule="nonzero"/></g><path fill="#000000" d="M 183.152344 192.214844 C 183.152344 190.070312 180.3125 189.289062 179.234375 191.144531 C 165.597656 214.574219 144.816406 235.609375 119.933594 235.609375 C 95.050781 235.609375 74.269531 214.574219 60.632812 191.144531 C 59.554688 189.289062 56.714844 190.070312 56.714844 192.214844 L 56.714844 320.238281 C 56.714844 322.570312 58.605469 324.457031 60.933594 324.457031 L 183.152344 324.457031 L 183.152344 192.214844 " fill-opacity="1" fill-rule="nonzero"/></svg>