<svg xmlns="http://www.w3.org/2000/svg" version="1.1" xmlns:xlink="http://www.w3.org/1999/xlink" width="512" height="512" x="0" y="0" viewBox="0 0 512 512" style="enable-background:new 0 0 512 512" xml:space="preserve" class=""><g><path fill="#685e68" fill-rule="evenodd" d="M102.872 309.094h350.433c4.282 0 7.785 3.503 7.785 7.785v111.876c0 4.282-3.503 7.785-7.785 7.785H102.872c-4.282 0-7.785-3.503-7.785-7.785V316.88c0-4.282 3.503-7.786 7.785-7.786z" clip-rule="evenodd" opacity="1" data-original="#685e68"></path><path fill="#8192a5" fill-rule="evenodd" d="M119.615 345.807c13.492 0 24.529 11.038 24.529 24.529v87.372c0 13.491-11.037 24.529-24.528 24.529h-.001c-13.491 0-24.529-11.038-24.529-24.529v-87.372c.001-13.491 11.039-24.529 24.529-24.529z" clip-rule="evenodd" opacity="1" data-original="#8192a5"></path><path fill="#65788e" fill-rule="evenodd" d="M119.615 345.807c13.492 0 24.529 11.038 24.529 24.529v87.372c0 13.491-11.037 24.529-24.528 24.529h-.001a24.4 24.4 0 0 1-5-.517c11.115-2.325 19.528-12.233 19.528-24.012v-87.372c0-11.779-8.414-21.687-19.528-24.012a24.4 24.4 0 0 1 5-.517z" clip-rule="evenodd" opacity="1" data-original="#65788e"></path><path fill="#7789a4" fill-rule="evenodd" d="M401.48 103.304h-33.175v-44.95c0-16.233 13.281-29.514 29.514-29.514h37.576a5.013 5.013 0 0 1 5.003 5.002v15.993a5.013 5.013 0 0 1-5.003 5.003h-18.684c-8.377 0-15.231 6.854-15.231 15.231z" clip-rule="evenodd" opacity="1" data-original="#7789a4"></path><path fill="#65788e" fill-rule="evenodd" d="m435.392 54.835-20.761-.012V28.825l20.767.012c2.754.002 5 2.248 5 5.003v15.993a5.013 5.013 0 0 1-5.006 5.002z" clip-rule="evenodd" opacity="1" data-original="#65788e"></path><path fill="#8192a5" fill-rule="evenodd" d="M86.865 54.797h135.331a5.013 5.013 0 0 1 5.002 5.003v43.968H81.863V59.8a5.013 5.013 0 0 1 5.002-5.003z" clip-rule="evenodd" opacity="1" data-original="#8192a5"></path><path fill="#65788e" fill-rule="evenodd" d="M212.195 54.797h10a5.013 5.013 0 0 1 5.002 5.003v43.968h-10V59.8a5.011 5.011 0 0 0-5.002-5.003z" clip-rule="evenodd" opacity="1" data-original="#65788e"></path><path fill="#8192a5" fill-rule="evenodd" d="M279.659 54.797h32.236c4.79 0 8.71 3.919 8.71 8.71v41.821c0 4.791-3.919 8.71-8.71 8.71h-32.236c-4.79 0-8.71-3.92-8.71-8.71V63.507c0-4.79 3.919-8.71 8.71-8.71z" clip-rule="evenodd" opacity="1" data-original="#8192a5"></path><path fill="#65788e" fill-rule="evenodd" d="M301.895 54.797h10c4.79 0 8.71 3.919 8.71 8.71v41.821c0 4.791-3.919 8.71-8.71 8.71h-10c4.79 0 8.71-3.92 8.71-8.71V63.507c-.001-4.79-3.92-8.71-8.71-8.71z" clip-rule="evenodd" opacity="1" data-original="#65788e"></path><path fill="#8192a5" fill-rule="evenodd" d="M452.688 190.76h35.309c4.408 0 8.003 3.595 8.003 8.003v141.04c0 4.408-3.595 8.003-8.003 8.003h-35.309z" clip-rule="evenodd" opacity="1" data-original="#8192a5"></path><path fill="#65788e" fill-rule="evenodd" d="M452.688 190.76h18.403v157.046h-18.403z" clip-rule="evenodd" opacity="1" data-original="#65788e"></path><path fill="#8192a5" fill-rule="evenodd" d="M61.171 171.643v195.28H24.003c-4.408 0-8.003-3.595-8.003-8.003V234.252c0-1.812.521-3.37 1.612-4.817z" clip-rule="evenodd" opacity="1" data-original="#8192a5"></path><path fill="#65788e" fill-rule="evenodd" d="M61.171 171.643v195.28H51.17V184.911z" clip-rule="evenodd" opacity="1" data-original="#65788e"></path><path fill="#8192a5" fill-rule="evenodd" d="M61.171 171.643v195.28h37.168c4.408 0 8.003-3.595 8.003-8.003V234.252c0-1.812-.521-3.37-1.612-4.817z" clip-rule="evenodd" opacity="1" data-original="#8192a5"></path><circle cx="401.099" cy="441.077" r="42.098" fill="#a79ba7" fill-rule="evenodd" clip-rule="evenodd" opacity="1" data-original="#a79ba7" class=""></circle><path fill="#837683" fill-rule="evenodd" d="M401.098 398.98c23.25 0 42.098 18.848 42.098 42.098s-18.848 42.098-42.098 42.098c-1.692 0-3.36-.103-5-.297 20.893-2.473 37.098-20.244 37.098-41.801s-16.205-39.328-37.098-41.801a42.327 42.327 0 0 1 5-.297z" clip-rule="evenodd" opacity="1" data-original="#837683"></path><path fill="#eceff1" fill-rule="evenodd" d="M401.098 457.284c8.926 0 16.207-7.281 16.207-16.207s-7.281-16.206-16.207-16.206-16.207 7.28-16.207 16.206 7.281 16.207 16.207 16.207z" clip-rule="evenodd" opacity="1" data-original="#eceff1" class=""></path><path fill="#d1d1d6" fill-rule="evenodd" d="M401.098 424.871c1.745 0 3.425.277 5 .787-6.504 2.108-11.207 8.214-11.207 15.419s4.703 13.312 11.207 15.42c-1.575.51-3.255.787-5 .787-8.951 0-16.207-7.256-16.207-16.207.001-8.951 7.257-16.206 16.207-16.206z" clip-rule="evenodd" opacity="1" data-original="#d1d1d6" class=""></path><path fill="#ffe177" fill-rule="evenodd" d="M73.63 119.472h375.001c6.853 0 12.459 5.607 12.459 12.459v254.035c0 6.853-5.607 12.459-12.459 12.459H73.63c-6.853 0-12.459-5.607-12.459-12.459V131.932c0-6.853 5.606-12.46 12.459-12.46z" clip-rule="evenodd" opacity="1" data-original="#ffe177" class=""></path><path fill="#685e68" fill-rule="evenodd" d="M74.447 93.948h373.366c14.039 0 25.524 11.486 25.524 25.524 0 14.039-11.485 25.524-25.524 25.524H74.447c-14.039 0-25.524-11.486-25.524-25.524s11.486-25.524 25.524-25.524z" clip-rule="evenodd" opacity="1" data-original="#685e68"></path><path fill="#544854" fill-rule="evenodd" d="M460.14 97.145c7.853 4.366 13.197 12.752 13.197 22.328 0 14.039-11.485 25.524-25.524 25.524H74.447c-9.576 0-17.962-5.344-22.327-13.197a25.297 25.297 0 0 0 12.327 3.197h373.366c14.039 0 25.524-11.486 25.524-25.524 0-4.464-1.162-8.668-3.197-12.328z" clip-rule="evenodd" opacity="1" data-original="#544854" class=""></path><path fill="#fe646f" fill-rule="evenodd" d="M240.507 204.038V361.73c0 4.408-3.595 8.003-8.003 8.003H102.136c-4.408 0-8.003-3.595-8.003-8.003V204.038c0-4.408 3.595-8.003 8.003-8.003h130.368c4.409.001 8.003 3.596 8.003 8.003z" clip-rule="evenodd" opacity="1" data-original="#fe646f" class=""></path><path fill="#fd4755" fill-rule="evenodd" d="M240.507 204.038V361.73c0 4.408-3.595 8.003-8.003 8.003h-10c4.408 0 8.003-3.595 8.003-8.003V204.038c0-4.408-3.595-8.003-8.003-8.003h10c4.409.001 8.003 3.596 8.003 8.003z" clip-rule="evenodd" opacity="1" data-original="#fd4755"></path><path fill="#ffe177" fill-rule="evenodd" d="m176.023 223.202-2.791 47.933h40.385c.79 0 1.466.427 1.808 1.14.34.713.247 1.508-.251 2.122l-55.94 69.199a1.98 1.98 0 0 1-2.334.587 1.98 1.98 0 0 1-1.213-2.078l5.723-49.042h-40.474c-.784 0-1.456-.42-1.8-1.125s-.262-1.493.221-2.111l53.088-67.975a1.974 1.974 0 0 1 2.284-.641 1.98 1.98 0 0 1 1.294 1.991z" clip-rule="evenodd" opacity="1" data-original="#ffe177" class=""></path><path fill="#ffd064" fill-rule="evenodd" d="m176.023 223.202-.433 7.429-46.232 59.197a1.962 1.962 0 0 0-.221 2.111 1.964 1.964 0 0 0 1.8 1.125h-10c-.784 0-1.456-.42-1.8-1.125s-.262-1.493.221-2.111l53.088-67.975a1.974 1.974 0 0 1 2.284-.641 1.978 1.978 0 0 1 1.293 1.99zm-9.451 111.315 4.837-41.454h-10l-5.723 49.042c-.105.898.379 1.727 1.213 2.078s1.764.117 2.334-.587z" clip-rule="evenodd" opacity="1" data-original="#ffd064"></path><circle cx="389.258" cy="208.112" r="40.899" fill="#eceff1" fill-rule="evenodd" clip-rule="evenodd" transform="rotate(-13.34 388.599 208.231)" opacity="1" data-original="#eceff1" class=""></circle><path fill="#d1d1d6" fill-rule="evenodd" d="M389.258 167.213c1.693 0 3.361.105 5 .305-20.229 2.466-35.898 19.699-35.898 40.594s15.67 38.128 35.898 40.594c-1.639.2-3.307.305-5 .305-22.588 0-40.899-18.311-40.899-40.899s18.311-40.899 40.899-40.899z" clip-rule="evenodd" opacity="1" data-original="#d1d1d6" class=""></path><path fill="#a79ba7" fill-rule="evenodd" d="M424.348 229.13a41.1 41.1 0 0 1-10.692 11.808l-29.742-26.92a7.965 7.965 0 0 1 10.687-11.813z" clip-rule="evenodd" opacity="1" data-original="#a79ba7" class=""></path><path fill="#d8ecfe" fill-rule="evenodd" d="M284.552 270.976h138.602c3.857 0 7.003 3.146 7.003 7.003v84.752c0 3.857-3.146 7.003-7.003 7.003H284.552c-3.857 0-7.003-3.146-7.003-7.003v-84.752c0-3.857 3.146-7.003 7.003-7.003z" clip-rule="evenodd" opacity="1" data-original="#d8ecfe" class=""></path><path fill="#c4e2ff" fill-rule="evenodd" d="M284.552 270.976h10c-3.857 0-7.003 3.146-7.003 7.003v84.752c0 3.857 3.146 7.003 7.003 7.003h-10c-3.857 0-7.003-3.146-7.003-7.003v-84.752c0-3.857 3.146-7.003 7.003-7.003z" clip-rule="evenodd" opacity="1" data-original="#c4e2ff"></path><path fill="#add5fa" fill-rule="evenodd" d="M277.549 299.757h152.607v41.196H277.549z" clip-rule="evenodd" opacity="1" data-original="#add5fa"></path><path fill="#a4d4ff" fill-rule="evenodd" d="M277.549 299.757h10v41.196h-10z" clip-rule="evenodd" opacity="1" data-original="#a4d4ff" class=""></path></g></svg>