<svg xmlns="http://www.w3.org/2000/svg" xmlns:xlink="http://www.w3.org/1999/xlink" width="500" zoomAndPan="magnify" viewBox="0 0 375 374.999991" height="500" preserveAspectRatio="xMidYMid meet" version="1.0"><defs><clipPath id="07d8aa3e1b"><path d="M 0 3.75 L 375 3.75 L 375 371.25 L 0 371.25 Z M 0 3.75 " clip-rule="nonzero"/></clipPath></defs><path fill="#000000" d="M 262.597656 118.792969 L 320.121094 118.792969 C 321.878906 118.792969 323.316406 117.355469 323.316406 115.597656 C 323.316406 113.839844 321.878906 112.402344 320.121094 112.402344 L 262.597656 112.402344 C 260.839844 112.402344 259.402344 113.839844 259.402344 115.597656 C 259.402344 117.355469 260.839844 118.792969 262.597656 118.792969 Z M 262.597656 118.792969 " fill-opacity="1" fill-rule="nonzero"/><g clip-path="url(#07d8aa3e1b)"><path fill="#000000" d="M 373.007812 251.011719 L 346.003906 232.796875 C 345.765625 232.636719 345.445312 232.480469 345.125 232.398438 L 325.550781 226.648438 C 328.269531 215.460938 329.707031 203.957031 329.707031 192.292969 C 329.707031 175.835938 326.910156 159.699219 321.476562 144.359375 L 332.902344 144.359375 C 334.660156 144.359375 336.097656 142.921875 336.097656 141.164062 L 336.097656 102.816406 C 336.097656 101.058594 334.660156 99.621094 332.902344 99.621094 L 316.925781 99.621094 L 316.925781 38.902344 C 316.925781 37.144531 315.484375 35.707031 313.726562 35.707031 L 300.945312 35.707031 C 299.1875 35.707031 297.75 37.144531 297.75 38.902344 L 297.75 99.621094 L 295.832031 99.621094 C 292.398438 95.546875 288.800781 91.710938 284.96875 88.035156 L 284.96875 38.902344 C 284.96875 37.144531 283.53125 35.707031 281.773438 35.707031 L 268.988281 35.707031 C 267.230469 35.707031 265.792969 37.144531 265.792969 38.902344 L 265.792969 72.695312 C 250.292969 62.308594 233.277344 55.199219 215.0625 51.445312 L 215.0625 6.945312 C 215.0625 5.1875 213.625 3.75 211.867188 3.75 L 199.085938 3.75 C 197.328125 3.75 195.886719 5.1875 195.886719 6.945312 L 195.886719 48.808594 C 192.054688 48.570312 188.300781 48.410156 184.464844 48.488281 C 183.585938 38.902344 183.105469 29.234375 183.105469 19.726562 C 183.105469 17.96875 181.667969 16.53125 179.910156 16.53125 L 128.78125 16.53125 C 127.023438 16.53125 125.585938 17.96875 125.585938 19.726562 C 125.585938 34.269531 124.546875 48.808594 122.546875 63.1875 C 109.207031 69.738281 97.144531 78.207031 86.4375 88.515625 C 85.878906 87.554688 84.839844 86.917969 83.640625 86.917969 L 77.25 86.917969 L 77.25 64.46875 C 77.25 62.710938 75.8125 61.273438 74.054688 61.273438 C 72.296875 61.273438 70.859375 62.710938 70.859375 64.46875 L 70.859375 86.835938 L 64.46875 86.835938 C 62.710938 86.835938 61.273438 88.273438 61.273438 90.03125 L 61.273438 106.011719 L 58.074219 106.011719 C 56.320312 106.011719 54.878906 107.449219 54.878906 109.207031 L 54.878906 144.359375 L 19.726562 144.359375 C 17.96875 144.359375 16.53125 145.796875 16.53125 147.554688 L 16.53125 198.683594 C 16.53125 200.441406 17.96875 201.878906 19.726562 201.878906 L 42.417969 201.878906 C 42.816406 207.550781 43.457031 213.144531 44.496094 218.65625 L 42.097656 218.65625 C 40.339844 218.65625 38.902344 220.09375 38.902344 221.851562 L 38.902344 231.441406 L 35.707031 231.441406 C 34.828125 231.441406 34.027344 231.757812 33.46875 232.398438 L 1.511719 264.355469 C 0.234375 265.632812 0.234375 267.632812 1.511719 268.910156 C 2.152344 269.46875 2.949219 269.789062 3.75 269.789062 L 6.945312 269.789062 L 6.945312 304.941406 C 6.945312 306.699219 8.382812 308.136719 10.140625 308.136719 L 100.738281 308.136719 C 109.367188 314.527344 118.714844 319.878906 128.460938 324.113281 L 131.574219 349.28125 C 131.816406 350.878906 133.175781 352.074219 134.773438 352.074219 L 142.441406 352.074219 L 138.765625 364.859375 L 128.378906 364.859375 C 126.621094 364.859375 125.183594 366.296875 125.183594 368.054688 C 125.183594 369.8125 126.621094 371.25 128.378906 371.25 L 153.945312 371.25 C 155.703125 371.25 157.140625 369.8125 157.140625 368.054688 C 157.140625 366.296875 155.703125 364.859375 153.945312 364.859375 L 145.398438 364.859375 L 149.074219 352.074219 L 192.292969 352.074219 C 193.410156 352.074219 194.449219 351.515625 195.011719 350.558594 C 195.570312 349.597656 195.648438 348.402344 195.167969 347.441406 L 189.496094 336.019531 C 193.09375 335.9375 196.6875 335.699219 200.203125 335.378906 L 201.960938 349.28125 C 202.199219 350.878906 203.558594 352.074219 205.15625 352.074219 L 212.824219 352.074219 L 209.152344 364.859375 L 198.765625 364.859375 C 197.007812 364.859375 195.570312 366.296875 195.570312 368.054688 C 195.570312 369.8125 197.007812 371.25 198.765625 371.25 L 224.328125 371.25 C 226.085938 371.25 227.527344 369.8125 227.527344 368.054688 C 227.527344 366.296875 226.085938 364.859375 224.328125 364.859375 L 215.78125 364.859375 L 219.457031 352.074219 L 262.597656 352.074219 C 263.714844 352.074219 264.753906 351.515625 265.3125 350.558594 C 265.875 349.597656 265.953125 348.402344 265.472656 347.441406 L 251.8125 320.121094 C 271.464844 309.972656 288.484375 295.433594 301.585938 277.695312 L 299.667969 342.808594 C 299.667969 343.6875 299.988281 344.488281 300.546875 345.125 C 301.105469 345.765625 301.984375 346.085938 302.863281 346.085938 L 315.644531 346.085938 C 316.523438 346.085938 317.324219 345.765625 317.960938 345.125 C 318.601562 344.488281 318.921875 343.6875 318.839844 342.808594 L 315.726562 237.832031 L 337.695312 250.054688 C 338.015625 250.214844 338.253906 250.292969 338.65625 250.375 L 370.609375 256.765625 C 370.851562 256.84375 371.011719 256.84375 371.25 256.84375 C 372.527344 256.84375 373.726562 256.125 374.207031 254.847656 C 374.765625 253.488281 374.285156 251.8125 373.007812 251.011719 Z M 304.140625 42.097656 L 310.53125 42.097656 L 310.53125 48.488281 L 304.140625 48.488281 Z M 304.140625 54.878906 L 310.53125 54.878906 L 310.53125 99.621094 L 304.140625 99.621094 Z M 329.707031 106.011719 L 329.707031 137.96875 L 253.011719 137.96875 L 253.011719 106.011719 Z M 287.363281 99.621094 L 284.96875 99.621094 L 284.96875 97.0625 C 285.765625 97.941406 286.566406 98.742188 287.363281 99.621094 Z M 272.183594 42.097656 L 278.574219 42.097656 L 278.574219 48.488281 L 272.183594 48.488281 Z M 272.183594 54.878906 L 278.574219 54.878906 L 278.574219 99.621094 L 272.183594 99.621094 Z M 227.445312 61.273438 L 215.0625 61.273438 L 215.0625 57.996094 C 219.21875 58.875 223.371094 59.992188 227.445312 61.273438 Z M 202.28125 10.140625 L 208.671875 10.140625 L 208.671875 16.53125 L 202.28125 16.53125 Z M 202.28125 22.925781 L 208.671875 22.925781 L 208.671875 61.273438 L 202.28125 61.273438 Z M 195.886719 55.28125 L 195.886719 61.273438 L 185.824219 61.273438 C 185.503906 59.113281 185.261719 57.039062 185.023438 54.878906 C 188.699219 54.878906 192.292969 54.960938 195.886719 55.28125 Z M 227.84375 67.664062 L 227.84375 74.054688 L 201.480469 74.054688 C 199.722656 74.054688 198.285156 75.492188 198.285156 77.25 C 198.285156 79.007812 199.722656 80.445312 201.480469 80.445312 L 227.84375 80.445312 L 227.84375 106.011719 L 176.714844 106.011719 L 176.714844 67.664062 Z M 131.894531 22.925781 L 176.636719 22.925781 C 176.792969 35.707031 177.671875 48.488281 179.351562 61.273438 L 173.4375 61.273438 C 171.679688 61.273438 170.242188 62.710938 170.242188 64.46875 L 170.242188 106.011719 L 120.152344 106.011719 C 127.742188 78.925781 131.65625 51.046875 131.894531 22.925781 Z M 67.664062 93.226562 L 80.445312 93.226562 L 80.445312 106.011719 L 67.664062 106.011719 Z M 61.273438 137.96875 L 77.25 137.96875 C 79.007812 137.96875 80.445312 136.53125 80.445312 134.773438 C 80.445312 133.015625 79.007812 131.574219 77.25 131.574219 L 61.273438 131.574219 L 61.273438 125.183594 L 77.25 125.183594 C 79.007812 125.183594 80.445312 123.746094 80.445312 121.988281 C 80.445312 120.230469 79.007812 118.792969 77.25 118.792969 L 61.273438 118.792969 L 61.273438 112.402344 L 86.835938 112.402344 L 86.835938 195.488281 L 74.054688 195.488281 L 74.054688 147.554688 C 74.054688 145.796875 72.617188 144.359375 70.859375 144.359375 L 61.273438 144.359375 Z M 22.925781 150.75 L 67.664062 150.75 L 67.664062 157.140625 L 32.511719 157.140625 C 30.753906 157.140625 29.316406 158.578125 29.316406 160.335938 C 29.316406 162.09375 30.753906 163.53125 32.511719 163.53125 L 67.664062 163.53125 L 67.664062 169.925781 L 32.511719 169.925781 C 30.753906 169.925781 29.316406 171.363281 29.316406 173.121094 C 29.316406 174.878906 30.753906 176.316406 32.511719 176.316406 L 67.664062 176.316406 L 67.664062 182.707031 L 32.511719 182.707031 C 30.753906 182.707031 29.316406 184.144531 29.316406 185.902344 C 29.316406 187.660156 30.753906 189.097656 32.511719 189.097656 L 67.664062 189.097656 L 67.664062 195.488281 L 22.925781 195.488281 Z M 51.683594 225.050781 L 51.683594 231.441406 L 45.292969 231.441406 L 45.292969 225.050781 Z M 37.066406 237.832031 L 78.609375 237.832031 L 50.488281 263.398438 L 11.5 263.398438 Z M 86.835938 238.949219 L 113.761719 263.398438 L 59.914062 263.398438 Z M 61.273438 301.746094 L 13.335938 301.746094 L 13.335938 269.789062 L 61.273438 269.789062 Z M 90.03125 301.746094 L 83.640625 301.746094 L 83.640625 288.960938 L 90.03125 288.960938 Z M 93.226562 282.570312 L 80.445312 282.570312 C 78.6875 282.570312 77.25 284.007812 77.25 285.765625 L 77.25 301.746094 L 67.664062 301.746094 L 67.664062 269.789062 L 106.011719 269.789062 L 106.011719 301.746094 L 96.425781 301.746094 L 96.425781 285.765625 C 96.425781 284.007812 94.984375 282.570312 93.226562 282.570312 Z M 131.976562 300.945312 L 138.605469 300.945312 L 140.203125 307.335938 L 132.773438 307.335938 Z M 134.371094 320.121094 L 133.574219 313.726562 L 141.800781 313.726562 L 143.398438 320.121094 Z M 135.171875 326.511719 L 144.996094 326.511719 L 146.59375 332.902344 L 135.96875 332.902344 Z M 145.238281 300.945312 L 151.707031 300.945312 L 154.105469 307.335938 L 146.835938 307.335938 Z M 137.566406 345.683594 L 136.769531 339.292969 L 148.195312 339.292969 L 149.792969 345.683594 Z M 148.433594 313.726562 L 156.503906 313.726562 L 158.898438 320.121094 L 150.03125 320.121094 Z M 160.976562 307.335938 L 158.578125 300.945312 L 164.8125 300.945312 L 168.007812 307.335938 Z M 171.121094 313.726562 L 174.316406 320.121094 L 165.691406 320.121094 L 163.292969 313.726562 Z M 151.628906 326.511719 L 161.296875 326.511719 L 163.691406 332.902344 L 153.226562 332.902344 Z M 156.421875 345.683594 L 154.824219 339.292969 L 166.089844 339.292969 L 168.484375 345.683594 Z M 168.167969 326.511719 L 177.59375 326.511719 L 180.789062 332.902344 L 170.5625 332.902344 Z M 175.355469 345.683594 L 172.960938 339.292969 L 183.984375 339.292969 L 187.179688 345.683594 Z M 202.28125 300.945312 L 208.910156 300.945312 L 210.507812 307.335938 L 203.078125 307.335938 Z M 204.675781 320.121094 L 203.878906 313.726562 L 212.105469 313.726562 L 213.703125 320.121094 Z M 205.476562 326.511719 L 215.300781 326.511719 L 216.898438 332.902344 L 206.273438 332.902344 Z M 215.542969 300.945312 L 222.011719 300.945312 L 224.410156 307.335938 L 217.140625 307.335938 Z M 207.871094 345.683594 L 207.074219 339.292969 L 218.496094 339.292969 L 220.09375 345.683594 Z M 218.738281 313.726562 L 226.804688 313.726562 L 229.203125 320.121094 L 220.335938 320.121094 Z M 231.28125 307.335938 L 228.882812 300.945312 L 235.113281 300.945312 L 238.3125 307.335938 Z M 241.425781 313.726562 L 244.621094 320.121094 L 235.992188 320.121094 L 233.597656 313.726562 Z M 221.933594 326.511719 L 231.601562 326.511719 L 233.996094 332.902344 L 223.53125 332.902344 Z M 226.726562 345.683594 L 225.128906 339.292969 L 236.394531 339.292969 L 238.789062 345.683594 Z M 238.46875 326.511719 L 247.898438 326.511719 L 251.09375 332.902344 L 240.867188 332.902344 Z M 257.40625 345.683594 L 245.582031 345.683594 L 243.183594 339.292969 L 254.210938 339.292969 Z M 306.136719 339.691406 L 308.214844 267.871094 C 308.214844 267.789062 308.296875 267.789062 308.296875 267.710938 L 308.214844 267.632812 L 309.09375 237.433594 L 309.253906 237.433594 L 312.289062 339.691406 Z M 312.289062 228.964844 C 311.96875 229.761719 311.332031 230.402344 310.53125 230.722656 C 309.734375 231.039062 308.855469 231.039062 308.054688 230.722656 C 306.457031 230.003906 305.660156 228.164062 306.378906 226.566406 C 307.097656 224.96875 308.933594 224.171875 310.53125 224.890625 C 311.332031 225.207031 311.96875 225.847656 312.289062 226.648438 C 312.609375 227.445312 312.609375 228.246094 312.289062 228.964844 Z M 305.660156 192.453125 L 308.855469 176.636719 L 311.96875 192.453125 L 309.09375 217.859375 L 308.457031 217.859375 Z M 315.246094 220.253906 L 318.363281 192.691406 C 318.363281 192.375 318.363281 192.054688 318.28125 191.734375 L 311.96875 159.777344 C 311.652344 158.261719 310.371094 157.222656 308.855469 157.222656 C 307.335938 157.222656 306.058594 158.261719 305.738281 159.777344 L 299.269531 191.734375 C 299.1875 192.054688 299.1875 192.375 299.1875 192.691406 L 302.304688 221.214844 C 301.503906 222.011719 300.867188 222.972656 300.386719 224.089844 C 300.304688 224.25 300.304688 224.328125 300.226562 224.488281 L 273.222656 232.238281 C 272.902344 232.320312 272.585938 232.480469 272.34375 232.636719 L 245.179688 250.695312 C 243.902344 251.574219 243.425781 253.171875 243.984375 254.609375 C 244.460938 255.808594 245.660156 256.605469 246.9375 256.605469 C 247.179688 256.605469 247.339844 256.605469 247.578125 256.527344 L 279.535156 250.292969 C 279.855469 250.214844 280.175781 250.136719 280.492188 249.976562 L 302.625 237.910156 L 301.824219 266.03125 C 288.722656 286.644531 270.507812 303.34375 248.855469 314.527344 L 239.828125 296.472656 C 239.269531 295.351562 238.152344 294.714844 236.953125 294.714844 L 198.605469 294.714844 C 197.726562 294.714844 196.847656 295.113281 196.207031 295.832031 C 195.570312 296.550781 195.328125 297.429688 195.410156 298.308594 L 199.242188 329.226562 C 194.929688 329.625 190.535156 329.867188 186.140625 329.867188 L 169.445312 296.472656 C 168.886719 295.351562 167.765625 294.714844 166.570312 294.714844 L 128.21875 294.714844 C 127.34375 294.714844 126.464844 295.113281 125.824219 295.832031 C 125.183594 296.550781 124.945312 297.429688 125.023438 298.308594 L 127.34375 316.84375 C 121.667969 314.207031 116.15625 311.09375 110.882812 307.65625 C 111.683594 307.097656 112.242188 306.136719 112.242188 305.019531 L 112.242188 269.867188 L 121.828125 269.867188 C 123.1875 269.867188 124.304688 269.070312 124.785156 267.789062 C 125.265625 266.59375 124.945312 265.15625 123.988281 264.277344 L 88.835938 232.320312 C 88.195312 231.761719 87.476562 231.519531 86.675781 231.519531 L 58.074219 231.519531 L 58.074219 221.933594 C 58.074219 220.175781 56.636719 218.738281 54.878906 218.738281 L 51.046875 218.738281 C 50.007812 213.226562 49.207031 207.632812 48.886719 201.960938 L 90.03125 201.960938 C 91.789062 201.960938 93.226562 200.523438 93.226562 198.765625 L 93.226562 109.207031 C 93.226562 107.449219 91.789062 106.011719 90.03125 106.011719 L 86.835938 106.011719 L 86.835938 97.0625 C 96.984375 86.515625 108.566406 77.730469 121.351562 70.9375 C 119.351562 82.921875 116.714844 94.824219 113.359375 106.570312 L 112.882812 108.246094 C 112.640625 109.207031 112.800781 110.246094 113.359375 111.042969 C 114 111.84375 114.878906 112.324219 115.917969 112.324219 L 230.960938 112.324219 C 232.71875 112.324219 234.15625 110.882812 234.15625 109.125 L 234.15625 64.46875 C 234.15625 64.148438 234.078125 63.828125 233.996094 63.507812 C 245.179688 67.664062 255.808594 73.335938 265.714844 80.445312 L 265.714844 99.621094 L 249.734375 99.621094 C 247.976562 99.621094 246.539062 101.058594 246.539062 102.816406 L 246.539062 141.164062 C 246.539062 142.921875 247.976562 144.359375 249.734375 144.359375 L 314.605469 144.359375 C 320.28125 159.699219 323.234375 175.757812 323.234375 192.292969 C 323.234375 203.320312 321.957031 214.261719 319.320312 224.808594 L 318.203125 224.488281 C 318.121094 224.328125 318.121094 224.25 318.042969 224.089844 C 317.5625 222.570312 316.523438 221.292969 315.246094 220.253906 Z M 300.464844 231.757812 L 278.015625 244.0625 L 262.199219 247.179688 L 275.621094 238.230469 L 300.226562 231.199219 Z M 340.410156 244.144531 L 318.042969 231.757812 L 318.28125 231.121094 L 342.808594 238.3125 L 356.152344 247.339844 Z M 340.410156 244.144531 " fill-opacity="1" fill-rule="nonzero"/></g><path fill="#000000" d="M 275.378906 189.097656 L 233.757812 189.097656 C 233.039062 178.3125 228.722656 168.40625 222.011719 160.738281 L 236.152344 146.59375 C 237.433594 145.316406 237.433594 143.320312 236.152344 142.042969 C 234.875 140.761719 232.878906 140.761719 231.601562 142.042969 L 217.460938 156.183594 C 209.789062 149.472656 199.964844 145.15625 189.097656 144.4375 L 189.097656 121.988281 C 189.097656 120.230469 187.660156 118.792969 185.902344 118.792969 C 184.144531 118.792969 182.707031 120.230469 182.707031 121.988281 L 182.707031 144.4375 C 171.921875 145.15625 162.015625 149.472656 154.34375 156.183594 L 137.007812 138.847656 C 135.730469 137.566406 133.734375 137.566406 132.453125 138.847656 C 131.175781 140.125 131.175781 142.121094 132.453125 143.398438 L 149.792969 160.738281 C 143.082031 168.40625 138.765625 178.234375 138.046875 189.097656 L 102.816406 189.097656 C 101.058594 189.097656 99.621094 190.535156 99.621094 192.292969 C 99.621094 194.050781 101.058594 195.488281 102.816406 195.488281 L 138.046875 195.488281 C 138.765625 206.273438 143.082031 216.179688 149.792969 223.851562 L 132.453125 241.1875 C 131.175781 242.464844 131.175781 244.460938 132.453125 245.742188 C 133.09375 246.378906 133.894531 246.699219 134.691406 246.699219 C 135.492188 246.699219 136.289062 246.378906 136.929688 245.742188 L 154.265625 228.40625 C 161.933594 235.113281 171.761719 239.429688 182.625 240.148438 L 182.625 262.597656 C 182.625 264.355469 184.066406 265.792969 185.824219 265.792969 C 187.578125 265.792969 189.019531 264.355469 189.019531 262.597656 L 189.019531 240.148438 C 199.804688 239.429688 209.710938 235.113281 217.378906 228.40625 L 234.714844 245.742188 C 235.355469 246.378906 236.152344 246.699219 236.953125 246.699219 C 237.75 246.699219 238.550781 246.378906 239.191406 245.742188 C 240.46875 244.460938 240.46875 242.464844 239.191406 241.1875 L 221.851562 223.851562 C 228.5625 216.179688 232.878906 206.355469 233.597656 195.488281 L 275.378906 195.488281 C 277.136719 195.488281 278.574219 194.050781 278.574219 192.292969 C 278.574219 190.535156 277.136719 189.097656 275.378906 189.097656 Z M 185.902344 233.835938 C 162.972656 233.835938 144.359375 215.222656 144.359375 192.292969 C 144.359375 169.363281 162.972656 150.75 185.902344 150.75 C 208.832031 150.75 227.445312 169.363281 227.445312 192.292969 C 227.445312 215.222656 208.832031 233.835938 185.902344 233.835938 Z M 185.902344 233.835938 " fill-opacity="1" fill-rule="nonzero"/></svg>