<svg xmlns="http://www.w3.org/2000/svg" xmlns:xlink="http://www.w3.org/1999/xlink" width="500" zoomAndPan="magnify" viewBox="0 0 375 374.999991" height="500" preserveAspectRatio="xMidYMid meet" version="1.0"><defs><clipPath id="fd368e89f3"><path d="M 0 0.425781 L 375 0.425781 L 375 374.226562 L 0 374.226562 Z M 0 0.425781 " clip-rule="nonzero"/></clipPath></defs><path fill="#040606" d="M 235.539062 270.523438 L 105.46875 270.523438 L 105.46875 105.296875 L 270.128906 105.296875 L 270.128906 235.367188 C 252.519531 239.460938 239.035156 252.945312 235.539062 270.523438 Z M 275.988281 93.578125 L 99.609375 93.578125 C 96.113281 93.578125 93.75 95.90625 93.75 99.4375 L 93.75 275.785156 C 93.75 279.3125 96.082031 281.644531 99.609375 281.644531 L 240.832031 281.644531 C 243.730469 281.644531 246.691406 278.714844 246.691406 276.382812 C 247.859375 260.570312 260.742188 247.652344 276.554688 246.488281 C 278.886719 246.488281 281.847656 243.558594 281.847656 240.628906 L 281.847656 99.4375 C 281.847656 96.507812 278.886719 93.578125 275.988281 93.578125 " fill-opacity="1" fill-rule="nonzero"/><path fill="#040606" d="M 133 174.410156 C 129.503906 174.410156 127.140625 176.773438 127.140625 180.269531 L 127.140625 242.390625 C 127.140625 245.921875 129.503906 248.25 133 248.25 C 136.53125 248.25 138.859375 245.921875 138.859375 242.390625 L 138.859375 180.269531 C 138.859375 176.773438 136.53125 174.410156 133 174.410156 " fill-opacity="1" fill-rule="nonzero"/><g clip-path="url(#fd368e89f3)"><path fill="#040606" d="M 287.109375 303.914062 L 87.890625 303.914062 C 78.503906 303.914062 71.476562 296.292969 71.476562 287.503906 L 71.476562 88.285156 C 71.476562 78.929688 79.101562 71.902344 87.890625 71.902344 L 287.109375 71.902344 C 296.464844 71.902344 303.488281 79.496094 303.488281 88.285156 L 303.488281 286.9375 C 303.488281 296.292969 296.464844 303.914062 287.109375 303.914062 Z M 336.316406 155.101562 C 338.078125 155.101562 339.84375 153.902344 341.007812 152.738281 L 347.46875 143.949219 L 369.105469 143.949219 C 372.636719 143.949219 374.964844 141.617188 374.964844 138.089844 C 374.964844 134.59375 372.636719 132.230469 369.105469 132.230469 L 344.503906 132.230469 C 342.773438 132.230469 341.007812 133.394531 339.84375 134.59375 L 333.386719 143.382812 L 315.207031 143.382812 L 315.207031 110.554688 L 336.316406 110.554688 C 338.078125 110.554688 339.84375 109.390625 341.007812 108.226562 L 347.46875 99.4375 L 369.105469 99.4375 C 372.636719 99.4375 374.964844 97.074219 374.964844 93.578125 C 374.964844 90.046875 372.636719 87.71875 369.105469 87.71875 L 344.503906 87.71875 C 342.773438 87.71875 341.007812 88.882812 339.84375 90.046875 L 333.386719 98.835938 L 315.207031 98.835938 L 315.207031 88.882812 C 315.207031 73.070312 302.324219 60.75 287.109375 60.75 L 276.554688 60.75 L 276.554688 42.007812 L 285.34375 35.550781 C 287.109375 34.382812 287.707031 32.621094 287.707031 30.886719 L 287.707031 6.253906 C 287.707031 2.757812 285.34375 0.394531 281.847656 0.394531 C 278.320312 0.394531 275.988281 2.757812 275.988281 6.253906 L 275.988281 27.957031 L 267.167969 34.382812 C 265.4375 35.550781 264.835938 37.3125 264.835938 39.078125 L 264.835938 60.152344 L 232.011719 60.152344 L 232.011719 42.007812 L 240.832031 35.550781 C 242.566406 34.382812 243.164062 32.621094 243.164062 30.886719 L 243.164062 6.253906 C 243.164062 2.757812 240.832031 0.394531 237.304688 0.394531 C 233.777344 0.394531 231.445312 2.757812 231.445312 6.253906 L 231.445312 27.957031 L 222.65625 34.382812 C 220.890625 35.550781 220.292969 37.3125 220.292969 39.078125 L 220.292969 60.152344 L 193.359375 60.152344 L 193.359375 6.253906 C 193.359375 2.757812 190.996094 0.394531 187.5 0.394531 C 183.972656 0.394531 181.640625 2.757812 181.640625 6.253906 L 181.640625 60.183594 L 154.675781 60.183594 L 154.675781 39.078125 C 154.675781 37.3125 153.507812 35.550781 152.34375 34.382812 L 143.554688 27.957031 L 143.554688 6.253906 C 143.554688 2.757812 141.222656 0.394531 137.695312 0.394531 C 134.167969 0.394531 131.835938 2.757812 131.835938 6.253906 L 131.835938 30.886719 C 131.835938 32.621094 133 34.382812 134.167969 35.550781 L 142.957031 42.007812 L 142.957031 60.152344 L 110.164062 60.152344 L 110.164062 39.078125 C 110.164062 37.3125 108.996094 35.550781 107.800781 34.382812 L 99.011719 27.957031 L 99.011719 6.253906 C 99.011719 2.757812 96.679688 0.394531 93.152344 0.394531 C 89.65625 0.394531 87.292969 2.757812 87.292969 6.253906 L 87.292969 30.886719 C 87.292969 32.621094 88.488281 34.382812 89.65625 35.550781 L 98.445312 42.007812 L 98.445312 60.152344 L 87.890625 60.152344 C 72.078125 60.152344 59.757812 73.070312 59.757812 88.285156 L 59.757812 98.238281 L 41.613281 98.269531 L 35.15625 89.480469 C 33.992188 87.71875 32.226562 87.117188 30.460938 87.117188 L 5.859375 87.117188 C 2.363281 87.117188 0 89.480469 0 92.976562 C 0 96.507812 2.332031 98.835938 5.859375 98.835938 L 27.53125 98.835938 L 33.992188 107.625 C 35.15625 109.390625 36.921875 109.988281 38.683594 109.988281 L 59.757812 109.988281 L 59.757812 142.78125 L 41.613281 142.78125 L 35.15625 133.992188 C 33.992188 132.230469 32.226562 131.664062 30.460938 131.664062 L 5.859375 131.664062 C 2.363281 131.664062 0 133.992188 0 137.523438 C 0 141.019531 2.332031 143.382812 5.859375 143.382812 L 27.53125 143.382812 L 33.992188 152.171875 C 35.15625 153.933594 36.921875 154.5 38.683594 154.5 L 59.757812 154.5 L 59.757812 181.46875 L 5.859375 181.46875 C 2.363281 181.46875 0 183.796875 0 187.328125 C 0 190.824219 2.332031 193.1875 5.859375 193.1875 L 59.757812 193.1875 L 59.757812 220.121094 L 38.683594 220.121094 C 36.921875 220.121094 35.15625 221.285156 33.992188 222.484375 L 27.53125 231.273438 L 5.859375 231.273438 C 2.363281 231.273438 0 233.601562 0 237.132812 C 0 240.628906 2.332031 242.992188 5.859375 242.992188 L 30.460938 242.992188 C 32.226562 242.992188 33.992188 241.792969 35.15625 240.628906 L 41.613281 231.839844 L 59.757812 231.839844 L 59.757812 264.664062 L 38.683594 264.664062 C 36.921875 264.664062 35.15625 265.828125 33.992188 266.996094 L 27.53125 275.785156 L 5.859375 275.785156 C 2.363281 275.785156 0 278.148438 0 281.644531 C 0 285.171875 2.332031 287.503906 5.859375 287.503906 L 30.460938 287.503906 C 32.226562 287.503906 33.992188 286.335938 35.15625 285.171875 L 41.613281 276.382812 L 59.757812 276.382812 L 59.757812 286.335938 C 59.757812 302.152344 72.644531 314.46875 87.890625 314.46875 L 98.445312 314.46875 L 98.445312 332.613281 L 89.65625 339.070312 C 87.890625 340.238281 87.292969 342 87.292969 343.765625 L 87.292969 368.367188 C 87.292969 371.863281 89.65625 374.226562 93.152344 374.226562 C 96.679688 374.226562 99.011719 371.898438 99.011719 368.367188 L 99.011719 346.695312 L 107.800781 340.238281 C 109.5625 339.070312 110.164062 337.308594 110.164062 335.542969 L 110.164062 314.46875 L 142.957031 314.46875 L 142.957031 332.613281 L 134.167969 339.070312 C 132.402344 340.238281 131.835938 342 131.835938 343.765625 L 131.835938 368.367188 C 131.835938 371.863281 134.167969 374.226562 137.695312 374.226562 C 141.222656 374.226562 143.554688 371.898438 143.554688 368.367188 L 143.554688 346.695312 L 152.34375 340.238281 C 154.109375 339.070312 154.675781 337.308594 154.675781 335.542969 L 154.675781 314.46875 L 181.640625 314.46875 L 181.640625 368.367188 C 181.640625 371.898438 183.972656 374.226562 187.5 374.226562 C 190.996094 374.226562 193.359375 371.898438 193.359375 368.367188 L 193.359375 314.46875 L 220.292969 314.46875 L 220.292969 335.542969 C 220.292969 337.308594 221.492188 339.070312 222.65625 340.238281 L 231.445312 346.695312 L 231.445312 368.367188 C 231.445312 371.863281 233.777344 374.226562 237.304688 374.226562 C 240.832031 374.226562 243.164062 371.898438 243.164062 368.367188 L 243.164062 343.765625 C 243.164062 342 242 340.238281 240.832031 339.070312 L 232.011719 332.613281 L 232.011719 314.46875 L 264.835938 314.46875 L 264.835938 335.542969 C 264.835938 337.308594 266.035156 339.070312 267.167969 340.238281 L 275.988281 346.695312 L 275.988281 368.367188 C 275.988281 371.863281 278.320312 374.226562 281.847656 374.226562 C 285.34375 374.226562 287.707031 371.898438 287.707031 368.367188 L 287.707031 343.765625 C 287.707031 342 286.511719 340.238281 285.34375 339.070312 L 276.554688 332.613281 L 276.554688 314.46875 L 287.109375 314.46875 C 302.921875 314.46875 315.242188 301.585938 315.242188 286.335938 L 315.242188 276.382812 L 333.386719 276.382812 L 339.84375 285.171875 C 341.007812 286.9375 342.773438 287.503906 344.539062 287.503906 L 369.140625 287.503906 C 372.636719 287.503906 375 285.171875 375 281.644531 C 375 278.148438 372.636719 275.785156 369.140625 275.785156 L 347.46875 275.785156 L 341.007812 266.996094 C 339.84375 265.230469 338.078125 264.664062 336.347656 264.664062 L 315.242188 264.664062 L 315.242188 231.839844 L 333.386719 231.839844 L 339.84375 240.628906 C 341.007812 242.390625 342.773438 242.992188 344.539062 242.992188 L 369.140625 242.992188 C 372.636719 242.992188 375 240.628906 375 237.132812 C 375 233.601562 372.636719 231.273438 369.140625 231.273438 L 347.46875 231.273438 L 341.007812 222.484375 C 339.84375 220.71875 338.078125 220.121094 336.347656 220.121094 L 315.242188 220.121094 L 315.242188 193.1875 L 369.140625 193.1875 C 372.636719 193.1875 375 190.824219 375 187.328125 C 375 183.796875 372.636719 181.46875 369.140625 181.46875 L 315.242188 181.46875 L 315.242188 154.5 L 336.316406 154.5 L 336.316406 155.101562 " fill-opacity="1" fill-rule="nonzero"/></g></svg>