<svg xmlns="http://www.w3.org/2000/svg" xmlns:xlink="http://www.w3.org/1999/xlink" width="500" zoomAndPan="magnify" viewBox="0 0 375 374.999991" height="500" preserveAspectRatio="xMidYMid meet" version="1.0"><defs><clipPath id="851f82d76e"><path d="M 117.65625 112.5 L 257.15625 112.5 L 257.15625 262.5 L 117.65625 262.5 Z M 117.65625 112.5 " clip-rule="nonzero"/></clipPath></defs><rect x="-37.5" width="450" fill="#ffffff" y="-37.499999" height="449.999989" fill-opacity="1"/><rect x="-37.5" width="450" fill="#ffffff" y="-37.499999" height="449.999989" fill-opacity="1"/><path fill="#000000" d="M 200.671875 132.226562 C 203.820312 134.679688 206.1875 138.097656 207.148438 142.042969 C 207.761719 144.675781 206.097656 149.847656 203.558594 155.894531 C 201.722656 160.105469 199.355469 164.835938 197.082031 169.222656 C 194.191406 167.378906 190.863281 166.328125 187.363281 166.328125 C 183.773438 166.328125 180.269531 167.378906 177.382812 169.398438 C 175.105469 165.363281 172.917969 161.15625 171.078125 157.210938 C 168.539062 151.601562 166.964844 146.515625 167.574219 143.183594 C 168.363281 138.976562 170.640625 135.292969 173.792969 132.574219 C 176.945312 130.035156 180.972656 128.457031 185.261719 128.457031 L 189.640625 128.457031 C 193.839844 128.457031 197.605469 129.859375 200.671875 132.226562 Z M 200.671875 132.226562 " fill-opacity="1" fill-rule="nonzero"/><path fill="#000000" d="M 225.621094 221.207031 C 221.945312 222.699219 217.828125 223.050781 213.890625 221.910156 C 211.351562 221.207031 207.675781 217.089844 203.820312 211.914062 C 201.019531 208.144531 198.132812 203.761719 195.417969 199.640625 C 197.082031 198.765625 198.480469 197.714844 199.792969 196.398438 C 203.121094 193.066406 204.960938 188.597656 204.960938 183.949219 C 204.960938 183.421875 204.960938 182.898438 204.871094 182.460938 C 209.511719 182.460938 214.152344 182.632812 218.707031 183.074219 C 224.921875 183.6875 230.175781 184.824219 232.714844 187.019531 C 235.953125 189.824219 238.054688 193.59375 238.753906 197.714844 C 239.453125 201.746094 238.84375 205.953125 236.652344 209.8125 C 233.765625 214.808594 231.839844 218.753906 225.621094 221.207031 Z M 225.621094 221.207031 " fill-opacity="1" fill-rule="nonzero"/><path fill="#000000" d="M 135.96875 198.238281 C 136.496094 194.292969 138.335938 190.613281 141.3125 187.71875 C 143.148438 185.878906 148.488281 184.738281 154.96875 183.949219 C 159.609375 183.421875 164.863281 183.074219 169.765625 182.898438 C 169.765625 183.25 169.765625 183.597656 169.765625 183.949219 C 169.765625 188.597656 171.601562 193.066406 174.929688 196.398438 C 176.332031 197.800781 177.996094 199.027344 179.746094 199.816406 C 177.46875 203.851562 174.929688 207.882812 172.390625 211.390625 C 168.800781 216.386719 165.210938 220.332031 162.058594 221.472656 C 158.03125 222.875 153.65625 222.785156 149.804688 221.382812 C 141.398438 218.316406 134.746094 206.832031 135.96875 198.238281 Z M 135.96875 198.238281 " fill-opacity="1" fill-rule="nonzero"/><g clip-path="url(#851f82d76e)"><path fill="#000000" d="M 178.957031 251.71875 C 163.546875 249.875 149.191406 242.863281 138.070312 231.816406 C 124.9375 218.664062 117.671875 200.957031 117.671875 182.371094 C 117.671875 163.785156 124.9375 146.164062 138.070312 133.015625 C 151.203125 119.863281 168.890625 112.5 187.449219 112.5 C 206.011719 112.5 223.609375 119.863281 236.742188 133.015625 C 249.875 146.164062 257.140625 163.785156 257.140625 182.371094 C 257.140625 183.773438 256.089844 184.914062 254.6875 184.914062 C 253.289062 184.914062 252.148438 183.773438 252.148438 182.371094 C 252.148438 165.101562 245.410156 148.707031 233.152344 136.519531 C 220.980469 124.335938 204.609375 117.585938 187.449219 117.585938 C 170.203125 117.585938 153.832031 124.335938 141.660156 136.519531 C 129.492188 148.707031 122.664062 165.101562 122.664062 182.371094 C 122.664062 199.640625 129.492188 216.035156 141.660156 228.222656 C 152.78125 239.355469 167.402344 246.019531 182.984375 247.070312 L 175.367188 233.832031 C 174.667969 232.605469 175.019531 231.027344 176.242188 230.324219 C 177.46875 229.625 178.957031 230.0625 179.65625 231.289062 L 189.199219 247.683594 L 189.550781 248.386719 C 189.640625 248.472656 189.640625 248.5625 189.640625 248.5625 L 189.988281 249.175781 L 189.902344 249.261719 C 189.902344 249.4375 189.902344 249.613281 189.902344 249.699219 C 189.902344 250.140625 189.8125 250.578125 189.640625 250.929688 C 189.375 251.277344 189.113281 251.628906 188.851562 251.804688 C 188.675781 251.890625 188.589844 251.980469 188.5 251.980469 L 171.515625 261.796875 C 170.289062 262.5 168.800781 262.0625 168.101562 260.921875 C 167.402344 259.695312 167.839844 258.117188 168.976562 257.503906 Z M 178.957031 251.71875 " fill-opacity="1" fill-rule="evenodd"/></g><path fill="#000000" d="M 173.265625 183.949219 C 173.265625 187.894531 174.84375 191.402344 177.382812 193.945312 C 179.921875 196.484375 183.421875 198.0625 187.363281 198.0625 C 191.300781 198.0625 194.804688 196.484375 197.34375 193.945312 C 199.882812 191.402344 201.457031 187.894531 201.457031 183.949219 C 201.457031 180.003906 199.882812 176.496094 197.34375 173.957031 C 194.804688 171.414062 191.300781 169.835938 187.363281 169.835938 C 183.421875 169.835938 179.921875 171.414062 177.382812 173.957031 C 174.84375 176.496094 173.265625 180.003906 173.265625 183.949219 Z M 187.363281 189.210938 C 184.472656 189.210938 182.109375 186.84375 182.109375 183.949219 C 182.109375 181.054688 184.472656 178.6875 187.363281 178.6875 C 190.25 178.6875 192.617188 181.054688 192.617188 183.949219 C 192.617188 186.84375 190.25 189.210938 187.363281 189.210938 Z M 187.363281 189.210938 " fill-opacity="1" fill-rule="evenodd"/></svg>