<svg xmlns="http://www.w3.org/2000/svg" xmlns:xlink="http://www.w3.org/1999/xlink" width="500" zoomAndPan="magnify" viewBox="0 0 375 374.999991" height="500" preserveAspectRatio="xMidYMid meet" version="1.0"><defs><clipPath id="448af2c2ce"><path d="M 0 61.640625 L 375 61.640625 L 375 313.640625 L 0 313.640625 Z M 0 61.640625 " clip-rule="nonzero"/></clipPath></defs><g clip-path="url(#448af2c2ce)"><path fill="#000000" d="M 182.144531 61.640625 C 151.960938 61.640625 127.363281 86.261719 127.363281 116.484375 C 127.363281 117.121094 127.441406 117.316406 127.488281 117.84375 C 118.433594 122.570312 110.113281 128.4375 102.601562 135.269531 L 72.308594 104.953125 L 68.523438 108.742188 C 47.183594 130.109375 47.1875 164.933594 68.542969 186.300781 C 68.984375 186.738281 69.171875 186.824219 69.570312 187.160156 C 66.570312 196.675781 64.789062 206.707031 64.296875 217.121094 L 21.472656 217.121094 L 21.472656 222.480469 C 21.472656 252.699219 46.066406 277.324219 76.253906 277.324219 C 76.886719 277.324219 77.078125 277.242188 77.601562 277.199219 C 82.332031 286.261719 88.058594 294.71875 94.84375 302.269531 C 93.5 302.640625 92.222656 302.917969 91.097656 302.917969 C 87.527344 302.917969 82.78125 300.800781 77.425781 298.121094 C 72.070312 295.441406 66.105469 292.195312 58.960938 292.195312 C 51.820312 292.195312 45.855469 295.441406 40.5 298.121094 C 35.144531 300.800781 30.398438 302.917969 26.828125 302.917969 C 26.472656 302.914062 26.121094 302.941406 25.773438 303.007812 C 25.425781 303.070312 25.085938 303.171875 24.753906 303.304688 C 24.425781 303.4375 24.113281 303.597656 23.816406 303.792969 C 23.519531 303.988281 23.246094 304.210938 22.992188 304.460938 C 22.738281 304.710938 22.511719 304.980469 22.316406 305.277344 C 22.117188 305.570312 21.949219 305.882812 21.8125 306.210938 C 21.675781 306.535156 21.570312 306.875 21.5 307.222656 C 21.429688 307.570312 21.394531 307.921875 21.394531 308.277344 C 21.394531 308.632812 21.429688 308.984375 21.5 309.335938 C 21.570312 309.683594 21.675781 310.019531 21.8125 310.347656 C 21.949219 310.675781 22.117188 310.988281 22.316406 311.28125 C 22.511719 311.574219 22.738281 311.847656 22.992188 312.097656 C 23.246094 312.347656 23.519531 312.570312 23.816406 312.765625 C 24.113281 312.957031 24.425781 313.121094 24.753906 313.253906 C 25.085938 313.386719 25.425781 313.484375 25.773438 313.550781 C 26.121094 313.617188 26.472656 313.644531 26.828125 313.640625 C 33.96875 313.640625 39.933594 310.394531 45.292969 307.714844 C 50.648438 305.03125 55.390625 302.917969 58.960938 302.917969 C 62.535156 302.917969 67.277344 305.03125 72.632812 307.714844 C 77.988281 310.394531 83.957031 313.640625 91.097656 313.640625 C 98.238281 313.640625 104.203125 310.394531 109.558594 307.714844 C 114.914062 305.03125 119.660156 302.917969 123.230469 302.917969 C 126.800781 302.917969 131.546875 305.03125 136.902344 307.714844 C 142.257812 310.394531 148.226562 313.640625 155.367188 313.640625 C 162.507812 313.640625 168.472656 310.394531 173.828125 307.714844 C 179.183594 305.03125 183.929688 302.917969 187.5 302.917969 C 191.070312 302.917969 195.816406 305.03125 201.171875 307.714844 C 206.527344 310.394531 212.492188 313.640625 219.632812 313.640625 C 226.773438 313.640625 232.742188 310.394531 238.097656 307.714844 C 243.453125 305.03125 248.199219 302.917969 251.769531 302.917969 C 255.339844 302.917969 260.085938 305.03125 265.441406 307.714844 C 270.796875 310.394531 276.761719 313.640625 283.902344 313.640625 C 291.042969 313.640625 297.011719 310.394531 302.367188 307.714844 C 307.722656 305.03125 312.464844 302.917969 316.039062 302.917969 C 319.609375 302.917969 324.351562 305.03125 329.707031 307.714844 C 335.066406 310.394531 341.03125 313.640625 348.171875 313.640625 C 348.527344 313.644531 348.878906 313.617188 349.226562 313.550781 C 349.574219 313.484375 349.914062 313.386719 350.246094 313.253906 C 350.574219 313.121094 350.886719 312.957031 351.183594 312.765625 C 351.480469 312.570312 351.753906 312.347656 352.007812 312.097656 C 352.261719 311.847656 352.488281 311.574219 352.683594 311.28125 C 352.882812 310.988281 353.050781 310.675781 353.1875 310.347656 C 353.324219 310.019531 353.429688 309.683594 353.5 309.335938 C 353.570312 308.984375 353.605469 308.632812 353.605469 308.277344 C 353.605469 307.921875 353.570312 307.570312 353.5 307.222656 C 353.429688 306.875 353.324219 306.535156 353.1875 306.210938 C 353.050781 305.882812 352.882812 305.570312 352.683594 305.277344 C 352.488281 304.980469 352.261719 304.710938 352.007812 304.460938 C 351.753906 304.210938 351.480469 303.988281 351.183594 303.792969 C 350.886719 303.597656 350.574219 303.4375 350.246094 303.304688 C 349.914062 303.171875 349.574219 303.070312 349.226562 303.007812 C 348.878906 302.941406 348.527344 302.914062 348.171875 302.917969 C 344.601562 302.917969 339.855469 300.800781 334.5 298.121094 C 329.144531 295.441406 323.179688 292.195312 316.039062 292.195312 C 314.492188 292.195312 313.011719 292.367188 311.570312 292.632812 C 310.476562 280.25 305.207031 268.140625 295.765625 258.683594 C 295.316406 258.234375 295.132812 258.164062 294.730469 257.824219 C 297.730469 248.304688 299.507812 238.265625 300 227.851562 L 342.816406 227.851562 L 342.816406 222.492188 C 342.816406 192.273438 318.222656 167.648438 288.035156 167.648438 C 287.402344 167.648438 287.210938 167.730469 286.683594 167.773438 C 281.957031 158.710938 276.09375 150.386719 269.269531 142.863281 L 299.550781 112.535156 L 295.765625 108.742188 C 274.425781 87.378906 239.644531 87.378906 218.304688 108.742188 C 217.855469 109.195312 217.777344 109.386719 217.4375 109.792969 C 207.929688 106.792969 197.90625 105.015625 187.5 104.523438 L 187.5 61.640625 Z M 176.789062 73.441406 L 176.789062 114.777344 L 182.144531 114.777344 C 194.585938 114.777344 206.480469 116.988281 217.636719 120.890625 L 221.121094 122.117188 L 223.503906 119.289062 C 224.726562 117.839844 225.398438 116.804688 225.878906 116.324219 C 241.777344 100.410156 266.339844 99.867188 283.640625 113.300781 L 254.457031 142.515625 L 258.234375 146.308594 C 266.699219 154.785156 273.679688 164.785156 278.988281 175.777344 L 280.585938 179.105469 L 284.269531 178.78125 C 286.152344 178.617188 287.34375 178.371094 288.035156 178.371094 C 310.53125 178.371094 328.28125 195.378906 331.027344 217.128906 L 289.761719 217.128906 L 289.761719 222.492188 C 289.761719 234.9375 287.542969 246.832031 283.640625 258.003906 L 282.429688 261.46875 L 285.210938 263.847656 C 286.667969 265.097656 287.703125 265.777344 288.191406 266.265625 C 296.542969 274.628906 300.777344 285.457031 301.035156 296.402344 C 299.859375 296.976562 298.695312 297.5625 297.574219 298.121094 C 292.21875 300.800781 287.472656 302.917969 283.902344 302.917969 C 280.332031 302.917969 275.585938 300.800781 270.230469 298.121094 C 264.875 295.441406 258.910156 292.195312 251.769531 292.195312 C 244.628906 292.195312 238.660156 295.441406 233.304688 298.121094 C 227.949219 300.800781 223.203125 302.917969 219.632812 302.917969 C 216.0625 302.917969 211.316406 300.800781 205.960938 298.121094 C 200.605469 295.441406 194.640625 292.195312 187.5 292.195312 C 180.359375 292.195312 174.394531 295.441406 169.039062 298.121094 C 163.683594 300.800781 158.9375 302.917969 155.367188 302.917969 C 151.796875 302.917969 147.050781 300.800781 141.695312 298.121094 C 136.339844 295.441406 130.371094 292.195312 123.230469 292.195312 C 116.324219 292.195312 110.53125 295.222656 105.3125 297.847656 C 97.195312 289.539062 90.445312 279.851562 85.300781 269.195312 L 83.703125 265.867188 L 80.019531 266.191406 C 78.136719 266.355469 76.945312 266.601562 76.253906 266.601562 C 53.757812 266.601562 36.003906 249.59375 33.261719 227.84375 L 74.539062 227.84375 L 74.539062 222.480469 C 74.539062 210.023438 76.75 198.117188 80.65625 186.949219 L 81.882812 183.453125 L 79.046875 181.0625 C 77.609375 179.859375 76.59375 179.195312 76.105469 178.707031 C 60.195312 162.785156 59.65625 138.203125 73.074219 120.882812 L 102.257812 150.097656 L 106.046875 146.316406 C 114.515625 137.839844 124.503906 130.839844 135.480469 125.542969 L 138.808594 123.9375 L 138.484375 120.253906 C 138.320312 118.367188 138.074219 117.175781 138.074219 116.484375 C 138.074219 93.960938 155.058594 76.191406 176.789062 73.441406 Z M 189.59375 126.253906 C 186.644531 126.039062 184.074219 128.238281 183.859375 131.1875 C 183.644531 134.132812 185.839844 136.707031 188.785156 136.976562 L 189.214844 136.976562 C 191.945312 136.976562 194.304688 134.832031 194.519531 132.042969 C 194.785156 129.09375 192.539062 126.46875 189.59375 126.253906 Z M 166.988281 127.164062 C 164.09375 127.648438 162.113281 130.375 162.542969 133.269531 C 162.96875 135.949219 165.273438 137.835938 167.84375 137.835938 C 168.113281 137.835938 168.382812 137.828125 168.703125 137.773438 C 171.59375 137.289062 173.578125 134.5625 173.148438 131.613281 C 172.667969 128.71875 169.933594 126.683594 166.988281 127.164062 Z M 209.6875 130.398438 C 207.601562 130.582031 205.746094 131.984375 205.0625 134.074219 C 204.152344 136.917969 205.710938 139.917969 208.492188 140.832031 C 209.082031 141.042969 209.621094 141.101562 210.15625 141.101562 C 212.40625 141.101562 214.542969 139.65625 215.242188 137.40625 C 216.152344 134.5625 214.59375 131.550781 211.808594 130.640625 C 211.101562 130.414062 210.382812 130.339844 209.6875 130.398438 Z M 147.320312 132.925781 C 146.628906 132.917969 145.921875 133.039062 145.238281 133.320312 C 142.507812 134.449219 141.226562 137.5625 142.351562 140.296875 C 143.210938 142.386719 145.191406 143.617188 147.28125 143.617188 C 147.976562 143.617188 148.667969 143.519531 149.308594 143.195312 C 152.039062 142.070312 153.386719 138.957031 152.207031 136.222656 C 151.363281 134.171875 149.398438 132.9375 147.320312 132.925781 Z M 230.386719 139.375 C 228.320312 139.074219 226.15625 139.980469 224.988281 141.910156 C 223.492188 144.429688 224.242188 147.695312 226.757812 149.25 C 227.667969 149.785156 228.628906 150.054688 229.59375 150.054688 C 231.359375 150.054688 233.136719 149.140625 234.152344 147.480469 C 235.707031 144.960938 234.902344 141.640625 232.386719 140.085938 C 231.757812 139.710938 231.078125 139.476562 230.386719 139.375 Z M 129.464844 143.4375 C 128.113281 143.222656 126.683594 143.511719 125.480469 144.371094 C 123.125 146.140625 122.585938 149.464844 124.296875 151.878906 C 125.371094 153.324219 126.980469 154.078125 128.640625 154.078125 C 129.765625 154.078125 130.835938 153.757812 131.796875 153.0625 C 134.207031 151.347656 134.746094 147.964844 132.980469 145.554688 C 132.097656 144.375 130.816406 143.652344 129.464844 143.4375 Z M 246.371094 152.539062 C 245 152.550781 243.621094 153.085938 242.605469 154.128906 C 240.515625 156.222656 240.515625 159.601562 242.605469 161.691406 C 243.621094 162.761719 245.023438 163.242188 246.359375 163.242188 C 247.753906 163.242188 249.140625 162.710938 250.15625 161.691406 C 252.246094 159.601562 252.246094 156.167969 250.15625 154.078125 C 249.113281 153.03125 247.742188 152.523438 246.371094 152.539062 Z M 112.53125 157.898438 C 111.164062 158.007812 109.84375 158.636719 108.878906 159.765625 C 106.953125 162.015625 107.214844 165.394531 109.464844 167.324219 C 110.484375 168.183594 111.71875 168.601562 112.949219 168.601562 C 114.449219 168.601562 115.945312 167.960938 117.019531 166.726562 C 118.945312 164.476562 118.679688 161.097656 116.433594 159.167969 C 115.308594 158.203125 113.894531 157.792969 112.53125 157.898438 Z M 177.886719 168.875 C 166.804688 188.535156 155.734375 208.191406 144.652344 227.851562 L 176.789062 227.851562 C 167.871094 247.515625 158.957031 267.171875 150.042969 286.832031 C 171.453125 261.808594 192.871094 236.792969 214.289062 211.769531 L 182.15625 211.769531 C 190.304688 197.46875 198.453125 183.175781 206.609375 168.875 Z M 258.851562 169.367188 C 258.164062 169.476562 257.480469 169.722656 256.851562 170.109375 C 254.335938 171.664062 253.53125 174.929688 255.085938 177.453125 C 256.101562 179.113281 257.878906 180.027344 259.644531 180.027344 C 260.609375 180.027344 261.570312 179.757812 262.480469 179.222656 C 264.996094 177.667969 265.75 174.347656 264.195312 171.828125 C 263.03125 169.9375 260.902344 169.039062 258.851562 169.367188 Z M 101.433594 175.648438 C 99.359375 175.496094 97.300781 176.570312 96.296875 178.582031 C 94.957031 181.210938 95.972656 184.425781 98.597656 185.765625 C 99.402344 186.195312 100.253906 186.351562 101.054688 186.351562 C 102.984375 186.351562 104.859375 185.285156 105.824219 183.460938 C 107.164062 180.835938 106.148438 177.554688 103.472656 176.214844 C 102.816406 175.878906 102.125 175.703125 101.433594 175.648438 Z M 269.101562 188.6875 C 268.40625 188.625 267.6875 188.699219 266.976562 188.929688 C 264.191406 189.894531 262.644531 192.894531 263.609375 195.734375 C 264.304688 197.988281 266.445312 199.433594 268.695312 199.433594 C 269.230469 199.433594 269.769531 199.332031 270.355469 199.171875 C 273.140625 198.207031 274.6875 195.207031 273.777344 192.363281 C 273.054688 190.273438 271.1875 188.871094 269.101562 188.6875 Z M 92.761719 195.765625 C 90.695312 196.105469 88.941406 197.636719 88.417969 199.808594 C 87.722656 202.703125 89.492188 205.605469 92.382812 206.300781 C 92.8125 206.410156 93.242188 206.457031 93.617188 206.457031 C 96.027344 206.457031 98.21875 204.800781 98.804688 202.332031 C 99.503906 199.4375 97.742188 196.539062 94.90625 195.839844 C 94.179688 195.664062 93.449219 195.652344 92.761719 195.765625 Z M 272.4375 209.675781 C 269.492188 209.886719 267.296875 212.515625 267.5625 215.464844 C 267.777344 218.253906 270.136719 220.398438 272.867188 220.398438 C 273.027344 220.398438 273.1875 220.34375 273.296875 220.34375 C 276.242188 220.128906 278.492188 217.554688 278.222656 214.605469 L 278.222656 214.554688 C 278.007812 211.660156 275.382812 209.40625 272.4375 209.675781 Z M 91.097656 216.972656 C 88.152344 216.972656 85.742188 219.332031 85.742188 222.335938 C 85.742188 225.285156 88.097656 227.695312 91.097656 227.695312 C 94.042969 227.695312 96.453125 225.285156 96.453125 222.335938 C 96.453125 219.386719 94.097656 216.972656 91.097656 216.972656 Z M 272.917969 231.121094 C 270.027344 230.636719 267.300781 232.675781 266.875 235.570312 C 266.390625 238.519531 268.425781 241.257812 271.320312 241.6875 C 271.585938 241.742188 271.855469 241.792969 272.125 241.792969 C 274.75 241.792969 277.042969 239.863281 277.417969 237.238281 C 277.847656 234.289062 275.863281 231.550781 272.917969 231.121094 Z M 94.433594 238.285156 C 93.753906 238.171875 93.042969 238.191406 92.332031 238.367188 C 89.4375 239.011719 87.671875 241.902344 88.316406 244.796875 C 88.902344 247.261719 91.101562 248.921875 93.566406 248.921875 C 93.941406 248.921875 94.359375 248.875 94.789062 248.765625 C 97.683594 248.121094 99.449219 245.222656 98.753906 242.324219 C 98.230469 240.152344 96.476562 238.621094 94.433594 238.285156 Z M 266.390625 251.65625 C 264.296875 251.664062 262.308594 252.9375 261.464844 254.988281 C 260.339844 257.722656 261.671875 260.875 264.40625 262.003906 C 265.046875 262.269531 265.75 262.378906 266.445312 262.378906 C 268.535156 262.378906 270.515625 261.152344 271.371094 259.058594 C 272.496094 256.324219 271.207031 253.15625 268.472656 252.085938 C 267.789062 251.789062 267.089844 251.652344 266.390625 251.65625 Z M 100.5 258.328125 C 99.800781 258.378906 99.097656 258.558594 98.429688 258.894531 C 95.804688 260.234375 94.789062 263.460938 96.128906 266.085938 C 97.039062 267.964844 98.917969 269.03125 100.898438 269.03125 C 101.703125 269.03125 102.554688 268.820312 103.304688 268.441406 C 105.929688 267.101562 107.007812 263.886719 105.667969 261.257812 L 105.667969 261.207031 C 104.664062 259.238281 102.597656 258.171875 100.5 258.328125 Z M 255.199219 270.441406 C 253.839844 270.671875 252.574219 271.414062 251.714844 272.621094 C 250.003906 274.980469 250.539062 278.363281 252.949219 280.078125 C 253.859375 280.773438 254.984375 281.09375 256.058594 281.09375 C 257.71875 281.09375 259.371094 280.34375 260.386719 278.894531 L 260.386719 278.84375 C 262.101562 276.484375 261.574219 273.101562 259.214844 271.386719 C 258.011719 270.5 256.558594 270.214844 255.199219 270.441406 Z M 113.148438 276.121094 C 111.78125 276.011719 110.382812 276.433594 109.257812 277.398438 C 107.007812 279.328125 106.730469 282.707031 108.660156 284.957031 C 109.675781 286.191406 111.175781 286.832031 112.730469 286.832031 C 113.960938 286.832031 115.195312 286.402344 116.210938 285.542969 C 118.460938 283.667969 118.738281 280.289062 116.808594 277.984375 C 115.84375 276.855469 114.511719 276.226562 113.148438 276.121094 Z M 5.40625 302.917969 C 2.449219 302.917969 0.0507812 305.320312 0.0507812 308.277344 C 0.0507812 311.238281 2.449219 313.640625 5.40625 313.640625 C 8.363281 313.640625 10.761719 311.238281 10.761719 308.277344 C 10.761719 305.320312 8.363281 302.917969 5.40625 302.917969 Z M 369.59375 302.917969 C 366.636719 302.917969 364.238281 305.320312 364.238281 308.277344 C 364.238281 311.238281 366.636719 313.640625 369.59375 313.640625 C 372.550781 313.640625 374.949219 311.238281 374.949219 308.277344 C 374.949219 305.320312 372.550781 302.917969 369.59375 302.917969 Z M 369.59375 302.917969 " fill-opacity="1" fill-rule="nonzero"/></g></svg>