<svg xmlns="http://www.w3.org/2000/svg" xmlns:xlink="http://www.w3.org/1999/xlink" width="500" zoomAndPan="magnify" viewBox="0 0 375 374.999991" height="500" preserveAspectRatio="xMidYMid meet" version="1.0"><defs><clipPath id="8da7c00042"><path d="M 0 25.3125 L 375 25.3125 L 375 374.8125 L 0 374.8125 Z M 0 25.3125 " clip-rule="nonzero"/></clipPath></defs><g clip-path="url(#8da7c00042)"><path fill="#000000" d="M 373.179688 206.855469 L 362.277344 202.265625 L 362.277344 146 C 362.277344 145.183594 361.941406 144.40625 361.351562 143.84375 C 353.601562 136.472656 344.976562 133.121094 338.414062 131.597656 L 338.414062 71.277344 C 338.414062 69.632812 337.082031 68.304688 335.4375 68.304688 L 230.445312 68.304688 C 228.804688 68.304688 227.46875 69.632812 227.46875 71.277344 L 227.46875 99.601562 C 212.046875 102.683594 201.882812 111.492188 198.113281 115.289062 C 197.558594 115.84375 197.246094 116.597656 197.246094 117.382812 L 197.246094 141.441406 L 170 141.441406 C 168.355469 141.441406 167.023438 142.773438 167.023438 144.414062 L 167.023438 172.769531 L 158.660156 169.425781 L 158.660156 41.324219 C 158.660156 39.679688 157.328125 38.347656 155.683594 38.347656 L 130.230469 38.347656 C 128.585938 38.347656 127.253906 39.679688 127.253906 41.324219 L 127.253906 156.871094 L 124.976562 155.960938 C 124.058594 155.59375 123.019531 155.707031 122.199219 156.261719 C 121.382812 156.8125 120.894531 157.734375 120.894531 158.722656 L 120.894531 205.117188 L 115.664062 202.914062 L 101.390625 28.113281 C 101.261719 26.570312 99.972656 25.378906 98.421875 25.378906 L 72.96875 25.378906 C 71.417969 25.378906 70.128906 26.570312 70.003906 28.113281 L 66.117188 75.730469 C 66.113281 75.753906 66.105469 75.777344 66.101562 75.800781 L 57.71875 178.53125 L 4.132812 155.980469 C 3.210938 155.59375 2.160156 155.695312 1.328125 156.246094 C 0.5 156.796875 0 157.726562 0 158.722656 L 0 371.761719 C 0 373.40625 1.332031 374.738281 2.976562 374.738281 L 372.023438 374.738281 C 373.667969 374.738281 375 373.40625 375 371.761719 L 375 209.597656 C 375 208.398438 374.28125 207.316406 373.179688 206.855469 Z M 75.710938 31.328125 L 95.679688 31.328125 L 97.53125 53.996094 L 73.863281 53.996094 Z M 71.8125 79.019531 L 99.574219 79.019531 L 109.476562 200.3125 L 63.492188 180.960938 Z M 25.042969 247.550781 L 50.898438 247.550781 L 50.898438 254.320312 L 25.042969 254.320312 Z M 25.042969 260.269531 L 50.898438 260.269531 L 50.898438 273.394531 L 25.042969 273.394531 Z M 76.355469 368.789062 L 5.953125 368.789062 L 5.953125 339.765625 L 76.355469 339.765625 Z M 124.078125 368.789062 L 82.304688 368.789062 L 82.304688 323.863281 L 124.078125 323.863281 Z M 334.828125 136.933594 C 334.839844 136.9375 334.859375 136.9375 334.871094 136.941406 C 334.882812 136.941406 334.898438 136.945312 334.910156 136.945312 C 340.621094 137.980469 348.871094 140.617188 356.324219 147.300781 L 356.324219 199.761719 L 298.644531 175.488281 L 298.644531 147.304688 C 302.035156 144.292969 309.441406 138.796875 320.050781 136.910156 C 324.851562 136.066406 329.691406 136.019531 334.828125 136.933594 Z M 314.554688 254.320312 L 314.554688 247.550781 L 340.417969 247.550781 L 340.417969 254.320312 Z M 340.417969 260.269531 L 340.417969 273.394531 L 314.554688 273.394531 L 314.554688 260.269531 Z M 249.332031 90.152344 L 316.554688 90.152344 L 316.554688 131.558594 C 305.632812 134.09375 298.027344 139.863281 294.507812 143.023438 L 279.554688 143.023438 L 279.554688 117.382812 C 279.554688 116.601562 279.242188 115.847656 278.691406 115.289062 C 268.9375 105.460938 257.746094 101.351562 249.332031 99.660156 Z M 260.46875 254.320312 L 260.46875 247.550781 L 286.332031 247.550781 L 286.332031 254.320312 Z M 286.332031 260.269531 L 286.332031 273.394531 L 260.46875 273.394531 L 260.46875 260.269531 Z M 279.554688 167.457031 L 279.554688 164.871094 L 292.695312 164.871094 L 292.695312 172.984375 Z M 203.199219 118.636719 C 207.34375 114.699219 216.882812 107.15625 230.898438 105.027344 C 233.351562 104.648438 235.875 104.460938 238.402344 104.460938 C 240.78125 104.460938 243.300781 104.667969 245.890625 105.078125 C 253.386719 106.257812 264.179688 109.574219 273.601562 118.628906 L 273.601562 164.953125 L 252.285156 155.980469 C 251.367188 155.597656 250.316406 155.695312 249.484375 156.246094 C 248.652344 156.796875 248.15625 157.726562 248.15625 158.722656 L 248.15625 205.203125 L 203.199219 187.234375 Z M 203.199219 247.550781 L 229.0625 247.550781 L 229.0625 254.320312 L 203.199219 254.320312 Z M 203.199219 260.269531 L 229.0625 260.269531 L 229.0625 273.394531 L 203.199219 273.394531 Z M 172.976562 147.390625 L 197.246094 147.390625 L 197.246094 157.339844 L 185.90625 157.339844 C 184.265625 157.339844 182.929688 158.671875 182.929688 160.316406 L 182.929688 179.125 L 172.976562 175.148438 Z M 197.246094 163.289062 L 197.246094 184.847656 L 188.882812 181.507812 L 188.882812 163.289062 Z M 174.976562 247.550781 L 174.976562 254.320312 L 149.113281 254.320312 L 149.113281 247.550781 Z M 174.976562 260.269531 L 174.976562 273.394531 L 149.113281 273.394531 L 149.113281 260.269531 Z M 133.207031 44.296875 L 152.707031 44.296875 L 152.707031 56.195312 L 133.207031 56.195312 Z M 133.207031 62.144531 L 152.707031 62.144531 L 152.707031 71.671875 L 133.207031 71.671875 Z M 133.207031 77.621094 L 152.707031 77.621094 L 152.707031 167.046875 L 133.207031 159.25 Z M 369.046875 368.789062 L 130.03125 368.789062 L 130.03125 339.765625 L 369.046875 339.765625 Z M 369.046875 368.789062 " fill-opacity="1" fill-rule="nonzero"/></g></svg>