<?xml version="1.0" encoding="UTF-8"?>
<svg version="1.1" xmlns="http://www.w3.org/2000/svg" width="1631" height="338">
<path d="M0 0 C10.33015711 0.27516893 10.33015711 0.27516893 13.84716797 3.88696289 C16.45447441 7.63030269 17.85238527 11.75756238 19.22998047 16.07055664 C19.72498047 17.29258789 20.21998047 18.51461914 20.72998047 19.77368164 C22.14627048 23.49144292 23.27253416 27.21489448 24.22998047 31.07055664 C24.39224121 31.72266113 24.55450195 32.37476562 24.72167969 33.04663086 C26.96335545 42.61712894 27.54440826 52.19927304 27.66748047 62.00805664 C27.68979736 62.99902344 27.71211426 63.98999023 27.73510742 65.01098633 C27.6978224 78.01035913 25.17461738 89.94425749 23.22998047 103.07055664 C191.52998047 103.56555664 191.52998047 103.56555664 363.22998047 104.07055664 C364.87998047 95.82055664 366.52998047 87.57055664 368.22998047 79.07055664 C369.55436857 72.73497031 370.87949609 66.40048063 372.22998047 60.07055664 C377.27460864 60.07055664 379.11243619 62.12711115 382.66748047 65.32055664 C383.79070166 66.30547557 384.91439276 67.28985889 386.03857422 68.27368164 C386.57337402 68.75901367 387.10817383 69.2443457 387.65917969 69.74438477 C389.37911341 71.2667777 389.37911341 71.2667777 392.20263672 72.86743164 C392.87166016 73.59446289 393.54068359 74.32149414 394.22998047 75.07055664 C393.18298192 84.49354358 391.18316071 93.79295049 389.22998047 103.07055664 C427.34498047 103.56555664 427.34498047 103.56555664 466.22998047 104.07055664 C470.32767863 68.55717257 469.92181667 45.0323643 452.98779297 14.32446289 C451.22998047 11.07055664 451.22998047 11.07055664 451.22998047 10.07055664 C455.24918471 9.82208006 459.26538869 9.64137928 463.29052734 9.52124023 C464.65687932 9.47114928 466.02270027 9.40304205 467.38720703 9.31616211 C471.82500796 9.0408241 475.90216081 8.99330193 480.22998047 10.07055664 C483.3578234 12.97676354 484.75939667 16.10831272 486.22998047 20.07055664 C486.6544043 21.04629639 486.6544043 21.04629639 487.08740234 22.04174805 C488.83364386 26.24200609 490.01754379 30.69010465 491.22998047 35.07055664 C491.55224609 36.21395508 491.87451172 37.35735352 492.20654297 38.53540039 C494.29965264 47.54359667 494.53697936 56.4654227 494.60498047 65.69555664 C494.61891846 66.87899658 494.63285645 68.06243652 494.6472168 69.28173828 C494.5871595 80.91179387 492.84158906 91.25209367 491.22998047 103.07055664 C819.90998047 103.56555664 819.90998047 103.56555664 1155.22998047 104.07055664 C1157.59741753 70.92643778 1157.81335843 44.94264037 1136.22998047 19.07055664 C1135.79186035 18.54413574 1135.35374023 18.01771484 1134.90234375 17.4753418 C1133.6793635 16.00612969 1132.45479479 14.53824012 1131.22998047 13.07055664 C1135.23149855 12.9212034 1139.23191811 12.81288054 1143.2355957 12.7409668 C1144.59460744 12.71096369 1145.95342828 12.67014479 1147.31176758 12.61791992 C1160.04421228 12.14097928 1160.04421228 12.14097928 1164.40966797 15.73461914 C1165.94213867 17.39428711 1165.94213867 17.39428711 1167.22998047 19.07055664 C1167.96345703 19.99352539 1168.69693359 20.91649414 1169.45263672 21.86743164 C1180.42638694 39.48134919 1184.42518649 59.32812437 1184.54248047 79.88305664 C1184.54812012 80.80111084 1184.55375977 81.71916504 1184.55957031 82.66503906 C1184.48139449 90.09372984 1183.38713963 96.54902209 1182.22998047 104.07055664 C1217.53998047 104.07055664 1252.84998047 104.07055664 1289.22998047 104.07055664 C1288.22998047 112.07055664 1288.22998047 112.07055664 1286.22998047 121.07055664 C1250.58998047 121.07055664 1214.94998047 121.07055664 1178.22998047 121.07055664 C1174.62466001 139.05045161 1174.62466001 139.05045161 1171.22998047 157.07055664 C1171.98021484 156.41829102 1172.73044922 155.76602539 1173.50341797 155.09399414 C1189.31585256 141.51075127 1203.79014837 135.57327819 1224.89257812 136.84301758 C1236.51722755 137.97464211 1245.04685123 144.99056398 1252.40576172 153.57836914 C1261.80960968 166.42559612 1263.23807721 183.01792783 1260.87548828 198.37475586 C1256.19356441 220.51995109 1239.03658056 236.46009405 1221.78076172 249.76196289 C1219.22998047 251.07055664 1219.22998047 251.07055664 1216.91748047 251.13305664 C1212.83891274 249.52059963 1209.47027878 247.05121254 1205.91748047 244.50805664 C1205.17691406 243.98791992 1204.43634766 243.4677832 1203.67333984 242.93188477 C1201.85349863 241.65212546 1200.03943863 240.36493446 1198.22998047 239.07055664 C1200.00028864 235.23118183 1202.17249095 233.07265392 1205.35498047 230.25805664 C1205.84780518 229.81792236 1206.34062988 229.37778809 1206.84838867 228.92431641 C1209.02792534 226.98344874 1211.22965888 225.07083019 1213.45263672 223.17993164 C1227.59524491 211.14606225 1238.1293429 195.64567247 1241.22998047 177.07055664 C1241.72601646 170.15467024 1242.03354715 163.13380684 1238.22998047 157.07055664 C1235.05631859 153.68531731 1231.93575514 151.2268449 1227.24560547 150.79711914 C1207.45571311 150.26336686 1191.58238012 159.9851877 1177.22998047 173.07055664 C1166.74009398 183.12957891 1161.87975584 194.17357396 1159.01904297 208.27368164 C1158.63224869 210.07938629 1158.63224869 210.07938629 1158.23764038 211.92156982 C1157.42802557 215.71816489 1156.64115054 219.51904548 1155.85498047 223.32055664 C1155.30570417 225.91592768 1154.75493639 228.51098354 1154.20263672 231.10571289 C1152.8611723 237.42379031 1151.53827782 243.74553275 1150.22998047 250.07055664 C1146.41448371 249.50103547 1143.81717058 248.4364278 1140.58544922 246.34790039 C1139.74433594 245.8097168 1138.90322266 245.2715332 1138.03662109 244.71704102 C1137.17230469 244.15307617 1136.30798828 243.58911133 1135.41748047 243.00805664 C1134.53382812 242.44022461 1133.65017578 241.87239258 1132.73974609 241.28735352 C1130.56525406 239.8886262 1128.39564797 238.48289326 1126.22998047 237.07055664 C1126.73767317 234.65901633 1127.2453673 232.24747633 1127.75306702 229.8359375 C1128.21617336 227.63615381 1128.67925633 225.43636521 1129.14231873 223.23657227 C1130.4598218 216.97791434 1131.7777579 210.71934806 1133.09643555 204.4609375 C1133.65273386 201.82040748 1134.20896119 199.17986252 1134.76513672 196.53930664 C1134.90602533 195.87041979 1135.04691395 195.20153294 1135.19207191 194.51237679 C1137.21568402 184.90355108 1139.23129099 175.2930748 1141.24153519 165.68144417 C1142.2007028 161.09709806 1143.1618424 156.51316489 1144.12268066 151.9291687 C1144.65272527 149.39757685 1145.18177742 146.86577701 1145.70983887 144.33377075 C1146.44714829 140.79889425 1147.18780494 137.26473454 1147.92919922 133.73071289 C1148.14845566 132.67505127 1148.3677121 131.61938965 1148.59361267 130.53173828 C1148.79547684 129.57267578 1148.997341 128.61361328 1149.20532227 127.62548828 C1149.38008591 126.7892543 1149.55484955 125.95302032 1149.73490906 125.09144592 C1150.22998047 123.07055664 1150.22998047 123.07055664 1151.22998047 121.07055664 C1138.68998047 121.07055664 1126.14998047 121.07055664 1113.22998047 121.07055664 C1112.56998047 125.36055664 1111.90998047 129.65055664 1111.22998047 134.07055664 C1110.38186195 138.23067083 1109.48837046 142.37113293 1108.55419922 146.51196289 C1107.16102822 152.24937912 1107.16102822 152.24937912 1107.22998047 158.07055664 C1108.86245993 160.48142344 1108.86245993 160.48142344 1111.04248047 162.75805664 C1115.69855737 168.26294048 1118.22998047 173.79257277 1118.22998047 181.07055664 C1111.95998047 181.07055664 1105.68998047 181.07055664 1099.22998047 181.07055664 C1099.33310547 178.96680664 1099.43623047 176.86305664 1099.54248047 174.69555664 C1099.50735666 167.74806805 1098.72295712 162.52189758 1094.22998047 157.07055664 C1087.50115408 150.93953921 1078.51304241 151.28444352 1069.92919922 151.65258789 C1054.89236559 152.73204689 1042.3239453 160.31147538 1031.22998047 170.07055664 C1030.46814453 170.73700195 1029.70630859 171.40344727 1028.92138672 172.09008789 C1018.83177893 181.51521545 1009.44729115 195.33647991 1007.99169922 209.36743164 C1007.80544569 215.52360102 1008.63572519 219.99146147 1012.22998047 225.07055664 C1017.19478237 230.1732697 1023.50460291 232.18647404 1030.47216797 232.46899414 C1032.34977186 232.4768722 1034.22750391 232.46879913 1036.10498047 232.44555664 C1037.49910156 232.46295898 1037.49910156 232.46295898 1038.92138672 232.48071289 C1048.13831568 232.44214833 1055.83026562 230.32064608 1063.72998047 225.50805664 C1064.73029297 224.90864258 1065.73060547 224.30922852 1066.76123047 223.69165039 C1069.2759622 222.15987209 1069.2759622 222.15987209 1071.22998047 220.07055664 C1074.30273438 219.84350586 1074.30273438 219.84350586 1078.20654297 219.87524414 C1078.89179047 219.87807404 1079.57703796 219.88090393 1080.28305054 219.88381958 C1082.47387074 219.89502383 1084.66428362 219.92012805 1086.85498047 219.94555664 C1088.33934957 219.95558616 1089.82372507 219.96471206 1091.30810547 219.97290039 C1094.94886308 219.9949637 1098.58938203 220.02949488 1102.22998047 220.07055664 C1095.1637741 234.52092412 1080.55237166 241.90093568 1065.93701172 247.19555664 C1052.16337277 251.64764196 1036.18815069 250.28179131 1023.22998047 244.07055664 C1006.96034644 235.48201338 994.94682952 222.78650645 989.22998047 205.07055664 C986.62277306 194.4244597 988.4704439 184.58590972 993.85498047 175.13305664 C997.49728283 169.384907 1001.76002092 164.19040393 1006.22998047 159.07055664 C1006.77138672 158.44407227 1007.31279297 157.81758789 1007.87060547 157.17211914 C1019.30986171 144.86625257 1036.41315188 134.47501677 1053.40185547 133.73461914 C1055.26104336 133.70520266 1057.12056212 133.69267084 1058.97998047 133.69555664 C1059.94919434 133.69571777 1060.9184082 133.69587891 1061.91699219 133.69604492 C1071.13302069 133.84272321 1077.98766932 135.94940106 1086.22998047 140.07055664 C1087.54998047 134.13055664 1088.86998047 128.19055664 1090.22998047 122.07055664 C1031.48998047 121.74055664 972.74998047 121.41055664 912.22998047 121.07055664 C911.89998047 124.37055664 911.56998047 127.67055664 911.22998047 131.07055664 C910.91176251 132.95199129 910.56729464 134.82975717 910.16748047 136.69555664 C909.99087891 137.53344727 909.81427734 138.37133789 909.63232422 139.23461914 C909.49955078 139.84047852 909.36677734 140.44633789 909.22998047 141.07055664 C909.7887085 140.95462158 910.34743652 140.83868652 910.9230957 140.71923828 C913.5037045 140.18628357 916.08556506 139.65964348 918.66748047 139.13305664 C919.54597656 138.9506543 920.42447266 138.76825195 921.32958984 138.58032227 C938.33758455 135.12851522 958.03903793 133.01772702 973.22998047 143.07055664 C978.78424442 147.66350568 980.78896094 154.05297625 981.55029297 160.98852539 C981.804748 168.08782088 980.89211403 174.74407182 979.58154297 181.69555664 C979.4069606 182.63650681 979.23237823 183.57745697 979.05250549 184.54692078 C976.82801345 196.40145448 974.42360265 208.22018588 971.96606445 220.02832031 C971.42609186 222.63474869 970.89078015 225.24160739 970.36352539 227.85058594 C969.59308142 231.66273195 968.8011744 235.47024323 968.00732422 239.27758789 C967.77287094 240.45021683 967.53841766 241.62284576 967.29685974 242.83100891 C967.06974808 243.90110703 966.84263641 244.97120514 966.60864258 246.07373047 C966.41419052 247.01775223 966.21973846 247.96177399 966.01939392 248.93440247 C965.75888748 249.63933334 965.49838104 250.34426422 965.22998047 251.07055664 C962.22998047 252.07055664 962.22998047 252.07055664 960.34472656 251.3737793 C959.65459473 250.99785645 958.96446289 250.62193359 958.25341797 250.23461914 C957.50060547 249.82985352 956.74779297 249.42508789 955.97216797 249.00805664 C955.19099609 248.57493164 954.40982422 248.14180664 953.60498047 247.69555664 C952.81607422 247.27016602 952.02716797 246.84477539 951.21435547 246.40649414 C945.41965387 243.26023004 945.41965387 243.26023004 944.22998047 242.07055664 C944.18934215 240.40438549 944.18725947 238.73667569 944.22998047 237.07055664 C942.66763672 237.86719727 942.66763672 237.86719727 941.07373047 238.67993164 C926.56722718 245.91352678 914.13491539 249.38000322 897.85498047 249.50805664 C896.21444702 249.52352539 896.21444702 249.52352539 894.54077148 249.53930664 C882.78971324 249.4105769 871.37263906 246.25505371 862.30810547 238.40649414 C856.78242336 232.41577938 854.57168689 225.74936445 854.89404297 217.64086914 C856.1592556 207.96052134 861.4637615 201.74890263 868.22998047 195.07055664 C868.92091797 194.36930664 869.61185547 193.66805664 870.32373047 192.94555664 C887.22349436 176.8024986 910.46668824 170.27431707 933.31982422 170.74633789 C941.72940108 171.13087768 949.10659835 173.55865036 956.22998047 178.07055664 C958.23354995 173.93819459 958.72009317 170.64494185 958.22998047 166.07055664 C956.05927964 162.25012318 953.59260356 160.34518454 949.53833008 158.69018555 C944.41221042 157.31418431 939.06262575 157.58830848 933.79248047 157.63305664 C932.53346924 157.64208008 931.27445801 157.65110352 929.97729492 157.66040039 C920.46604151 157.83702306 912.23527966 158.91220531 903.22998047 162.07055664 C901.81434814 162.55298828 901.81434814 162.55298828 900.37011719 163.04516602 C894.3299087 165.10515947 888.31173901 167.21779497 882.31445312 169.3996582 C880.22998047 170.07055664 880.22998047 170.07055664 878.22998047 170.07055664 C878.42328157 162.00462905 878.42328157 162.00462905 881.60498047 158.32055664 C882.90435547 157.20680664 882.90435547 157.20680664 884.22998047 156.07055664 C886.8500783 152.33648831 887.90046141 148.97837106 888.80029297 144.52758789 C889.05681641 143.28944336 889.31333984 142.05129883 889.57763672 140.77563477 C889.83416016 139.49108398 890.09068359 138.2065332 890.35498047 136.88305664 C890.87438301 134.32621695 891.39950516 131.77063016 891.92529297 129.21508789 C892.1523291 128.08433838 892.37936523 126.95358887 892.61328125 125.78857422 C893.22998047 123.07055664 893.22998047 123.07055664 894.22998047 121.07055664 C882.34998047 121.07055664 870.46998047 121.07055664 858.22998047 121.07055664 C857.89998047 124.37055664 857.56998047 127.67055664 857.22998047 131.07055664 C855.48936828 144.16470744 850.29105753 152.11812273 841.90087891 162.07592773 C839.45558626 164.99498689 837.12889093 168.00179673 834.79248047 171.00805664 C833.89873919 172.14279387 833.00419096 173.27689593 832.10888672 174.41040039 C828.79574955 178.61477726 825.51332544 182.84290053 822.22998047 187.07055664 C818.07791395 192.41549444 813.91691186 197.75288214 809.72998047 203.07055664 C805.60805904 208.30681925 801.5078332 213.55959841 797.41748047 218.82055664 C796.83562988 219.56837402 796.2537793 220.31619141 795.65429688 221.08666992 C792.55046074 225.07780297 789.4540056 229.07443365 786.36669922 233.07836914 C785.73675049 233.89337891 785.10680176 234.70838867 784.45776367 235.5480957 C783.252142 237.10814378 782.048734 238.66990595 780.84790039 240.23364258 C778.14531755 243.72665225 775.47178617 247.05014255 772.22998047 250.07055664 C756.80369458 246.02431772 745.83389049 234.64455046 737.92529297 221.26196289 C730.5784321 207.43158194 730.5785377 192.19340649 734.97216797 177.44555664 C737.87016327 169.66956924 742.86983905 164.09813067 748.59326172 158.21118164 C750.44723446 155.78641538 750.95775579 154.09070973 751.22998047 151.07055664 C749.699464 149.54004018 748.29748697 149.79054835 746.16748047 149.69555664 C736.91858606 149.84166872 730.62507281 157.10476448 724.22998047 163.07055664 C720.06104666 161.45870156 717.38014194 158.40863813 714.41748047 155.19555664 C713.9025 154.66575195 713.38751953 154.13594727 712.85693359 153.59008789 C709.26322603 149.71253998 709.26322603 149.71253998 709.11669922 146.88305664 C710.64514221 144.39464419 712.33091307 143.40204266 714.85498047 141.94555664 C715.69287109 141.44797852 716.53076172 140.95040039 717.39404297 140.43774414 C724.44251956 137.03971824 730.92721067 136.73325764 738.60498047 136.75805664 C739.59498047 136.74194336 740.58498047 136.72583008 741.60498047 136.70922852 C749.49507561 136.70402397 755.90299513 137.87349085 762.54248047 142.25805664 C767.88133022 147.84522498 769.96993309 153.65848884 769.85498047 161.32055664 C769.84567505 162.47793335 769.84567505 162.47793335 769.83618164 163.65869141 C769.52437565 172.40594732 766.81063138 180.31282073 764.05126953 188.54614258 C757.25887339 208.13161253 757.25887339 208.13161253 759.22998047 228.07055664 C763.99239363 227.92624109 766.19339513 225.62244844 769.28857422 222.34008789 C772.75903352 218.28307208 775.88980654 213.98171783 779.04296875 209.67651367 C780.98447556 207.04976916 782.98365012 204.46825591 784.97998047 201.88305664 C788.91013107 196.78913488 792.82401339 191.68304621 796.72998047 186.57055664 C800.55545991 181.56446275 804.38613473 176.5625641 808.22998047 171.57055664 C809.01501953 170.54575195 809.80005859 169.52094727 810.60888672 168.46508789 C812.59380863 165.88150171 814.60961168 163.32386423 816.63232422 160.76977539 C817.8107757 159.26592091 818.9891617 157.76201511 820.16748047 156.25805664 C820.72371094 155.56454102 821.27994141 154.87102539 821.85302734 154.15649414 C822.37832031 153.48231445 822.90361328 152.80813477 823.44482422 152.11352539 C823.91009521 151.52595459 824.37536621 150.93838379 824.85473633 150.33300781 C830.0043261 141.861279 831.13605461 131.49322301 833.22998047 122.07055664 C760.95998047 121.74055664 688.68998047 121.41055664 614.22998047 121.07055664 C612.6830691 131.06483975 612.6830691 131.06483975 611.22998047 141.07055664 C611.7887085 140.95462158 612.34743652 140.83868652 612.9230957 140.71923828 C615.5037045 140.18628357 618.08556506 139.65964348 620.66748047 139.13305664 C621.54597656 138.9506543 622.42447266 138.76825195 623.32958984 138.58032227 C640.38350192 135.1191962 659.97832673 133.06165888 675.22998047 143.07055664 C680.84158339 147.96578472 682.25031077 153.81754965 683.22998047 161.07055664 C683.23607297 163.72150416 683.17944981 166.28298347 683.00927734 168.9206543 C682.96283836 169.6589126 682.91639938 170.39717091 682.86855316 171.15780067 C682.26474473 179.31257055 680.63926578 187.18421782 678.88623047 195.15649414 C678.55270549 196.71662446 678.22024872 198.27698348 677.88879395 199.83755493 C677.02575513 203.88613366 676.14759028 207.93127966 675.26617432 211.97589111 C674.54589802 215.29342554 673.83648751 218.61324049 673.12757111 221.933218 C671.66432822 228.78524738 670.19436012 235.63586373 668.70458984 242.48217773 C668.44335327 243.68554779 668.1821167 244.88891785 667.91296387 246.12875366 C667.22998047 249.07055664 667.22998047 249.07055664 666.22998047 252.07055664 C661.6363723 250.68341244 657.62338545 248.81048919 653.41748047 246.50805664 C652.27666016 245.88801758 651.13583984 245.26797852 649.96044922 244.62915039 C647.22998047 243.07055664 647.22998047 243.07055664 646.22998047 242.07055664 C646.18934215 240.40438549 646.18725947 238.73667569 646.22998047 237.07055664 C645.18841797 237.60165039 644.14685547 238.13274414 643.07373047 238.67993164 C623.44841397 248.46599732 601.53003633 253.48173743 579.72998047 247.50805664 C570.64305554 243.99411688 563.21244472 238.52787603 558.22998047 230.07055664 C555.89567981 223.06765468 556.05640187 214.54519046 559.16748047 207.82055664 C569.52766841 190.20823714 589.06350372 178.6373463 608.35498047 173.13305664 C623.69141884 169.3366596 642.02992531 168.63321355 656.07763672 176.70727539 C656.78791016 177.1571582 657.49818359 177.60704102 658.22998047 178.07055664 C659.83451276 173.35134403 660.95851017 169.84943287 659.22998047 165.07055664 C655.55864229 161.05180283 652.11086889 158.27625999 646.52880859 157.87768555 C630.63037755 157.48568897 616.27202801 157.66607444 601.22998047 163.07055664 C599.94051514 163.52785156 599.94051514 163.52785156 598.625 163.99438477 C594.36707159 165.51699597 590.13151787 167.08511974 585.91357422 168.71508789 C582.22998047 170.07055664 582.22998047 170.07055664 580.22998047 170.07055664 C580.57850594 160.93918935 580.57850594 160.93918935 583.10498047 157.57055664 C584.79504074 156.37757292 586.50871919 155.21806416 588.22998047 154.07055664 C590.53998047 143.18055664 592.84998047 132.29055664 595.22998047 121.07055664 C559.58998047 121.07055664 523.94998047 121.07055664 487.22998047 121.07055664 C486.89998047 124.04055664 486.56998047 127.01055664 486.22998047 130.07055664 C485.86872897 132.04750356 485.4757222 134.01915142 485.03857422 135.98071289 C484.81621094 136.9894043 484.59384766 137.9980957 484.36474609 139.03735352 C484.13464844 140.05893555 483.90455078 141.08051758 483.66748047 142.13305664 C483.43351563 143.18944336 483.19955078 144.24583008 482.95849609 145.33422852 C482.38651735 147.91396937 481.81026774 150.49267439 481.22998047 153.07055664 C482.28314453 152.53946289 483.33630859 152.00836914 484.42138672 151.46118164 C501.95643878 142.78691626 521.90291185 136.4736477 541.47998047 142.50805664 C548.13395042 145.50718041 555.52103818 151.09881177 558.22998047 158.07055664 C560.19682446 166.366197 558.76931458 173.59983637 554.85498047 181.07055664 C548.1229042 191.57717082 536.81973264 196.9263756 525.32373047 200.69555664 C522.29387341 201.23821761 519.30136013 201.09192276 516.22998047 201.07055664 C518.55879585 204.91212321 520.8883336 208.75325054 523.21850586 212.59399414 C524.00906315 213.89726268 524.79943207 215.20064551 525.58959961 216.50415039 C526.3572347 217.77043268 527.12514538 219.03654795 527.89334106 220.30249023 C528.6429868 221.53805385 529.39191542 222.77405285 530.1401062 224.01049805 C532.13761683 227.30418238 534.18374317 230.55834473 536.28076172 233.78930664 C538.22998047 237.07055664 538.22998047 237.07055664 538.22998047 240.07055664 C535.57668766 242.35202968 532.47655735 244.02352971 529.47998047 245.82055664 C528.65498047 246.34004883 527.82998047 246.85954102 526.97998047 247.39477539 C525.78115234 248.12374023 525.78115234 248.12374023 524.55810547 248.86743164 C523.82495117 249.31441406 523.09179688 249.76139648 522.33642578 250.22192383 C520.22998047 251.07055664 520.22998047 251.07055664 518.12158203 250.94604492 C515.6497306 249.80200011 514.97902151 248.62322527 513.63623047 246.26586914 C513.16942871 245.46439453 512.70262695 244.66291992 512.22167969 243.8371582 C511.72941895 242.96542969 511.2371582 242.09370117 510.72998047 241.19555664 C509.66168504 239.35844471 508.59131936 237.52253533 507.51904297 235.68774414 C506.9740918 234.75027344 506.42914062 233.81280273 505.86767578 232.84692383 C503.37053129 228.61354173 500.74635481 224.46497424 498.10498047 220.32055664 C497.11792293 218.76722102 496.13094305 217.21383605 495.14404297 215.66040039 C494.66354492 214.90484863 494.18304687 214.14929688 493.68798828 213.37084961 C491.26780466 209.5525358 488.87330818 205.71824148 486.47998047 201.88305664 C486.04927246 201.19308594 485.61856445 200.50311523 485.17480469 199.79223633 C484.19280066 198.21859012 483.21132424 196.64461468 482.22998047 195.07055664 C483.35006303 192.93362494 484.5042444 190.83020569 485.71435547 188.74243164 C487.27357133 186.07783413 487.27357133 186.07783413 488.55810547 183.21118164 C490.20251387 180.14738915 491.45791572 178.19249546 494.22998047 176.07055664 C499.03499627 175.62041355 503.48543684 176.25939217 508.24804688 176.8840332 C516.60819084 177.67082182 525.43001269 174.86199301 532.22998047 170.07055664 C536.55680902 165.79758902 539.31215552 161.15114691 540.22998047 155.07055664 C539.27603736 151.1680621 538.63587864 150.34115542 535.22998047 148.07055664 C525.16368941 145.98787573 516.88337879 148.80165365 508.22998047 154.07055664 C478.97083589 174.15397452 471.1121789 196.29694379 464.5090332 230.20141602 C463.87420331 233.44667964 463.22314898 236.68834881 462.56982422 239.92993164 C462.3791185 240.93393005 462.18841278 241.93792847 461.9919281 242.97235107 C461.80485794 243.89131165 461.61778778 244.81027222 461.42504883 245.75708008 C461.26612656 246.56836365 461.10720428 247.37964722 460.94346619 248.21551514 C460.7080159 248.82767883 460.47256561 249.43984253 460.22998047 250.07055664 C457.22998047 251.07055664 457.22998047 251.07055664 455.14526367 250.26611328 C454.36497803 249.84193115 453.58469238 249.41774902 452.78076172 248.98071289 C451.93320312 248.52631836 451.08564453 248.07192383 450.21240234 247.60375977 C449.33132813 247.11842773 448.45025391 246.6330957 447.54248047 246.13305664 C446.2034668 245.41085938 446.2034668 245.41085938 444.83740234 244.67407227 C442.62990513 243.48178767 440.42790114 242.2803777 438.22998047 241.07055664 C438.87423945 234.28375547 440.01707506 227.73860659 441.43896484 221.07470703 C441.6618367 220.01346619 441.88470856 218.95222534 442.11433411 217.85882568 C442.8465741 214.37771541 443.58499204 210.89794941 444.32373047 207.41821289 C444.83586763 204.99212288 445.34770399 202.56596936 445.85925293 200.13975525 C446.92918155 195.06980774 448.00205176 190.00049468 449.07714844 184.93164062 C450.45737876 178.42345493 451.83129736 171.91396443 453.20317841 165.40401554 C454.25792523 160.40145692 455.3154368 155.39948606 456.37385559 150.39770317 C456.88175061 147.99638763 457.38890298 145.59491489 457.89530945 143.19328499 C458.60113673 139.84848497 459.31054653 136.50446536 460.02099609 133.16064453 C460.23089676 132.16274399 460.44079742 131.16484344 460.65705872 130.13670349 C460.85051376 129.22981781 461.04396881 128.32293213 461.24328613 127.38856506 C461.49437008 126.20315927 461.49437008 126.20315927 461.75052643 124.99380589 C462.22998047 123.07055664 462.22998047 123.07055664 463.22998047 121.07055664 C437.48998047 121.40055664 411.74998047 121.73055664 385.22998047 122.07055664 C381.31217637 140.18024691 381.31217637 140.18024691 377.40966797 158.29321289 C375.8209733 165.68340373 374.23050922 173.07318199 372.62939453 180.46069336 C371.33839958 186.41786068 370.05543762 192.37670662 368.77798462 198.33679199 C368.2896487 200.60833108 367.79844042 202.87925467 367.30429077 205.14953613 C366.6117086 208.33385843 365.92944864 211.52023263 365.24951172 214.70727539 C364.94093735 216.10882118 364.94093735 216.10882118 364.62612915 217.53868103 C362.97094459 225.38628734 361.9063141 231.86444602 366.22998047 239.07055664 C372.20173515 239.48962714 376.47721482 239.05169681 381.22998047 235.07055664 C390.39915181 225.13179058 394.25202771 211.97501859 397.22998047 199.07055664 C403.12877955 202.10787866 408.73545366 205.58023661 414.29248047 209.19555664 C414.97189697 209.62723145 415.65131348 210.05890625 416.35131836 210.50366211 C418.03301212 211.61277765 419.63948788 212.83420535 421.22998047 214.07055664 C421.22998047 219.13160502 417.35001384 222.29075336 414.22998047 226.07055664 C413.70146484 226.74731445 413.17294922 227.42407227 412.62841797 228.12133789 C402.89957822 240.07870497 389.57664954 247.77117449 374.31201172 249.85180664 C365.56758776 250.47245017 357.65498322 249.99693078 350.22998047 245.07055664 C349.34310547 244.51368164 348.45623047 243.95680664 347.54248047 243.38305664 C342.20214538 238.04272155 339.10595271 231.22180074 338.90991211 223.69775391 C338.99831194 213.92514807 341.29581057 204.54997768 343.35107422 195.03540039 C343.77578373 193.02355672 344.19935327 191.01147209 344.62184143 188.99916077 C345.72942817 183.73923933 346.8527265 178.48279632 347.97937012 173.22692871 C349.12559694 167.86505981 350.25600732 162.49985948 351.38818359 157.13500977 C353.04168765 149.31228078 354.70029564 141.49066934 356.37231445 133.671875 C356.54638321 132.85576248 356.72045197 132.03964996 356.89979553 131.19880676 C357.62668903 127.80695489 358.38853023 124.43635759 359.22998047 121.07055664 C314.34998047 121.07055664 269.46998047 121.07055664 223.22998047 121.07055664 C222.89998047 123.71055664 222.56998047 126.35055664 222.22998047 129.07055664 C221.73419609 131.60470314 221.20535642 134.13255383 220.64770508 136.65380859 C220.32420768 138.12819795 220.00071656 139.60258868 219.67723083 141.07698059 C219.42175382 142.23209609 219.42175382 142.23209609 219.16111565 143.41054726 C218.24661097 147.55820906 217.35259989 151.71031425 216.45458984 155.86157227 C215.31727195 161.11207061 214.17435214 166.36116227 213.01098633 171.60595703 C212.06538914 175.87153846 211.13964198 180.14103979 210.22595406 184.41356468 C209.87857726 186.02103111 209.5243811 187.62704286 209.16254997 189.23131752 C204.284103 210.6645353 204.284103 210.6645353 209.02294922 231.41040039 C211.85420881 235.30452766 214.7258721 238.30439086 219.22998047 240.07055664 C232.53820514 241.4461664 243.39507766 238.80786579 254.07373047 230.65649414 C256.22998047 229.07055664 256.22998047 229.07055664 258.38623047 228.10961914 C260.75050084 226.77721253 261.11428522 225.51086218 262.22998047 223.07055664 C263.43670435 221.61416575 264.66871194 220.17856151 265.91748047 218.75805664 C277.2956896 204.40179638 279.90348217 187.53630411 283.42333984 170.05004883 C284.59214271 164.2526604 285.84841756 158.47444197 287.10498047 152.69555664 C287.30816895 151.7397168 287.51135742 150.78387695 287.72070312 149.79907227 C287.90681152 148.93217773 288.09291992 148.0652832 288.28466797 147.17211914 C288.52419189 146.04797607 288.52419189 146.04797607 288.76855469 144.90112305 C289.22998047 143.07055664 289.22998047 143.07055664 290.22998047 141.07055664 C299.46998047 141.07055664 308.70998047 141.07055664 318.22998047 141.07055664 C317.104964 151.19570485 317.104964 151.19570485 316.28125 155.04293823 C316.09620911 155.9176326 315.91116821 156.79232697 315.72052002 157.69352722 C315.51997009 158.61958267 315.31942017 159.54563812 315.11279297 160.49975586 C314.89967468 161.50086899 314.6865564 162.50198212 314.46697998 163.53343201 C313.76725086 166.81496529 313.06123525 170.09510968 312.35498047 173.37524414 C311.86522366 175.66440766 311.37580825 177.95364425 310.88671875 180.24295044 C309.86386734 185.02623877 308.83811528 189.80889222 307.81005859 194.59106445 C306.4910166 200.7271 305.17736663 206.86427374 303.8656311 213.00187492 C302.85653756 217.72210815 301.84556714 222.44193766 300.83392334 227.16162491 C300.34873477 229.42542946 299.86391099 231.68931222 299.37945557 233.95327377 C298.70379582 237.10847382 298.02584098 240.26317153 297.34716797 243.41772461 C297.14661804 244.35592545 296.94606812 245.29412628 296.73944092 246.26075745 C296.55440002 247.11853287 296.36935913 247.97630829 296.17871094 248.8600769 C296.01869598 249.60517958 295.85868103 250.35028225 295.69381714 251.11796379 C295.22998047 253.07055664 295.22998047 253.07055664 294.22998047 256.07055664 C289.02027029 254.93608112 284.3581388 252.54961053 279.54248047 250.32055664 C278.56730469 249.89000977 277.59212891 249.45946289 276.58740234 249.01586914 C275.66121094 248.58532227 274.73501953 248.15477539 273.78076172 247.71118164 C272.50712769 247.13158691 272.50712769 247.13158691 271.20776367 246.5402832 C269.22998047 245.07055664 269.22998047 245.07055664 268.41821289 242.58129883 C268.21509679 239.87203036 268.55558386 237.69321013 269.22998047 235.07055664 C268.50294922 235.51786133 267.77591797 235.96516602 267.02685547 236.42602539 C249.212254 247.13762551 231.48030865 252.23280121 210.67138672 248.41821289 C207.99765912 247.51403505 205.68965064 246.45027146 203.22998047 245.07055664 C202.30314453 244.59618164 201.37630859 244.12180664 200.42138672 243.63305664 C190.99012883 238.30957865 184.12535041 229.88431876 180.92944336 219.45918274 C178.13471658 205.9198167 180.71677707 192.06381172 183.72998047 178.80883789 C184.04947086 177.33929418 184.3671743 175.86936085 184.68310547 174.39904785 C185.84394902 169.05567941 187.0388642 163.71975844 188.22998047 158.38305664 C190.86998047 146.39993164 193.50998047 134.41680664 196.22998047 122.07055664 C135.83998047 121.57555664 135.83998047 121.57555664 74.22998047 121.07055664 C73.89998047 124.37055664 73.56998047 127.67055664 73.22998047 131.07055664 C72.78060948 133.65863639 72.29005675 136.23995843 71.75537109 138.81176758 C71.6105278 139.51560074 71.46568451 140.2194339 71.31645203 140.94459534 C70.8444617 143.2323872 70.36537932 145.51862941 69.88623047 147.80493164 C69.55327284 149.41284445 69.22080255 151.02085825 68.88879395 152.62896729 C68.01900868 156.83607104 67.1433404 161.04192731 66.26617432 165.24749756 C64.86093855 171.99086968 63.46558738 178.73629714 62.06864929 185.48139191 C61.5821177 187.82699621 61.09358262 190.17217555 60.60461426 192.51727295 C60.3045897 193.9604865 60.00458073 195.40370328 59.70458984 196.84692383 C59.44335327 198.10027527 59.1821167 199.35362671 58.91296387 200.6449585 C56.40295782 213.1892895 56.40295782 213.1892895 60.22998047 225.07055664 C65.84740624 231.01841922 73.22810834 232.25786026 81.10498047 232.50805664 C95.60880374 232.13416646 107.44699211 224.34985147 117.80810547 214.64868164 C128.33614823 203.44141032 132.88739321 191.27875411 135.77294922 176.34790039 C136.0938427 174.74695274 136.0938427 174.74695274 136.42121887 173.11366272 C137.09475697 169.74668191 137.75671218 166.37756452 138.41748047 163.00805664 C139.09099248 159.60685703 139.76694618 156.20616758 140.44587708 152.80604553 C140.86573177 150.70002072 141.28209649 148.59329653 141.69462585 146.48582458 C141.88184708 145.54046341 142.0690683 144.59510223 142.26196289 143.62109375 C142.42532639 142.78823349 142.58868988 141.95537323 142.75700378 141.09727478 C143.22998047 139.07055664 143.22998047 139.07055664 144.22998047 137.07055664 C147.82228026 137.70748923 151.10916288 138.65762384 154.53076172 139.91821289 C155.50722656 140.27592773 156.48369141 140.63364258 157.48974609 141.00219727 C158.49714844 141.37538086 159.50455078 141.74856445 160.54248047 142.13305664 C162.08258789 142.69863281 162.08258789 142.69863281 163.65380859 143.27563477 C166.18041933 144.20401732 168.70573808 145.13575793 171.22998047 146.07055664 C170.58221201 152.91016173 169.4221337 159.50751346 167.99267578 166.22387695 C167.76647552 167.30336609 167.54027527 168.38285522 167.30722046 169.49505615 C166.56172662 173.04716512 165.81006523 176.59793632 165.05810547 180.14868164 C164.53313228 182.64135642 164.00845876 185.13409433 163.48406982 187.62689209 C162.3838358 192.85250112 161.28076842 198.07750015 160.17529297 203.30200195 C158.90956305 209.2840287 157.64872464 215.26706938 156.39069676 221.25072026 C155.16903426 227.06098134 153.94412885 232.87055509 152.71779633 238.67983246 C152.20205533 241.12405995 151.68702447 243.56843741 151.17276764 246.0129776 C148.73033071 257.61428332 146.2580761 269.2083006 143.57666016 280.75708008 C143.38734547 281.59193562 143.19803078 282.42679115 143.00297928 283.28694534 C140.09425226 295.58052508 134.29237845 305.25517462 125.22998047 314.07055664 C124.56611328 314.75504883 123.90224609 315.43954102 123.21826172 316.14477539 C105.49501828 333.32788189 80.04008475 339.47625767 56.10498047 339.44555664 C55.08084045 339.44523941 55.08084045 339.44523941 54.03601074 339.44491577 C34.54497907 339.3847019 15.5538133 335.55820049 0.81201172 321.81665039 C-6.23454701 314.47121641 -10.09719591 306.57451832 -11.14501953 296.44555664 C-10.93372945 287.65263885 -5.45346741 280.97076228 0.59326172 275.04931641 C14.07943309 262.64053438 33.06882227 255.86026955 51.22998047 256.07055664 C53.23676447 259.69184108 55.23424527 263.31817307 57.22998047 266.94555664 C57.80232422 267.9780957 58.37466797 269.01063477 58.96435547 270.07446289 C59.50576172 271.0605957 60.04716797 272.04672852 60.60498047 273.06274414 C61.35908203 274.42955322 61.35908203 274.42955322 62.12841797 275.82397461 C63.22998047 278.07055664 63.22998047 278.07055664 63.22998047 280.07055664 C62.55233643 280.1550708 61.87469238 280.23958496 61.17651367 280.32666016 C49.08915234 281.8828022 37.20823836 283.61731767 25.60498047 287.44555664 C24.77264893 287.71311768 23.94031738 287.98067871 23.08276367 288.25634766 C17.00135211 290.38611422 10.53948653 293.39755196 7.00097656 299.02514648 C5.25751573 303.65045202 6.87285207 308.74580378 8.72998047 313.13305664 C12.52917961 320.01487999 18.8087438 323.85816596 26.04248047 326.50805664 C46.21811688 331.93995875 69.24558159 327.14239969 87.22998047 317.07055664 C91.50515556 314.41159168 95.40785848 311.34248037 99.22998047 308.07055664 C99.91705078 307.4840332 100.60412109 306.89750977 101.31201172 306.29321289 C112.23668642 296.17777335 116.09485247 281.9530203 119.02685547 267.84008789 C119.26535217 266.72365402 119.50384888 265.60722015 119.74957275 264.45695496 C120.5004392 260.933845 121.24038706 257.40854838 121.97998047 253.88305664 C122.49097535 251.47600181 123.00268745 249.06909913 123.51513672 246.66235352 C124.76170828 240.8001531 125.99935383 234.93612384 127.22998047 229.07055664 C126.23740234 229.61325195 125.24482422 230.15594727 124.22216797 230.71508789 C110.37794378 238.08882516 97.91231109 240.59701049 82.16748047 240.50805664 C80.90871094 240.52803711 79.64994141 240.54801758 78.35302734 240.56860352 C64.16653366 240.56127956 51.81691715 236.76202134 41.13232422 227.19165039 C33.07497213 218.72373259 31.77525553 210.01153985 31.9758606 198.72164917 C32.27189058 191.30246777 33.86453988 184.17442457 35.47607422 176.94946289 C35.81142088 175.38702173 36.14529911 173.82426477 36.47779846 172.26121521 C37.34475737 168.20631269 38.23270843 164.15629821 39.12512207 160.10693359 C39.85403987 156.78209721 40.56763189 153.45405593 41.28057766 150.12576389 C42.13257309 146.14928341 42.99068709 142.17413533 43.85107422 138.19946289 C44.01450254 137.44437502 44.17793087 136.68928715 44.34631157 135.91131783 C44.80744183 133.78861714 45.27264909 131.66685867 45.73950195 129.54541016 C46.13588112 127.73702415 46.13588112 127.73702415 46.54026794 125.8921051 C47.22998047 123.07055664 47.22998047 123.07055664 48.22998047 121.07055664 C38.65998047 121.40055664 29.08998047 121.73055664 19.22998047 122.07055664 C18.52389648 125.40987305 17.8178125 128.74918945 17.09033203 132.18969727 C14.7461005 143.27425747 12.39865616 154.35813566 10.04959488 165.44167328 C8.62669744 172.15568767 7.20486623 178.86992438 5.78564453 185.5847168 C4.41372391 192.07569723 3.03870043 198.56601552 1.6618576 205.05595398 C1.13941274 207.52099745 0.61797433 209.98625446 0.09760284 212.45173645 C-2.63316469 225.38661427 -5.41067444 238.2821992 -8.77001953 251.07055664 C-12.30534371 249.90866396 -15.71472028 248.72769936 -19.07470703 247.12524414 C-19.82236328 246.77075195 -20.57001953 246.41625977 -21.34033203 246.05102539 C-22.48115234 245.50381836 -22.48115234 245.50381836 -23.64501953 244.94555664 C-24.42876953 244.57301758 -25.21251953 244.20047852 -26.02001953 243.81665039 C-27.93815452 242.90436667 -29.85429283 241.9878868 -31.77001953 241.07055664 C-31.1998002 235.72020074 -30.56267592 230.39267812 -29.77001953 225.07055664 C-30.47384766 225.76020508 -31.17767578 226.44985352 -31.90283203 227.16040039 C-44.8510533 239.58846994 -58.81173706 249.80448514 -77.42578125 249.60986328 C-91.3627604 248.98626044 -101.23278202 241.02593582 -110.52001953 231.25805664 C-120.01636546 220.27110262 -125.67003806 206.75557107 -125.07470703 192.11743164 C-123.44012687 175.77163006 -111.47286751 161.26196658 -99.16601562 151.12426758 C-85.28370498 140.12878569 -70.34241163 135.42642998 -52.77001953 137.07055664 C-49.28684426 137.86630256 -46.71072618 139.06472253 -43.77001953 141.07055664 C-43.01591797 141.57973633 -42.26181641 142.08891602 -41.48486328 142.61352539 C-33.17892809 148.67311417 -27.42065293 156.28910038 -21.78955078 164.76635742 C-19.76849734 167.93476322 -19.76849734 167.93476322 -16.77001953 170.07055664 C-16.64240234 168.7736792 -16.51478516 167.47680176 -16.38330078 166.140625 C-15.84808792 161.34005386 -14.96825227 156.6697472 -13.95751953 151.94946289 C-13.69684692 150.71050514 -13.69684692 150.71050514 -13.4309082 149.44651794 C-13.06651076 147.71928101 -12.70003348 145.99248163 -12.33154297 144.26611328 C-11.76654396 141.61675922 -11.20922401 138.96587082 -10.65283203 136.31469727 C-10.29650996 134.63035748 -9.93975485 132.94610922 -9.58251953 131.26196289 C-9.41582764 130.46931534 -9.24913574 129.67666779 -9.07739258 128.86000061 C-7.88563276 123.3017831 -7.88563276 123.3017831 -6.77001953 121.07055664 C-64.52001953 121.07055664 -122.27001953 121.07055664 -181.77001953 121.07055664 C-184.24501953 133.44555664 -184.24501953 133.44555664 -186.77001953 146.07055664 C-190.47194306 151.64292575 -193.59529031 156.17562461 -197.95996094 161.01391602 C-201.12730026 164.61273804 -203.98511126 168.45072624 -206.89501953 172.25805664 C-208.06890241 173.76864837 -209.24465176 175.27779171 -210.42236328 176.78540039 C-210.98681152 177.50840332 -211.55125977 178.23140625 -212.1328125 178.97631836 C-216.76967272 184.90757201 -221.4257322 190.82368469 -226.08349609 196.73852539 C-231.60363306 203.75003911 -237.10454471 210.77603865 -242.58251953 217.82055664 C-243.16485352 218.56877686 -243.7471875 219.31699707 -244.34716797 220.08789062 C-247.44093971 224.06529443 -250.52560486 228.04938017 -253.59814453 232.04321289 C-254.22358154 232.85371094 -254.84901855 233.66420898 -255.4934082 234.49926758 C-256.68660206 236.04584196 -257.87703949 237.59454839 -259.06420898 239.14575195 C-262.09147161 243.06364986 -265.17533818 246.66330746 -268.77001953 250.07055664 C-281.74903713 246.66622415 -292.869106 237.56141674 -299.94824219 226.17553711 C-304.27677064 218.61572461 -308.09250254 210.86354892 -308.77001953 202.07055664 C-308.84994141 201.24942383 -308.92986328 200.42829102 -309.01220703 199.58227539 C-309.61585499 187.59808796 -306.18917063 174.57689209 -298.77001953 165.07055664 C-297.00840163 163.13608688 -295.21397649 161.31085052 -293.28564453 159.54321289 C-291.53440611 157.94484695 -291.53440611 157.94484695 -289.77001953 155.07055664 C-290.08219593 152.42423377 -290.08219593 152.42423377 -290.77001953 150.07055664 C-298.7366794 149.31182713 -302.62653167 151.08438075 -308.77001953 156.07055664 C-311.49385826 158.34496198 -314.15985581 160.66664564 -316.77001953 163.07055664 C-320.52697956 161.535178 -322.70534988 159.25807279 -325.39501953 156.25805664 C-326.17103516 155.40598633 -326.94705078 154.55391602 -327.74658203 153.67602539 C-329.68836601 151.17569738 -330.77330699 149.05533558 -331.77001953 146.07055664 C-330.09003484 144.93436446 -328.40060771 143.81212893 -326.70751953 142.69555664 C-325.76779297 142.06907227 -324.82806641 141.44258789 -323.85986328 140.79711914 C-313.34994204 134.92431865 -298.63765718 135.6976251 -287.03173828 137.72290039 C-280.15877487 139.93783881 -276.29677076 143.82346415 -272.66845703 149.92211914 C-266.83116724 163.88085559 -274.19248359 180.93646244 -278.25634766 194.45654297 C-281.87934871 206.48902981 -281.87934871 206.48902981 -283.02001953 218.94555664 C-283.02517578 220.03610352 -283.03033203 221.12665039 -283.03564453 222.25024414 C-282.97556391 225.27599645 -282.97556391 225.27599645 -280.77001953 228.07055664 C-271.45148468 226.45616135 -265.27506819 214.59346299 -260.03173828 207.46899414 C-256.75431911 203.02184634 -253.36589594 198.66770713 -249.95751953 194.32055664 C-244.91840385 187.87939224 -239.97351802 181.37484281 -235.08251953 174.82055664 C-219.13255011 153.45039514 -219.13255011 153.45039514 -214.63720703 148.92211914 C-211.71399709 144.45780271 -211.07675293 139.57161226 -210.08251953 134.38305664 C-209.66397244 132.29540988 -209.24349662 130.20814859 -208.82080078 128.12133789 C-208.5526355 126.73942261 -208.5526355 126.73942261 -208.27905273 125.32958984 C-207.77001953 123.07055664 -207.77001953 123.07055664 -206.77001953 121.07055664 C-251.32001953 121.07055664 -295.87001953 121.07055664 -341.77001953 121.07055664 C-340.77001953 111.07055664 -340.77001953 111.07055664 -338.77001953 104.07055664 C-227.89001953 104.07055664 -117.01001953 104.07055664 -2.77001953 104.07055664 C-2.44001953 101.10055664 -2.11001953 98.13055664 -1.77001953 95.07055664 C-1.51678758 93.20201638 -1.25513315 91.33457624 -0.98095703 89.46899414 C2.97005687 61.46551921 -1.74805874 37.21589284 -15.22998047 12.38476562 C-17.12246644 8.8144293 -18.32884189 6.14089785 -17.77001953 2.07055664 C-14.44934518 -1.25011771 -4.43756761 0.08304993 0 0 Z M-72.77001953 163.07055664 C-73.82318359 163.58875977 -74.87634766 164.10696289 -75.96142578 164.64086914 C-89.65725405 172.03340226 -102.01899422 183.55011615 -107.04345703 198.49243164 C-109.57929903 207.49058068 -109.6516881 215.45022773 -105.77001953 224.07055664 C-102.87353707 228.89802742 -99.01189035 231.28486438 -93.77001953 233.07055664 C-79.01249503 234.73672876 -65.66068824 225.38132117 -54.52001953 216.69555664 C-43.44278146 207.79987497 -31.27197382 196.56482347 -25.77001953 183.07055664 C-25.03704642 175.74082553 -26.72341798 170.84110312 -31.34814453 165.11743164 C-37.05518778 158.99906996 -41.99137647 156.93642287 -50.27001953 156.50805664 C-58.62459616 156.70317414 -65.41696195 159.43172016 -72.77001953 163.07055664 Z M568.22998047 217.07055664 C566.10160782 219.86404575 565.22998047 221.13567889 565.22998047 224.63305664 C566.61516435 228.00944235 568.12518822 229.15483376 571.22998047 231.07055664 C589.39708424 237.67677619 611.40647877 230.89866184 628.20800781 223.15942383 C636.84507069 219.03879388 645.72840433 214.22742998 652.22998047 207.07055664 C653.24386784 204.54409094 653.24386784 204.54409094 653.22998047 202.07055664 C648.16534483 194.91020971 638.46314941 192.66712451 630.22998047 191.07055664 C606.28166717 188.41804437 583.96937474 199.32558859 568.22998047 217.07055664 Z M866.58154297 217.25805664 C864.89070965 219.52553254 863.68754142 221.24893079 863.22998047 224.07055664 C864.55893282 227.55905657 865.87114404 228.84728064 869.04248047 230.82055664 C885.58512866 237.30786966 906.58785251 231.72754543 922.26708984 224.95483398 C933.47108441 219.9074623 943.58645681 213.96025661 952.22998047 205.07055664 C951.3963392 201.42337607 949.9832563 199.57441309 946.97998047 197.50805664 C919.71344786 182.03907225 885.47508096 194.33509112 866.58154297 217.25805664 Z " fill="#FFFFFF" transform="translate(341.77001953125,-1.070556640625)"/>
<path d="M0 0 C7.59 0 15.18 0 23 0 C21.875 10.125 21.875 10.125 21.00657654 14.14442444 C20.71422623 15.51345413 20.71422623 15.51345413 20.41596985 16.91014099 C20.20449814 17.87831253 19.99302643 18.84648407 19.77514648 19.84399414 C19.55066833 20.88894043 19.32619019 21.93388672 19.09490967 23.01049805 C18.35787275 26.43631258 17.61453201 29.86072571 16.87109375 33.28515625 C16.35646661 35.67117533 15.84223595 38.05727996 15.3283844 40.44346619 C13.97934723 46.70287534 12.62494723 52.96111215 11.26940918 59.21911621 C9.88533583 65.61347414 8.50636232 72.00893148 7.12695312 78.40429688 C4.42294555 90.93727602 1.71344167 103.46906018 -1 116 C-4.40461804 116 -5.39710193 115.36209242 -8.23046875 113.59375 C-9.03291016 113.09746094 -9.83535156 112.60117188 -10.66210938 112.08984375 C-11.49548828 111.56519531 -12.32886719 111.04054688 -13.1875 110.5 C-14.03248047 109.97535156 -14.87746094 109.45070313 -15.74804688 108.91015625 C-17.83581837 107.61267114 -19.91880868 106.30799643 -22 105 C-21.45591372 98.32912009 -20.49733978 91.89462124 -19.06640625 85.359375 C-18.8727951 84.45404526 -18.67918396 83.54871552 -18.47970581 82.61595154 C-17.84598391 79.65945557 -17.2044302 76.70472362 -16.5625 73.75 C-16.11751746 71.6840873 -15.67294382 69.61808648 -15.22875977 67.55200195 C-14.30076774 63.24111876 -13.36910922 58.93105059 -12.43457031 54.62158203 C-11.2351353 49.09001347 -10.04301069 43.55690139 -8.85334778 38.02322388 C-7.93764134 33.76610175 -7.01909778 29.50959603 -6.09957886 25.2532959 C-5.65875107 23.21201635 -5.21858414 21.17059397 -4.77908325 19.12902832 C-4.16666481 16.2872391 -3.55066987 13.4462497 -2.93359375 10.60546875 C-2.7517453 9.75875107 -2.56989685 8.91203339 -2.38253784 8.03965759 C-1.11449 2.22898 -1.11449 2.22898 0 0 Z " fill="#FFFFFF" transform="translate(184,135)"/>
<path d="M0 0 C10.38649005 -1.57295402 19.86823734 3.20460103 28.51171875 8.5546875 C34.35976069 13.09090452 34.91193473 18.862888 35.81640625 25.7578125 C36.07074988 27.87953917 36.31931603 30.00196531 36.5625 32.125 C36.81215145 34.25279848 37.06339645 36.38041074 37.31640625 38.5078125 C37.42412354 39.44254395 37.53184082 40.37727539 37.64282227 41.34033203 C37.98971855 43.92344082 38.48486039 46.44618254 39 49 C39.08672771 50.58150525 39.13031501 52.16612743 39.125 53.75 C39.12886719 54.91789062 39.12886719 54.91789062 39.1328125 56.109375 C39 58 39 58 38 59 C35.66702567 59.04092937 33.33294775 59.04241723 31 59 C29.29075276 55.2061812 27.77802533 51.45683095 26.53515625 47.484375 C26.29216797 46.70835938 26.04917969 45.93234375 25.79882812 45.1328125 C25.30386957 43.53108985 24.81700908 41.92684445 24.33789062 40.3203125 C22.92710958 35.82156865 22.92710958 35.82156865 20.1875 32.06640625 C17.49656233 30.75457414 14.82595223 29.97135507 11.9375 29.1875 C6.29255029 27.33557239 6.29255029 27.33557239 3.875 24.5625 C2.53046583 19.08832518 1.70626953 13.58903677 1 8 C0.82984375 6.70255859 0.82984375 6.70255859 0.65625 5.37890625 C0.42631603 3.58733742 0.2110461 1.79389187 0 0 Z " fill="#FFFFFF" transform="translate(186,31)"/>
</svg>
