<svg xmlns="http://www.w3.org/2000/svg" xmlns:xlink="http://www.w3.org/1999/xlink" width="500" zoomAndPan="magnify" viewBox="0 0 375 374.999991" height="500" preserveAspectRatio="xMidYMid meet" version="1.0"><defs><clipPath id="78cfda9bd2"><path d="M 169 230 L 207 230 L 207 262.5 L 169 262.5 Z M 169 230 " clip-rule="nonzero"/></clipPath><clipPath id="f549f91804"><path d="M 154.3125 117 L 221.0625 117 L 221.0625 150 L 154.3125 150 Z M 154.3125 117 " clip-rule="nonzero"/></clipPath><clipPath id="f820a7d591"><path d="M 154.3125 130 L 221.0625 130 L 221.0625 163 L 154.3125 163 Z M 154.3125 130 " clip-rule="nonzero"/></clipPath><clipPath id="e394be58c4"><path d="M 154.3125 143 L 221.0625 143 L 221.0625 176 L 154.3125 176 Z M 154.3125 143 " clip-rule="nonzero"/></clipPath><clipPath id="32106359ec"><path d="M 154.3125 112.5 L 197 112.5 L 197 137 L 154.3125 137 Z M 154.3125 112.5 " clip-rule="nonzero"/></clipPath><clipPath id="f70bbf1940"><path d="M 159 156 L 221.0625 156 L 221.0625 202 L 159 202 Z M 159 156 " clip-rule="nonzero"/></clipPath></defs><path fill="#000000" d="M 170.894531 230.519531 L 204.480469 230.519531 L 212.855469 222.183594 C 214.960938 220.101562 216.117188 217.328125 216.117188 214.367188 L 216.117188 202.25 C 216.117188 201.566406 215.566406 201.019531 214.882812 201.019531 L 160.492188 201.019531 C 159.808594 201.019531 159.257812 201.566406 159.257812 202.25 L 159.257812 214.367188 C 159.257812 217.328125 160.414062 220.101562 162.519531 222.183594 Z M 204.992188 232.980469 L 170.382812 232.980469 C 170.054688 232.980469 169.734375 232.855469 169.511719 232.613281 L 160.761719 223.921875 C 158.203125 221.378906 156.785156 217.980469 156.785156 214.367188 L 156.785156 202.25 C 156.785156 200.214844 158.445312 198.5625 160.492188 198.5625 L 214.882812 198.5625 C 216.929688 198.5625 218.589844 200.214844 218.589844 202.25 L 218.589844 214.367188 C 218.589844 217.980469 217.171875 221.378906 214.613281 223.921875 L 205.863281 232.613281 C 205.640625 232.855469 205.320312 232.980469 204.992188 232.980469 " fill-opacity="1" fill-rule="nonzero"/><g clip-path="url(#78cfda9bd2)"><path fill="#000000" d="M 195.105469 262.480469 L 180.269531 262.480469 C 178.339844 262.480469 176.484375 261.558594 175.328125 260.019531 L 170.382812 253.460938 C 169.582031 252.40625 169.144531 251.101562 169.144531 249.773438 L 169.144531 231.75 C 169.144531 231.066406 169.695312 230.519531 170.382812 230.519531 C 171.066406 230.519531 171.617188 231.066406 171.617188 231.75 L 171.617188 249.773438 C 171.617188 250.570312 171.878906 251.359375 172.363281 251.992188 L 177.304688 258.542969 C 178 259.472656 179.113281 260.019531 180.269531 260.019531 L 195.105469 260.019531 C 196.261719 260.019531 197.375 259.472656 198.070312 258.542969 L 203.011719 251.992188 C 203.496094 251.359375 203.757812 250.570312 203.757812 249.773438 L 203.757812 231.75 C 203.757812 231.066406 204.308594 230.519531 204.992188 230.519531 C 205.679688 230.519531 206.230469 231.066406 206.230469 231.75 L 206.230469 249.773438 C 206.230469 251.101562 205.792969 252.40625 204.992188 253.460938 L 200.046875 260.019531 C 198.890625 261.558594 197.035156 262.480469 195.105469 262.480469 " fill-opacity="1" fill-rule="nonzero"/></g><path fill="#000000" d="M 204.992188 242.8125 L 180.269531 242.8125 C 179.585938 242.8125 179.035156 242.265625 179.035156 241.582031 C 179.035156 240.902344 179.585938 240.355469 180.269531 240.355469 L 204.992188 240.355469 C 205.679688 240.355469 206.230469 240.902344 206.230469 241.582031 C 206.230469 242.265625 205.679688 242.8125 204.992188 242.8125 " fill-opacity="1" fill-rule="nonzero"/><path fill="#000000" d="M 204.722656 252.644531 L 180.269531 252.644531 C 179.585938 252.644531 179.035156 252.097656 179.035156 251.417969 C 179.035156 250.734375 179.585938 250.1875 180.269531 250.1875 L 204.722656 250.1875 C 205.398438 250.1875 205.957031 250.734375 205.957031 251.417969 C 205.957031 252.097656 205.398438 252.644531 204.722656 252.644531 " fill-opacity="1" fill-rule="nonzero"/><g clip-path="url(#f549f91804)"><path fill="#000000" d="M 161.730469 149.394531 C 157.632812 149.394531 154.3125 146.09375 154.3125 142.019531 C 154.3125 138.878906 156.292969 136.105469 159.265625 135.066406 C 159.304688 135.050781 159.34375 135.039062 159.382812 135.019531 L 211.300781 117.8125 C 211.347656 117.800781 211.386719 117.792969 211.433594 117.78125 C 216.425781 116.277344 221.0625 120.019531 221.0625 124.8125 C 221.0625 127.992188 219.023438 130.796875 215.992188 131.804688 L 212.082031 133.101562 C 211.425781 133.3125 210.738281 132.964844 210.515625 132.320312 C 210.304688 131.679688 210.652344 130.976562 211.300781 130.765625 L 215.210938 129.46875 C 217.230469 128.796875 218.589844 126.925781 218.589844 124.8125 C 218.589844 121.59375 215.558594 119.042969 212.070312 120.15625 C 212.03125 120.164062 212.003906 120.175781 211.976562 120.183594 L 160.269531 137.316406 C 160.242188 137.335938 160.203125 137.34375 160.164062 137.363281 C 158.144531 138.035156 156.785156 139.90625 156.785156 142.019531 C 156.785156 145.238281 159.808594 147.78125 163.304688 146.679688 C 163.949219 146.46875 164.644531 146.820312 164.859375 147.476562 C 165.070312 148.117188 164.714844 148.808594 164.054688 149.019531 C 163.265625 149.269531 162.5 149.394531 161.730469 149.394531 " fill-opacity="1" fill-rule="nonzero"/></g><g clip-path="url(#f820a7d591)"><path fill="#000000" d="M 161.730469 162.351562 C 157.632812 162.351562 154.3125 159.035156 154.3125 154.976562 C 154.3125 151.84375 156.292969 149.070312 159.257812 148.023438 C 159.296875 148.003906 159.335938 147.992188 159.382812 147.972656 L 211.300781 130.765625 C 211.347656 130.746094 211.394531 130.738281 211.445312 130.726562 C 216.417969 129.21875 221.0625 132.976562 221.0625 137.765625 C 221.0625 140.945312 219.023438 143.75 215.992188 144.757812 L 212.082031 146.054688 C 211.453125 146.273438 210.738281 145.929688 210.515625 145.285156 C 210.304688 144.640625 210.652344 143.941406 211.300781 143.730469 L 215.210938 142.425781 C 217.230469 141.75 218.589844 139.878906 218.589844 137.765625 C 218.589844 134.550781 215.558594 131.996094 212.070312 133.109375 C 212.03125 133.117188 211.996094 133.128906 211.964844 133.136719 L 160.28125 150.269531 C 160.25 150.289062 160.203125 150.296875 160.164062 150.308594 C 158.144531 150.980469 156.785156 152.851562 156.785156 154.976562 C 156.785156 158.191406 159.769531 160.757812 163.3125 159.632812 C 163.949219 159.421875 164.65625 159.777344 164.859375 160.429688 C 165.070312 161.074219 164.714844 161.765625 164.054688 161.976562 C 163.253906 162.226562 162.492188 162.351562 161.730469 162.351562 " fill-opacity="1" fill-rule="nonzero"/></g><g clip-path="url(#e394be58c4)"><path fill="#000000" d="M 161.730469 175.304688 C 157.632812 175.304688 154.3125 171.992188 154.3125 167.929688 C 154.3125 164.796875 156.292969 162.023438 159.257812 160.976562 C 159.296875 160.957031 159.335938 160.949219 159.382812 160.929688 L 211.300781 143.71875 C 211.347656 143.703125 211.394531 143.691406 211.445312 143.683594 C 216.457031 142.164062 221.0625 145.929688 221.0625 150.722656 C 221.0625 153.898438 219.023438 156.703125 215.992188 157.710938 L 212.082031 159.019531 C 211.433594 159.238281 210.738281 158.882812 210.515625 158.238281 C 210.304688 157.605469 210.652344 156.90625 211.300781 156.683594 L 215.210938 155.378906 C 217.230469 154.707031 218.589844 152.832031 218.589844 150.722656 C 218.589844 147.503906 215.597656 144.941406 212.070312 146.0625 C 212.03125 146.074219 211.996094 146.082031 211.964844 146.09375 L 160.28125 163.222656 C 160.25 163.242188 160.203125 163.253906 160.164062 163.261719 C 158.144531 163.933594 156.785156 165.808594 156.785156 167.929688 C 156.785156 171.144531 159.808594 173.699219 163.304688 172.578125 C 163.949219 172.375 164.644531 172.730469 164.859375 173.375 C 165.070312 174.027344 164.714844 174.71875 164.054688 174.921875 C 163.265625 175.179688 162.5 175.304688 161.730469 175.304688 " fill-opacity="1" fill-rule="nonzero"/></g><g clip-path="url(#32106359ec)"><path fill="#000000" d="M 161.730469 136.441406 C 157.632812 136.441406 154.3125 133.128906 154.3125 129.066406 C 154.3125 125.886719 156.351562 123.074219 159.382812 122.074219 C 187.222656 112.835938 187.300781 112.820312 187.367188 112.800781 C 187.609375 112.75 188.703125 112.519531 189.398438 112.519531 C 193.480469 112.519531 196.8125 115.824219 196.8125 119.894531 C 196.8125 123.046875 194.785156 125.859375 191.773438 126.886719 C 191.125 127.109375 190.421875 126.761719 190.207031 126.117188 C 189.976562 125.484375 190.324219 124.785156 190.972656 124.5625 C 192.988281 123.871094 194.339844 122 194.339844 119.894531 C 194.339844 117.1875 192.121094 114.980469 189.398438 114.980469 C 189.078125 114.980469 188.34375 115.105469 187.929688 115.199219 C 187.601562 115.304688 169.617188 121.269531 160.164062 124.410156 C 158.144531 125.070312 156.785156 126.945312 156.785156 129.066406 C 156.785156 132.285156 159.808594 134.835938 163.304688 133.722656 C 163.949219 133.511719 164.644531 133.867188 164.859375 134.519531 C 165.070312 135.164062 164.714844 135.855469 164.054688 136.066406 C 163.265625 136.316406 162.5 136.441406 161.730469 136.441406 " fill-opacity="1" fill-rule="nonzero"/></g><g clip-path="url(#f70bbf1940)"><path fill="#000000" d="M 180.269531 201.019531 C 179.585938 201.019531 179.035156 200.472656 179.035156 199.792969 L 179.035156 192.542969 C 179.035156 191.148438 178.550781 189.785156 177.683594 188.71875 L 174.667969 184.984375 C 174.1875 184.371094 174.023438 183.554688 174.246094 182.804688 C 174.476562 182.046875 175.066406 181.460938 175.808594 181.21875 C 190.0625 176.609375 215.210938 168.34375 215.210938 168.34375 C 217.230469 167.671875 218.589844 165.796875 218.589844 163.675781 C 218.589844 160.457031 215.558594 157.902344 212.070312 159.019531 C 211.996094 159.046875 211.925781 159.066406 211.847656 159.074219 L 165.207031 174.527344 C 163.101562 175.1875 161.699219 177.082031 161.699219 179.242188 C 161.699219 180.421875 162.144531 181.574219 162.9375 182.496094 L 163.1875 182.765625 C 163.652344 183.265625 163.613281 184.042969 163.101562 184.503906 C 162.597656 184.957031 161.816406 184.925781 161.351562 184.417969 L 161.082031 184.121094 C 159.882812 182.738281 159.226562 181.007812 159.226562 179.242188 C 159.226562 175.996094 161.332031 173.164062 164.453125 172.191406 L 211.300781 156.664062 C 211.386719 156.636719 211.472656 156.617188 211.570312 156.609375 C 216.484375 155.195312 221.0625 158.929688 221.0625 163.675781 C 221.0625 166.855469 219.023438 169.667969 215.992188 170.675781 C 215.992188 170.675781 190.824219 178.945312 176.570312 183.554688 L 179.605469 187.171875 C 180.832031 188.679688 181.507812 190.582031 181.507812 192.542969 L 181.507812 199.792969 C 181.507812 200.472656 180.957031 201.019531 180.269531 201.019531 " fill-opacity="1" fill-rule="nonzero"/></g><path fill="#000000" d="M 167.910156 201.019531 C 167.222656 201.019531 166.671875 200.472656 166.671875 199.792969 L 166.671875 192.964844 C 166.671875 191.320312 166.074219 189.746094 164.984375 188.519531 L 161.082031 184.109375 C 160.628906 183.601562 160.675781 182.824219 161.1875 182.382812 C 161.710938 181.929688 162.480469 181.976562 162.9375 182.488281 L 166.835938 186.886719 C 168.324219 188.566406 169.144531 190.726562 169.144531 192.964844 L 169.144531 199.792969 C 169.144531 200.472656 168.59375 201.019531 167.910156 201.019531 " fill-opacity="1" fill-rule="nonzero"/><path fill="#000000" d="M 195.105469 201.019531 C 194.417969 201.019531 193.867188 200.472656 193.867188 199.792969 L 193.867188 192.542969 C 193.867188 190.582031 194.542969 188.679688 195.78125 187.164062 L 198.753906 183.4375 L 197.277344 183.0625 C 194.253906 182.074219 190.855469 180.960938 187.339844 179.828125 C 186.828125 179.683594 186.441406 179.210938 186.441406 178.644531 C 186.441406 177.972656 186.984375 177.417969 187.660156 177.417969 L 187.6875 177.417969 C 187.8125 177.417969 187.949219 177.4375 188.074219 177.484375 C 191.597656 178.617188 195.015625 179.730469 198.050781 180.71875 L 199.566406 181.21875 C 200.308594 181.46875 200.878906 182.027344 201.121094 182.765625 C 201.351562 183.589844 201.179688 184.398438 200.675781 184.992188 L 197.703125 188.710938 C 196.824219 189.785156 196.339844 191.148438 196.339844 192.542969 L 196.339844 199.792969 C 196.339844 200.472656 195.789062 201.019531 195.105469 201.019531 " fill-opacity="1" fill-rule="nonzero"/><path fill="#000000" d="M 213.105469 184.820312 C 212.804688 184.820312 212.507812 184.714844 212.273438 184.503906 C 211.761719 184.042969 211.722656 183.265625 212.1875 182.765625 L 212.457031 182.46875 C 213.230469 181.574219 213.675781 180.421875 213.675781 179.242188 C 213.675781 177.082031 212.273438 175.1875 210.1875 174.535156 L 206.800781 173.421875 C 206.152344 173.210938 205.804688 172.519531 206.015625 171.875 C 206.230469 171.222656 206.925781 170.878906 207.582031 171.089844 L 210.941406 172.203125 C 214.042969 173.164062 216.148438 175.996094 216.148438 179.242188 C 216.148438 181.007812 215.492188 182.738281 214.3125 184.101562 L 214.023438 184.417969 C 213.769531 184.6875 213.433594 184.820312 213.105469 184.820312 " fill-opacity="1" fill-rule="nonzero"/><path fill="#000000" d="M 207.464844 201.019531 C 206.78125 201.019531 206.230469 200.472656 206.230469 199.792969 L 206.230469 192.964844 C 206.230469 190.726562 207.050781 188.566406 208.539062 186.886719 L 212.4375 182.488281 C 212.890625 181.976562 213.664062 181.929688 214.1875 182.382812 C 214.699219 182.824219 214.746094 183.601562 214.292969 184.109375 L 210.390625 188.519531 C 209.300781 189.746094 208.703125 191.320312 208.703125 192.964844 L 208.703125 199.792969 C 208.703125 200.472656 208.152344 201.019531 207.464844 201.019531 " fill-opacity="1" fill-rule="nonzero"/></svg>