<svg xmlns="http://www.w3.org/2000/svg" xmlns:xlink="http://www.w3.org/1999/xlink" width="500" zoomAndPan="magnify" viewBox="0 0 375 374.999991" height="500" preserveAspectRatio="xMidYMid meet" version="1.0"><defs><clipPath id="dc7788619a"><path d="M 0 1.40625 L 375 1.40625 L 375 373.40625 L 0 373.40625 Z M 0 1.40625 " clip-rule="nonzero"/></clipPath></defs><g clip-path="url(#dc7788619a)"><path fill="#000000" d="M 146.011719 222.015625 C 153.476562 222.015625 159.527344 216.175781 159.796875 208.726562 L 161.761719 154.429688 C 161.898438 150.640625 160.53125 147.0625 157.914062 144.347656 C 155.296875 141.636719 151.765625 140.144531 147.972656 140.144531 L 144.050781 140.144531 C 140.257812 140.144531 136.726562 141.636719 134.109375 144.347656 C 131.492188 147.0625 130.125 150.640625 130.261719 154.429688 L 132.222656 208.722656 C 132.496094 216.179688 138.546875 222.015625 146.011719 222.015625 Z M 142.796875 152.726562 C 143.023438 152.488281 143.425781 152.207031 144.050781 152.207031 L 147.972656 152.207031 C 148.597656 152.207031 149 152.488281 149.226562 152.726562 C 149.453125 152.960938 149.71875 153.371094 149.695312 153.996094 L 147.734375 208.289062 C 147.703125 209.222656 146.945312 209.953125 146.011719 209.953125 C 145.078125 209.953125 144.320312 209.222656 144.285156 208.289062 L 142.324219 153.996094 C 142.304688 153.371094 142.570312 152.960938 142.796875 152.726562 Z M 146.011719 259.625 C 154.820312 259.625 161.988281 252.464844 161.988281 243.65625 C 161.988281 234.851562 154.820312 227.6875 146.011719 227.6875 C 137.203125 227.6875 130.035156 234.851562 130.035156 243.65625 C 130.035156 252.464844 137.203125 259.625 146.011719 259.625 Z M 146.011719 239.753906 C 148.164062 239.753906 149.917969 241.503906 149.917969 243.660156 C 149.917969 245.8125 148.167969 247.5625 146.011719 247.5625 C 143.855469 247.5625 142.105469 245.8125 142.105469 243.660156 C 142.105469 241.503906 143.859375 239.753906 146.011719 239.753906 Z M 331.398438 297.488281 C 329.691406 294.628906 326.964844 292.609375 323.726562 291.792969 C 322.144531 291.394531 320.539062 291.3125 318.972656 291.527344 L 308.183594 273.480469 C 318 264.078125 325.457031 251.976562 329.222656 237.921875 C 334.550781 218.058594 331.816406 197.3125 321.527344 179.503906 C 311.242188 161.695312 294.632812 148.957031 274.761719 143.632812 C 254.890625 138.3125 234.132812 141.042969 216.3125 151.324219 C 211.578125 154.058594 207.203125 157.242188 203.230469 160.808594 L 178.878906 118.65625 L 179.5 118.929688 C 181.78125 119.941406 184.453125 119.445312 186.21875 117.683594 L 197.464844 106.4375 C 199.230469 104.675781 199.726562 102.003906 198.714844 99.726562 L 195.71875 92.988281 C 197.527344 89.636719 198.984375 86.121094 200.078125 82.480469 L 206.957031 79.832031 C 209.285156 78.9375 210.824219 76.699219 210.824219 74.203125 L 210.824219 58.304688 C 210.824219 55.808594 209.285156 53.570312 206.957031 52.675781 L 200.078125 50.03125 C 198.988281 46.386719 197.527344 42.871094 195.71875 39.519531 L 198.714844 32.785156 C 199.726562 30.503906 199.230469 27.835938 197.464844 26.070312 L 186.214844 14.828125 C 184.449219 13.0625 181.78125 12.566406 179.5 13.582031 L 172.757812 16.574219 C 169.40625 14.765625 165.886719 13.308594 162.246094 12.21875 L 159.597656 5.339844 C 158.699219 3.011719 156.460938 1.476562 153.964844 1.476562 L 138.054688 1.476562 C 135.558594 1.476562 133.320312 3.011719 132.421875 5.339844 L 129.777344 12.21875 C 126.132812 13.308594 122.617188 14.765625 119.265625 16.574219 L 112.523438 13.582031 C 110.238281 12.566406 107.570312 13.0625 105.804688 14.828125 L 94.554688 26.074219 C 92.789062 27.835938 92.292969 30.503906 93.308594 32.785156 L 96.300781 39.523438 C 94.492188 42.875 93.035156 46.390625 91.941406 50.03125 L 85.066406 52.679688 C 82.734375 53.574219 81.199219 55.8125 81.199219 58.308594 L 81.199219 74.207031 C 81.199219 76.703125 82.734375 78.941406 85.066406 79.835938 L 91.941406 82.484375 C 93.035156 86.125 94.492188 89.644531 96.300781 92.992188 L 93.308594 99.726562 C 92.292969 102.007812 92.789062 104.675781 94.554688 106.441406 L 105.804688 117.6875 C 107.570312 119.449219 110.238281 119.945312 112.523438 118.933594 L 113.144531 118.660156 L 66.464844 199.464844 L 57.804688 195.753906 C 56.285156 195.101562 54.566406 195.101562 53.046875 195.753906 L 3.65625 216.910156 C 1.4375 217.859375 0 220.042969 0 222.453125 L 0 262.371094 C 0 293.773438 22.363281 319.601562 54.390625 325.179688 C 54.730469 325.238281 55.078125 325.269531 55.425781 325.269531 C 55.773438 325.269531 56.117188 325.238281 56.460938 325.179688 C 81.820312 320.761719 101.113281 303.640625 108.046875 281.113281 L 210.71875 281.113281 C 217.867188 286.113281 225.988281 289.972656 234.890625 292.359375 C 241.542969 294.140625 248.222656 294.988281 254.804688 294.988281 C 264.558594 294.988281 274.078125 293.113281 282.917969 289.636719 L 293.238281 306.898438 C 292.3125 308.171875 291.621094 309.625 291.222656 311.207031 C 290.40625 314.445312 290.898438 317.800781 292.605469 320.65625 L 320.472656 367.261719 C 322.808594 371.167969 326.960938 373.335938 331.210938 373.335938 C 333.390625 373.335938 335.597656 372.769531 337.597656 371.574219 L 354.945312 361.210938 C 360.855469 357.679688 362.792969 350.003906 359.261719 344.09375 Z M 111.410156 106.226562 L 106.019531 100.835938 L 108.578125 95.085938 C 109.386719 93.269531 109.246094 91.167969 108.199219 89.476562 C 105.734375 85.46875 103.929688 81.125 102.84375 76.554688 C 102.382812 74.621094 100.996094 73.039062 99.140625 72.324219 L 93.269531 70.0625 L 93.269531 62.445312 L 99.140625 60.1875 C 100.996094 59.472656 102.382812 57.890625 102.84375 55.953125 C 103.929688 51.390625 105.734375 47.042969 108.203125 43.039062 C 109.246094 41.34375 109.386719 39.246094 108.578125 37.425781 L 106.019531 31.671875 L 111.410156 26.285156 L 117.167969 28.84375 C 118.988281 29.648438 121.089844 29.511719 122.78125 28.464844 C 126.792969 26 131.140625 24.195312 135.703125 23.109375 C 137.640625 22.648438 139.226562 21.265625 139.941406 19.410156 L 142.199219 13.539062 L 149.820312 13.539062 L 152.082031 19.410156 C 152.796875 21.265625 154.382812 22.648438 156.316406 23.109375 C 160.882812 24.195312 165.230469 26 169.238281 28.464844 C 170.933594 29.507812 173.035156 29.648438 174.851562 28.84375 L 180.609375 26.285156 L 186 31.671875 L 183.445312 37.425781 C 182.636719 39.242188 182.777344 41.34375 183.820312 43.039062 C 186.289062 47.042969 188.09375 51.390625 189.179688 55.957031 C 189.640625 57.890625 191.027344 59.476562 192.882812 60.1875 L 198.753906 62.449219 L 198.753906 70.066406 L 192.882812 72.328125 C 191.023438 73.039062 189.636719 74.625 189.179688 76.558594 C 188.09375 81.121094 186.289062 85.464844 183.820312 89.472656 C 182.777344 91.167969 182.636719 93.265625 183.445312 95.085938 L 186 100.839844 L 180.609375 106.226562 L 174.855469 103.671875 C 173.039062 102.867188 170.9375 103.003906 169.242188 104.050781 C 165.234375 106.515625 160.886719 108.316406 156.316406 109.40625 C 154.382812 109.867188 152.796875 111.25 152.082031 113.105469 L 149.824219 118.972656 L 142.199219 118.972656 L 139.941406 113.105469 C 139.226562 111.246094 137.640625 109.863281 135.703125 109.402344 C 131.140625 108.316406 126.792969 106.515625 122.78125 104.046875 C 121.085938 103.003906 118.988281 102.867188 117.167969 103.671875 Z M 98.785156 262.371094 C 98.785156 287.464844 81.011719 308.1875 55.425781 313.105469 C 29.84375 308.1875 12.070312 287.464844 12.070312 262.371094 L 12.070312 226.433594 L 55.425781 207.859375 L 98.785156 226.433594 Z M 107.195312 216.910156 L 77.640625 204.25 L 125.566406 121.277344 C 125.957031 120.601562 126.390625 119.953125 126.839844 119.320312 C 127.8125 119.671875 128.789062 120 129.777344 120.296875 L 132.425781 127.171875 C 133.320312 129.5 135.558594 131.035156 138.058594 131.035156 L 153.96875 131.035156 C 156.464844 131.035156 158.703125 129.5 159.597656 127.171875 L 162.246094 120.296875 C 163.234375 120 164.214844 119.671875 165.183594 119.320312 C 165.636719 119.953125 166.066406 120.601562 166.457031 121.277344 L 194.582031 169.96875 C 188.050781 178.148438 183.21875 187.660156 180.425781 198.074219 C 173.492188 223.949219 180.667969 250.335938 197.214844 269.050781 L 110.496094 269.050781 C 110.726562 266.855469 110.851562 264.628906 110.851562 262.371094 L 110.851562 222.457031 C 110.855469 220.042969 109.414062 217.859375 107.195312 216.910156 Z M 238.015625 280.703125 C 203.417969 271.441406 182.816406 235.769531 192.085938 201.195312 C 196.574219 184.445312 207.324219 170.445312 222.347656 161.773438 C 232.359375 155.996094 243.464844 153.046875 254.71875 153.046875 C 260.359375 153.046875 266.042969 153.789062 271.636719 155.289062 C 288.394531 159.773438 302.402344 170.515625 311.074219 185.535156 C 319.75 200.554688 322.054688 218.046875 317.566406 234.796875 C 308.296875 269.375 272.605469 289.96875 238.015625 280.703125 Z M 298.738281 281.199219 L 308.101562 296.859375 L 303.089844 299.851562 L 293.8125 284.339844 C 295.492188 283.355469 297.136719 282.308594 298.738281 281.199219 Z M 348.757812 350.855469 L 331.40625 361.214844 C 331.222656 361.328125 330.941406 361.257812 330.832031 361.074219 L 302.96875 314.464844 C 302.914062 314.375 302.898438 314.269531 302.929688 314.152344 C 302.957031 314.035156 303.019531 313.945312 303.113281 313.890625 L 320.460938 303.53125 C 320.523438 303.492188 320.589844 303.476562 320.660156 303.476562 C 320.699219 303.476562 320.738281 303.480469 320.777344 303.492188 C 320.894531 303.519531 320.980469 303.582031 321.035156 303.675781 L 348.898438 350.28125 C 349.011719 350.464844 348.941406 350.742188 348.757812 350.855469 Z M 304.195312 189.507812 C 296.582031 176.324219 284.289062 166.898438 269.578125 162.957031 C 254.871094 159.019531 239.507812 161.039062 226.320312 168.652344 C 213.132812 176.261719 203.699219 188.546875 199.757812 203.25 C 195.816406 217.949219 197.839844 233.304688 205.453125 246.488281 C 213.066406 259.667969 225.363281 269.09375 240.070312 273.035156 C 244.984375 274.351562 249.964844 275 254.917969 275 C 264.796875 275 274.546875 272.410156 283.328125 267.34375 C 296.515625 259.734375 305.949219 247.445312 309.890625 232.742188 C 313.832031 218.042969 311.808594 202.6875 304.195312 189.507812 Z M 298.234375 229.621094 C 295.125 241.210938 287.691406 250.894531 277.292969 256.894531 C 266.898438 262.894531 254.789062 264.488281 243.195312 261.382812 C 231.601562 258.277344 221.910156 250.84375 215.90625 240.453125 C 209.90625 230.0625 208.3125 217.960938 211.417969 206.371094 C 214.523438 194.78125 221.960938 185.097656 232.355469 179.097656 C 239.28125 175.101562 246.964844 173.0625 254.75 173.0625 C 258.65625 173.0625 262.585938 173.574219 266.457031 174.609375 C 278.050781 177.714844 287.742188 185.148438 293.742188 195.539062 C 299.746094 205.929688 301.339844 218.03125 298.234375 229.621094 Z M 146.011719 100.019531 C 164.636719 100.019531 179.792969 84.871094 179.792969 66.253906 C 179.792969 47.640625 164.636719 32.492188 146.011719 32.492188 C 127.386719 32.492188 112.230469 47.640625 112.230469 66.253906 C 112.230469 84.871094 127.386719 100.019531 146.011719 100.019531 Z M 146.011719 44.554688 C 157.984375 44.554688 167.722656 54.289062 167.722656 66.253906 C 167.722656 78.222656 157.984375 87.953125 146.011719 87.953125 C 134.039062 87.953125 124.300781 78.222656 124.300781 66.253906 C 124.300781 54.289062 134.039062 44.554688 146.011719 44.554688 Z M 17.941406 178.9375 C 20.988281 152.140625 30.195312 126.703125 44.828125 104.304688 L 43.417969 104.863281 C 40.320312 106.09375 36.8125 104.578125 35.585938 101.480469 C 34.355469 98.382812 35.871094 94.878906 38.96875 93.648438 L 60.140625 85.257812 C 62.035156 84.503906 64.1875 84.761719 65.851562 85.941406 C 67.515625 87.121094 68.476562 89.0625 68.394531 91.101562 L 67.496094 113.847656 C 67.371094 117.097656 64.695312 119.644531 61.472656 119.644531 C 61.390625 119.644531 61.3125 119.640625 61.230469 119.636719 C 57.898438 119.507812 55.304688 116.703125 55.4375 113.375 L 55.570312 109.9375 C 41.59375 131 32.808594 155 29.933594 180.300781 C 29.585938 183.378906 26.972656 185.652344 23.945312 185.652344 C 23.71875 185.652344 23.488281 185.640625 23.257812 185.613281 C 19.945312 185.234375 17.566406 182.25 17.941406 178.9375 Z M 279.382812 339.671875 C 281.066406 342.546875 280.105469 346.242188 277.230469 347.929688 C 250.828125 363.402344 220.609375 371.582031 189.835938 371.582031 C 164.175781 371.582031 139.046875 365.933594 116.109375 355.128906 L 117.1875 357.105469 C 118.777344 360.035156 117.695312 363.695312 114.769531 365.289062 C 113.851562 365.785156 112.863281 366.023438 111.890625 366.023438 C 109.75 366.023438 107.679688 364.882812 106.585938 362.871094 L 95.699219 342.878906 C 94.726562 341.085938 94.722656 338.921875 95.691406 337.125 C 96.664062 335.332031 98.476562 334.148438 100.511719 333.980469 L 123.210938 332.132812 C 126.527344 331.863281 129.445312 334.335938 129.714844 337.65625 C 129.988281 340.976562 127.511719 343.886719 124.191406 344.15625 L 121.578125 344.371094 C 142.824219 354.320312 166.085938 359.515625 189.835938 359.515625 C 218.464844 359.515625 246.574219 351.910156 271.125 337.519531 C 274 335.835938 277.695312 336.800781 279.382812 339.671875 Z M 373.371094 181.914062 L 362.042969 201.660156 C 361.027344 203.433594 359.183594 204.570312 357.144531 204.683594 C 357.03125 204.691406 356.917969 204.695312 356.804688 204.695312 C 354.890625 204.695312 353.082031 203.785156 351.941406 202.230469 L 338.464844 183.882812 C 336.492188 181.195312 337.070312 177.421875 339.757812 175.449219 C 342.449219 173.480469 346.222656 174.058594 348.195312 176.742188 L 349.539062 178.574219 C 341.339844 111.847656 292.714844 57.046875 225.683594 41.808594 C 222.433594 41.070312 220.398438 37.839844 221.140625 34.589844 C 221.878906 31.34375 225.109375 29.308594 228.363281 30.046875 C 265.96875 38.597656 300.101562 59.914062 324.476562 90.070312 C 344.90625 115.339844 357.746094 146.042969 361.605469 178.171875 L 362.898438 175.914062 C 364.554688 173.023438 368.242188 172.023438 371.136719 173.683594 C 374.027344 175.335938 375.027344 179.023438 373.371094 181.914062 Z M 48.527344 263.882812 L 70.601562 243.859375 C 73.070312 241.621094 76.890625 241.804688 79.128906 244.273438 C 81.367188 246.738281 81.183594 250.554688 78.714844 252.792969 L 52.382812 276.675781 C 51.230469 277.722656 49.777344 278.242188 48.328125 278.242188 C 46.78125 278.242188 45.234375 277.648438 44.058594 276.476562 L 31.925781 264.347656 C 29.570312 261.992188 29.570312 258.175781 31.925781 255.816406 C 34.285156 253.464844 38.105469 253.464844 40.460938 255.816406 Z M 48.527344 263.882812 " fill-opacity="1" fill-rule="nonzero"/></g></svg>