<svg xmlns="http://www.w3.org/2000/svg" xmlns:xlink="http://www.w3.org/1999/xlink" width="500" zoomAndPan="magnify" viewBox="0 0 375 374.999991" height="500" preserveAspectRatio="xMidYMid meet" version="1.0"><defs><clipPath id="5a2f5b4910"><path d="M 21.199219 227 L 266 227 L 266 359.335938 L 21.199219 359.335938 Z M 21.199219 227 " clip-rule="nonzero"/></clipPath><clipPath id="e9f33fd80f"><path d="M 163 278 L 215 278 L 215 359.335938 L 163 359.335938 Z M 163 278 " clip-rule="nonzero"/></clipPath><clipPath id="e3965b5fef"><path d="M 21.199219 169 L 73 169 L 73 299 L 21.199219 299 Z M 21.199219 169 " clip-rule="nonzero"/></clipPath><clipPath id="e9d1d0d6af"><path d="M 98 15.835938 L 281 15.835938 L 281 31 L 98 31 Z M 98 15.835938 " clip-rule="nonzero"/></clipPath><clipPath id="e807e7c1c5"><path d="M 280 337 L 353.449219 337 L 353.449219 359.335938 L 280 359.335938 Z M 280 337 " clip-rule="nonzero"/></clipPath><clipPath id="4d0ab79d98"><path d="M 338 125 L 353.449219 125 L 353.449219 323 L 338 323 Z M 338 125 " clip-rule="nonzero"/></clipPath></defs><g clip-path="url(#5a2f5b4910)"><path fill="#000000" d="M 112.722656 227.761719 L 112.722656 341.851562 L 54.371094 341.851562 L 54.371094 298.152344 C 49.703125 299.527344 44.664062 299.585938 39.785156 298.152344 L 39.785156 341.851562 L 21.171875 341.851562 L 21.171875 359.234375 L 112.722656 359.234375 L 112.722656 359.25 L 149.191406 359.25 L 149.191406 304.464844 C 149.191406 282.308594 167.183594 264.285156 189.304688 264.285156 C 211.425781 264.285156 229.421875 282.308594 229.421875 304.464844 L 229.421875 359.25 L 265.886719 359.25 L 265.886719 227.761719 C 246.90625 227.761719 128.035156 227.761719 112.722656 227.761719 Z M 112.722656 227.761719 " fill-opacity="1" fill-rule="nonzero"/></g><path fill="#000000" d="M 171.070312 169.324219 L 112.722656 169.324219 L 112.722656 213.152344 L 134.601562 213.152344 L 134.601562 191.238281 C 134.601562 187.203125 137.867188 183.933594 141.894531 183.933594 L 171.070312 183.933594 C 175.097656 183.933594 178.363281 187.203125 178.363281 191.238281 L 178.363281 213.152344 L 200.246094 213.152344 L 200.246094 191.238281 C 200.246094 187.203125 203.511719 183.933594 207.539062 183.933594 L 236.714844 183.933594 C 240.742188 183.933594 244.007812 187.203125 244.007812 191.238281 L 244.007812 213.152344 L 265.886719 213.152344 L 265.886719 169.324219 C 242.796875 169.324219 186.519531 169.324219 171.070312 169.324219 Z M 171.070312 169.324219 " fill-opacity="1" fill-rule="nonzero"/><path fill="#000000" d="M 149.191406 140.105469 L 163.777344 140.105469 L 163.777344 154.714844 L 149.191406 154.714844 Z M 149.191406 140.105469 " fill-opacity="1" fill-rule="nonzero"/><path fill="#000000" d="M 214.832031 198.542969 L 229.421875 198.542969 L 229.421875 213.152344 L 214.832031 213.152344 Z M 214.832031 198.542969 " fill-opacity="1" fill-rule="nonzero"/><path fill="#000000" d="M 149.191406 198.542969 L 163.777344 198.542969 L 163.777344 213.152344 L 149.191406 213.152344 Z M 149.191406 198.542969 " fill-opacity="1" fill-rule="nonzero"/><g clip-path="url(#e9f33fd80f)"><path fill="#000000" d="M 189.304688 278.898438 C 175.230469 278.898438 163.777344 290.367188 163.777344 304.464844 L 163.777344 359.25 L 214.832031 359.25 L 214.832031 304.464844 C 214.832031 290.367188 203.378906 278.898438 189.304688 278.898438 Z M 189.304688 278.898438 " fill-opacity="1" fill-rule="nonzero"/></g><g clip-path="url(#e3965b5fef)"><path fill="#000000" d="M 47.078125 245.292969 C 51.105469 245.292969 54.371094 248.566406 54.371094 252.597656 L 54.371094 298.148438 C 65.117188 294.988281 72.984375 285.027344 72.984375 273.257812 L 72.984375 195.417969 C 72.984375 181.109375 61.363281 169.46875 47.078125 169.46875 C 32.792969 169.46875 21.171875 181.109375 21.171875 195.417969 L 21.171875 273.257812 C 21.171875 285.027344 29.039062 294.988281 39.785156 298.148438 L 39.785156 252.597656 C 39.785156 248.566406 43.050781 245.292969 47.078125 245.292969 Z M 47.078125 245.292969 " fill-opacity="1" fill-rule="nonzero"/></g><path fill="#000000" d="M 309.648438 125.496094 L 324.238281 125.496094 L 324.238281 322.726562 L 309.648438 322.726562 Z M 309.648438 125.496094 " fill-opacity="1" fill-rule="nonzero"/><path fill="#000000" d="M 280.476562 125.496094 L 295.0625 125.496094 L 295.0625 322.726562 L 280.476562 322.726562 Z M 280.476562 125.496094 " fill-opacity="1" fill-rule="nonzero"/><g clip-path="url(#e9d1d0d6af)"><path fill="#000000" d="M 280.476562 15.921875 L 98.132812 15.921875 L 98.132812 30.53125 C 117.609375 30.53125 250.378906 30.53125 280.476562 30.53125 Z M 280.476562 15.921875 " fill-opacity="1" fill-rule="nonzero"/></g><g clip-path="url(#e807e7c1c5)"><path fill="#000000" d="M 280.476562 337.335938 L 353.414062 337.335938 L 353.414062 359.25 L 280.476562 359.25 Z M 280.476562 337.335938 " fill-opacity="1" fill-rule="nonzero"/></g><path fill="#000000" d="M 214.832031 140.105469 L 229.421875 140.105469 L 229.421875 154.714844 L 214.832031 154.714844 Z M 214.832031 140.105469 " fill-opacity="1" fill-rule="nonzero"/><path fill="#000000" d="M 112.722656 96.273438 L 134.601562 96.273438 L 134.601562 74.359375 C 134.601562 70.328125 137.867188 67.054688 141.894531 67.054688 L 171.070312 67.054688 C 175.097656 67.054688 178.363281 70.328125 178.363281 74.359375 L 178.363281 96.273438 L 200.246094 96.273438 L 200.246094 74.359375 C 200.246094 70.328125 203.511719 67.054688 207.539062 67.054688 L 236.714844 67.054688 C 240.742188 67.054688 244.007812 70.328125 244.007812 74.359375 L 244.007812 96.273438 L 265.886719 96.273438 L 265.886719 45.140625 L 112.722656 45.140625 Z M 112.722656 96.273438 " fill-opacity="1" fill-rule="nonzero"/><g clip-path="url(#4d0ab79d98)"><path fill="#000000" d="M 338.824219 125.496094 L 353.414062 125.496094 L 353.414062 322.726562 L 338.824219 322.726562 Z M 338.824219 125.496094 " fill-opacity="1" fill-rule="nonzero"/></g><path fill="#000000" d="M 112.722656 110.886719 L 112.722656 154.714844 L 134.601562 154.714844 L 134.601562 132.800781 C 134.601562 128.765625 137.867188 125.496094 141.894531 125.496094 L 171.070312 125.496094 C 175.097656 125.496094 178.363281 128.765625 178.363281 132.800781 L 178.363281 154.714844 L 200.246094 154.714844 L 200.246094 132.800781 C 200.246094 128.765625 203.511719 125.496094 207.539062 125.496094 L 236.714844 125.496094 C 240.742188 125.496094 244.007812 128.765625 244.007812 132.800781 L 244.007812 154.714844 L 265.886719 154.714844 C 265.886719 138.304688 265.886719 126.78125 265.886719 110.886719 C 233.777344 110.886719 145.3125 110.886719 112.722656 110.886719 Z M 112.722656 110.886719 " fill-opacity="1" fill-rule="nonzero"/><path fill="#000000" d="M 214.832031 81.664062 L 229.421875 81.664062 L 229.421875 96.273438 L 214.832031 96.273438 Z M 214.832031 81.664062 " fill-opacity="1" fill-rule="nonzero"/><path fill="#000000" d="M 149.191406 81.664062 L 163.777344 81.664062 L 163.777344 96.273438 L 149.191406 96.273438 Z M 149.191406 81.664062 " fill-opacity="1" fill-rule="nonzero"/></svg>