<svg xmlns="http://www.w3.org/2000/svg" xmlns:xlink="http://www.w3.org/1999/xlink" width="500" zoomAndPan="magnify" viewBox="0 0 375 374.999991" height="500" preserveAspectRatio="xMidYMid meet" version="1.0"><defs><clipPath id="12442833f7"><path d="M 38 159 L 262 159 L 262 341.507812 L 38 341.507812 Z M 38 159 " clip-rule="nonzero"/></clipPath><clipPath id="d3de4f21de"><path d="M 246 33.257812 L 253 33.257812 L 253 69 L 246 69 Z M 246 33.257812 " clip-rule="nonzero"/></clipPath><clipPath id="21b0148672"><path d="M 303 119 L 337.5 119 L 337.5 125 L 303 125 Z M 303 119 " clip-rule="nonzero"/></clipPath></defs><g clip-path="url(#12442833f7)"><path fill="#000000" d="M 208.472656 170.972656 C 205.429688 164.328125 197.320312 159.125 190.007812 159.125 L 150.335938 159.125 C 150.335938 159.125 150.335938 159.125 150.332031 159.125 L 49.605469 159.125 C 45.777344 159.125 42.390625 160.6875 40.3125 163.410156 C 38.234375 166.132812 37.625 169.816406 38.636719 173.503906 L 69.269531 285.007812 C 71.253906 292.234375 78.6875 297.898438 86.1875 297.898438 L 123.863281 297.898438 L 123.863281 317.324219 L 112.519531 317.324219 C 110.96875 317.324219 109.710938 318.582031 109.710938 320.128906 L 109.710938 338.40625 C 109.710938 339.957031 110.96875 341.214844 112.519531 341.214844 L 192.214844 341.214844 C 193.765625 341.214844 195.023438 339.957031 195.023438 338.40625 L 195.023438 320.128906 C 195.023438 318.582031 193.765625 317.324219 192.214844 317.324219 L 180.867188 317.324219 L 180.867188 297.898438 L 204.289062 297.898438 C 204.292969 297.898438 204.292969 297.898438 204.296875 297.898438 C 204.300781 297.898438 204.300781 297.898438 204.304688 297.898438 L 250.972656 297.898438 C 254.894531 297.898438 258.144531 296.335938 259.898438 293.609375 C 261.652344 290.882812 261.71875 287.277344 260.085938 283.714844 Z M 178.058594 292.285156 L 136.671875 292.285156 L 124.148438 253.21875 L 184.285156 253.21875 L 200.128906 292.285156 Z M 122.351562 247.605469 L 108.746094 205.148438 L 164.789062 205.148438 L 182.007812 247.605469 Z M 53.15625 205.148438 L 102.84375 205.148438 L 116.453125 247.605469 L 64.820312 247.605469 Z M 148.398438 164.738281 L 162.511719 199.53125 L 106.945312 199.53125 L 95.796875 164.738281 Z M 170.851562 205.148438 L 217.945312 205.148438 L 237.382812 247.605469 L 188.066406 247.605469 Z M 203.363281 173.308594 L 215.371094 199.535156 L 168.574219 199.535156 L 154.460938 164.738281 L 190.003906 164.738281 C 195.121094 164.738281 201.234375 168.660156 203.363281 173.308594 Z M 44.78125 166.8125 C 45.804688 165.476562 47.515625 164.738281 49.609375 164.738281 L 89.894531 164.738281 L 101.046875 199.535156 L 51.613281 199.535156 L 44.054688 172.015625 C 43.503906 170 43.757812 168.152344 44.78125 166.8125 Z M 74.6875 283.523438 L 66.363281 253.21875 L 118.253906 253.21875 L 130.773438 292.285156 L 86.1875 292.285156 C 81.261719 292.285156 75.996094 288.273438 74.6875 283.523438 Z M 189.40625 335.601562 L 115.328125 335.601562 L 115.328125 322.941406 L 189.40625 322.941406 Z M 175.25 317.324219 L 129.484375 317.324219 L 129.484375 297.902344 L 134.613281 297.902344 C 134.613281 297.902344 134.617188 297.902344 134.621094 297.902344 C 134.625 297.902344 134.625 297.902344 134.628906 297.902344 L 175.25 297.902344 Z M 255.175781 290.574219 C 254.464844 291.679688 252.976562 292.285156 250.976562 292.285156 L 206.191406 292.285156 L 190.34375 253.21875 L 239.949219 253.21875 L 254.984375 286.050781 C 255.816406 287.871094 255.882812 289.476562 255.175781 290.574219 Z M 255.175781 290.574219 " fill-opacity="1" fill-rule="nonzero"/></g><path fill="#000000" d="M 249.585938 87.792969 C 230.746094 87.792969 215.421875 103.105469 215.421875 121.933594 C 215.421875 140.757812 230.746094 156.070312 249.585938 156.070312 C 268.425781 156.070312 283.75 140.757812 283.75 121.933594 C 283.75 103.105469 268.425781 87.792969 249.585938 87.792969 Z M 249.585938 150.457031 C 233.84375 150.457031 221.039062 137.660156 221.039062 121.933594 C 221.039062 106.207031 233.84375 93.40625 249.585938 93.40625 C 265.328125 93.40625 278.132812 106.203125 278.132812 121.933594 C 278.132812 137.664062 265.324219 150.457031 249.585938 150.457031 Z M 249.585938 150.457031 " fill-opacity="1" fill-rule="nonzero"/><g clip-path="url(#d3de4f21de)"><path fill="#000000" d="M 249.585938 68.167969 C 251.136719 68.167969 252.394531 66.910156 252.394531 65.359375 L 252.394531 36.636719 C 252.394531 35.089844 251.136719 33.832031 249.585938 33.832031 C 248.035156 33.832031 246.777344 35.089844 246.777344 36.636719 L 246.777344 65.359375 C 246.777344 66.910156 248.035156 68.167969 249.585938 68.167969 Z M 249.585938 68.167969 " fill-opacity="1" fill-rule="nonzero"/></g><g clip-path="url(#21b0148672)"><path fill="#000000" d="M 334.945312 119.125 L 306.203125 119.125 C 304.652344 119.125 303.394531 120.382812 303.394531 121.933594 C 303.394531 123.484375 304.652344 124.742188 306.203125 124.742188 L 334.945312 124.742188 C 336.496094 124.742188 337.753906 123.484375 337.753906 121.933594 C 337.753906 120.382812 336.496094 119.125 334.945312 119.125 Z M 334.945312 119.125 " fill-opacity="1" fill-rule="nonzero"/></g><path fill="#000000" d="M 207.570312 83.914062 C 208.117188 84.460938 208.835938 84.734375 209.554688 84.734375 C 210.273438 84.734375 210.996094 84.460938 211.542969 83.914062 C 212.640625 82.816406 212.640625 81.039062 211.542969 79.945312 L 191.21875 59.636719 C 190.121094 58.542969 188.34375 58.542969 187.246094 59.636719 C 186.148438 60.734375 186.148438 62.511719 187.246094 63.609375 Z M 207.570312 83.914062 " fill-opacity="1" fill-rule="nonzero"/><path fill="#000000" d="M 164.234375 124.738281 L 192.976562 124.738281 C 194.523438 124.738281 195.785156 123.480469 195.785156 121.929688 C 195.785156 120.382812 194.523438 119.125 192.976562 119.125 L 164.234375 119.125 C 162.683594 119.125 161.425781 120.382812 161.425781 121.929688 C 161.425781 123.480469 162.683594 124.738281 164.234375 124.738281 Z M 164.234375 124.738281 " fill-opacity="1" fill-rule="nonzero"/><path fill="#000000" d="M 252.394531 207.21875 L 252.394531 178.5 C 252.394531 176.949219 251.136719 175.691406 249.585938 175.691406 C 248.035156 175.691406 246.777344 176.949219 246.777344 178.5 L 246.777344 207.21875 C 246.777344 208.769531 248.035156 210.027344 249.585938 210.027344 C 251.136719 210.027344 252.394531 208.769531 252.394531 207.21875 Z M 252.394531 207.21875 " fill-opacity="1" fill-rule="nonzero"/><path fill="#000000" d="M 291.601562 159.945312 C 290.503906 158.847656 288.726562 158.847656 287.628906 159.945312 C 286.53125 161.039062 286.53125 162.816406 287.628906 163.914062 L 307.949219 184.222656 C 308.496094 184.769531 309.214844 185.046875 309.933594 185.046875 C 310.65625 185.046875 311.375 184.769531 311.921875 184.222656 C 313.019531 183.128906 313.019531 181.351562 311.921875 180.253906 Z M 291.601562 159.945312 " fill-opacity="1" fill-rule="nonzero"/><path fill="#000000" d="M 289.613281 84.734375 C 290.335938 84.734375 291.054688 84.460938 291.601562 83.914062 L 311.925781 63.609375 C 313.023438 62.511719 313.023438 60.734375 311.925781 59.636719 C 310.828125 58.542969 309.054688 58.542969 307.953125 59.636719 L 287.628906 79.945312 C 286.53125 81.039062 286.53125 82.816406 287.628906 83.914062 C 288.179688 84.460938 288.894531 84.734375 289.613281 84.734375 Z M 289.613281 84.734375 " fill-opacity="1" fill-rule="nonzero"/><path fill="#000000" d="M 101.222656 109.347656 L 124.589844 107.683594 L 115.953125 150.921875 C 115.683594 152.28125 116.445312 153.632812 117.746094 154.105469 C 118.0625 154.222656 118.386719 154.277344 118.707031 154.277344 C 119.707031 154.277344 120.664062 153.742188 121.167969 152.820312 L 154.785156 91.636719 C 155.269531 90.757812 155.246094 89.691406 154.726562 88.832031 C 154.207031 87.972656 153.285156 87.496094 152.265625 87.476562 L 129.097656 87.953125 L 136.804688 62.429688 C 137.203125 61.125 136.59375 59.71875 135.375 59.109375 C 134.148438 58.5 132.664062 58.851562 131.855469 59.957031 L 98.761719 104.882812 C 98.113281 105.765625 98.035156 106.945312 98.5625 107.902344 C 99.09375 108.863281 100.152344 109.410156 101.222656 109.347656 Z M 126.722656 76.394531 L 122.605469 90.027344 C 122.34375 90.886719 122.511719 91.820312 123.054688 92.535156 C 123.601562 93.25 124.457031 93.648438 125.351562 93.648438 L 147.523438 93.191406 L 125.039062 134.117188 L 130.824219 105.171875 C 130.996094 104.3125 130.753906 103.421875 130.175781 102.765625 C 129.644531 102.160156 128.875 101.8125 128.070312 101.8125 C 128.003906 101.8125 127.9375 101.816406 127.871094 101.820312 L 106.894531 103.316406 Z M 126.722656 76.394531 " fill-opacity="1" fill-rule="nonzero"/></svg>