<svg xmlns="http://www.w3.org/2000/svg" xmlns:xlink="http://www.w3.org/1999/xlink" width="500" zoomAndPan="magnify" viewBox="0 0 375 374.999991" height="500" preserveAspectRatio="xMidYMid meet" version="1.0"><defs><clipPath id="b7a6df01df"><path d="M 37.5 235 L 107 235 L 107 356 L 37.5 356 Z M 37.5 235 " clip-rule="nonzero"/></clipPath><clipPath id="b1b6f4d4b3"><path d="M 97 244 L 166.5 244 L 166.5 365 L 97 365 Z M 97 244 " clip-rule="nonzero"/></clipPath></defs><g clip-path="url(#b7a6df01df)"><path fill="#000000" d="M 48.273438 300 C 48.273438 271.546875 70.65625 248.269531 98.777344 246.582031 L 106.925781 235.964844 C 105.292969 235.835938 103.664062 235.714844 102 235.714844 C 66.394531 235.714844 37.527344 264.5 37.527344 300 C 37.527344 323.523438 50.234375 344.03125 69.140625 355.230469 L 71.9375 344.375 C 57.667969 334.734375 48.273438 318.433594 48.273438 300 Z M 48.273438 300 " fill-opacity="1" fill-rule="nonzero"/></g><g clip-path="url(#b1b6f4d4b3)"><path fill="#000000" d="M 134.632812 244.628906 L 131.683594 255.386719 C 146.164062 265 155.726562 281.394531 155.726562 300 C 155.726562 328.445312 133.34375 351.730469 105.222656 353.40625 L 97.066406 364.035156 C 98.707031 364.164062 100.335938 364.285156 102 364.285156 C 137.605469 364.285156 166.472656 335.5 166.472656 300 C 166.472656 276.386719 153.664062 255.804688 134.632812 244.628906 Z M 134.632812 244.628906 " fill-opacity="1" fill-rule="nonzero"/></g><path fill="#000000" d="M 144.980469 283.929688 L 112.746094 283.929688 L 115.90625 272.367188 L 121.945312 250.300781 L 124.78125 239.917969 L 128.863281 225 L 118.882812 238.019531 L 111.726562 247.351562 L 93.84375 270.660156 L 59.019531 316.070312 L 91.253906 316.070312 L 88.113281 327.5625 L 82.054688 349.699219 L 79.21875 360.082031 L 75.136719 375 L 85.117188 361.980469 L 92.273438 352.648438 L 110.382812 329.035156 Z M 144.980469 283.929688 " fill-opacity="1" fill-rule="nonzero"/></svg>