<svg xmlns="http://www.w3.org/2000/svg" xmlns:xlink="http://www.w3.org/1999/xlink" width="500" zoomAndPan="magnify" viewBox="0 0 375 374.999991" height="500" preserveAspectRatio="xMidYMid meet" version="1.0"><path fill="#000000" d="M 170.390625 56.433594 L 204.148438 56.433594 C 207.722656 56.433594 210.617188 53.542969 210.617188 49.96875 C 210.617188 46.394531 207.722656 43.503906 204.148438 43.503906 L 170.390625 43.503906 C 161.898438 43.644531 161.882812 56.292969 170.390625 56.433594 Z M 170.390625 56.433594 " fill-opacity="1" fill-rule="nonzero"/><path fill="#000000" d="M 361.914062 361.65625 L 290.464844 361.65625 L 290.464844 312.90625 C 297.886719 310.175781 303.242188 303.089844 303.242188 294.761719 L 303.242188 108.21875 C 310.757812 105.542969 316.179688 98.433594 316.179688 90.015625 C 316.574219 80.199219 309.519531 71.714844 300.097656 70.117188 C 240.855469 0.109375 133.824219 0 74.4375 70.117188 C 65.324219 71.703125 58.355469 79.617188 58.355469 89.175781 C 58.015625 97.851562 63.496094 105.472656 71.292969 108.21875 C 71.292969 108.21875 71.292969 294.761719 71.292969 294.761719 C 71.292969 303.082031 76.636719 310.160156 84.074219 312.898438 L 84.074219 361.65625 L 12.628906 361.65625 C 4.285156 361.691406 4.011719 374.476562 12.628906 374.585938 C 73.199219 374.488281 150.761719 374.660156 211.003906 374.585938 C 226.484375 374.5625 269.054688 374.605469 283.996094 374.585938 C 283.996094 374.585938 361.914062 374.585938 361.914062 374.585938 C 370.308594 374.417969 370.519531 361.847656 361.914062 361.65625 Z M 84.230469 109.410156 L 157.074219 109.410156 L 157.074219 301.226562 L 90.625 301.226562 C 87.039062 301.195312 84.230469 298.351562 84.230469 294.761719 Z M 290.308594 294.761719 C 290.308594 298.351562 287.496094 301.195312 283.972656 301.226562 L 217.46875 301.226562 L 217.46875 109.410156 L 290.308594 109.410156 Z M 204.535156 177.066406 L 204.535156 196.460938 L 170.011719 196.460938 L 170.011719 177.066406 Z M 170.011719 164.136719 L 170.011719 144.742188 L 204.535156 144.742188 L 204.535156 164.136719 Z M 204.535156 209.390625 L 204.535156 228.785156 L 170.011719 228.785156 L 170.011719 209.390625 Z M 204.535156 131.808594 L 170.011719 131.808594 L 170.011719 112.414062 L 204.535156 112.414062 Z M 170.011719 241.714844 L 204.535156 241.714844 L 204.535156 261.109375 L 170.011719 261.109375 Z M 204.535156 99.484375 L 170.011719 99.484375 L 170.011719 82.722656 L 204.535156 82.722656 Z M 170.011719 274.039062 L 204.535156 274.039062 L 204.535156 293.433594 L 170.011719 293.433594 Z M 157.074219 314.15625 L 157.074219 361.65625 L 120.195312 361.65625 L 120.195312 314.15625 Z M 170.011719 306.363281 L 204.535156 306.363281 L 204.535156 325.757812 L 170.011719 325.757812 Z M 217.46875 314.15625 L 254.347656 314.15625 L 254.347656 361.65625 L 217.46875 361.65625 Z M 303.242188 90.015625 C 303.242188 93.582031 300.34375 96.480469 296.777344 96.480469 L 217.46875 96.480469 L 217.46875 82.710938 L 296.777344 82.710938 C 300.699219 82.6875 303.613281 86.175781 303.242188 90.015625 Z M 187.644531 30.152344 C 234.222656 30.28125 266.429688 54.582031 282.046875 69.78125 L 92.464844 69.78125 C 108.125 54.476562 140.511719 29.964844 187.644531 30.152344 Z M 71.292969 89.175781 C 71.289062 85.582031 74.234375 82.710938 77.800781 82.710938 L 157.074219 82.710938 C 157.074219 82.710938 157.074219 96.480469 157.074219 96.480469 L 77.761719 96.480469 C 73.839844 96.503906 70.925781 93.015625 71.292969 89.175781 Z M 97.011719 361.65625 L 97.011719 314.171875 L 107.257812 314.171875 L 107.257812 361.65625 Z M 170.011719 361.65625 L 170.011719 338.6875 L 204.535156 338.6875 L 204.535156 361.65625 Z M 267.285156 361.65625 L 267.285156 314.171875 L 277.527344 314.171875 L 277.527344 361.65625 Z M 267.285156 361.65625 " fill-opacity="1" fill-rule="nonzero"/><path fill="#000000" d="M 108.601562 291.421875 L 125.460938 291.421875 C 132.597656 291.421875 138.398438 285.617188 138.398438 278.492188 L 138.398438 134.507812 C 138.398438 127.378906 132.597656 121.578125 125.460938 121.578125 L 108.601562 121.578125 C 101.46875 121.578125 95.667969 127.378906 95.667969 134.507812 L 95.667969 278.492188 C 95.667969 285.617188 101.46875 291.421875 108.601562 291.421875 Z M 125.464844 229.011719 L 125.46875 248.40625 L 108.601562 248.40625 L 108.601562 229.011719 Z M 108.601562 216.082031 L 108.601562 196.6875 L 125.464844 196.6875 L 125.464844 216.082031 Z M 125.464844 183.757812 L 108.601562 183.757812 L 108.601562 164.363281 L 125.464844 164.363281 Z M 108.601562 278.492188 L 108.601562 261.335938 L 125.46875 261.335938 L 125.46875 278.492188 Z M 125.460938 134.507812 L 125.460938 151.433594 L 108.601562 151.433594 L 108.601562 134.507812 Z M 125.460938 134.507812 " fill-opacity="1" fill-rule="nonzero"/></svg>