<svg xmlns="http://www.w3.org/2000/svg" xmlns:xlink="http://www.w3.org/1999/xlink" width="500" zoomAndPan="magnify" viewBox="0 0 375 374.999991" height="500" preserveAspectRatio="xMidYMid meet" version="1.0"><defs><clipPath id="c9797090ca"><path d="M 90.234375 137.695312 L 193.734375 137.695312 L 193.734375 287.695312 L 90.234375 287.695312 Z M 90.234375 137.695312 " clip-rule="nonzero"/></clipPath><clipPath id="1d6891803b"><path d="M 193.734375 137.695312 L 297.234375 137.695312 L 297.234375 287.695312 L 193.734375 287.695312 Z M 193.734375 137.695312 " clip-rule="nonzero"/></clipPath></defs><g clip-path="url(#c9797090ca)"><path fill="#000000" d="M 191.214844 275.960938 L 185.6875 275.960938 L 173.421875 249.207031 C 173.421875 249.199219 173.417969 249.191406 173.414062 249.1875 L 160.738281 221.53125 L 160.738281 203.289062 L 177.148438 203.289062 L 177.148438 207.976562 C 177.148438 208.289062 177.207031 208.585938 177.328125 208.875 C 177.445312 209.160156 177.617188 209.414062 177.835938 209.636719 C 178.054688 209.855469 178.308594 210.023438 178.597656 210.144531 C 178.882812 210.261719 179.183594 210.320312 179.492188 210.320312 C 179.804688 210.320312 180.101562 210.261719 180.390625 210.144531 C 180.675781 210.023438 180.929688 209.855469 181.152344 209.636719 C 181.371094 209.414062 181.539062 209.160156 181.660156 208.875 C 181.777344 208.585938 181.835938 208.289062 181.835938 207.976562 L 181.835938 203.289062 L 186.527344 203.289062 L 186.527344 207.976562 C 186.527344 208.289062 186.585938 208.585938 186.703125 208.875 C 186.824219 209.160156 186.992188 209.414062 187.210938 209.636719 C 187.433594 209.855469 187.6875 210.023438 187.972656 210.144531 C 188.261719 210.261719 188.558594 210.320312 188.871094 210.320312 C 189.179688 210.320312 189.480469 210.261719 189.765625 210.144531 C 190.054688 210.023438 190.308594 209.855469 190.527344 209.636719 C 190.746094 209.414062 190.917969 209.160156 191.035156 208.875 C 191.15625 208.585938 191.214844 208.289062 191.214844 207.976562 L 191.214844 203.289062 C 191.480469 203.289062 191.742188 203.246094 191.992188 203.15625 C 192.246094 203.066406 192.476562 202.9375 192.683594 202.773438 C 192.894531 202.605469 193.066406 202.40625 193.207031 202.179688 C 193.347656 201.953125 193.449219 201.707031 193.503906 201.449219 C 193.5625 201.1875 193.574219 200.921875 193.542969 200.65625 C 193.507812 200.390625 193.433594 200.140625 193.316406 199.902344 C 193.195312 199.660156 193.039062 199.449219 192.847656 199.261719 C 192.65625 199.078125 192.4375 198.925781 192.195312 198.816406 L 160.738281 185.378906 L 160.738281 177.5 L 177.148438 177.5 L 177.148438 182.191406 C 177.148438 182.5 177.207031 182.800781 177.328125 183.085938 C 177.445312 183.375 177.617188 183.628906 177.835938 183.847656 C 178.054688 184.066406 178.308594 184.238281 178.597656 184.355469 C 178.882812 184.476562 179.183594 184.535156 179.492188 184.535156 C 179.804688 184.535156 180.101562 184.476562 180.390625 184.355469 C 180.675781 184.238281 180.929688 184.066406 181.152344 183.847656 C 181.371094 183.628906 181.539062 183.375 181.660156 183.085938 C 181.777344 182.800781 181.835938 182.5 181.835938 182.191406 L 181.835938 177.5 L 186.527344 177.5 L 186.527344 182.191406 C 186.527344 182.5 186.585938 182.800781 186.703125 183.085938 C 186.824219 183.375 186.992188 183.628906 187.210938 183.847656 C 187.433594 184.066406 187.6875 184.238281 187.972656 184.355469 C 188.261719 184.476562 188.558594 184.535156 188.871094 184.535156 C 189.179688 184.535156 189.480469 184.476562 189.765625 184.355469 C 190.054688 184.238281 190.308594 184.066406 190.527344 183.847656 C 190.746094 183.628906 190.917969 183.375 191.035156 183.085938 C 191.15625 182.800781 191.214844 182.5 191.214844 182.191406 L 191.214844 177.5 C 191.480469 177.5 191.742188 177.457031 191.992188 177.367188 C 192.246094 177.28125 192.476562 177.152344 192.683594 176.984375 C 192.894531 176.816406 193.066406 176.621094 193.207031 176.394531 C 193.347656 176.164062 193.449219 175.921875 193.503906 175.660156 C 193.5625 175.398438 193.574219 175.136719 193.542969 174.871094 C 193.507812 174.605469 193.433594 174.351562 193.316406 174.113281 C 193.195312 173.875 193.039062 173.660156 192.847656 173.476562 C 192.65625 173.289062 192.4375 173.140625 192.195312 173.027344 L 159.894531 159.203125 L 143.835938 138.554688 C 143.605469 138.28125 143.328125 138.070312 143.003906 137.921875 C 142.679688 137.773438 142.339844 137.699219 141.984375 137.699219 C 141.628906 137.699219 141.289062 137.773438 140.964844 137.921875 C 140.640625 138.070312 140.363281 138.28125 140.132812 138.554688 L 124.09375 159.175781 L 91.832031 173.003906 C 91.585938 173.109375 91.363281 173.253906 91.164062 173.4375 C 90.964844 173.621094 90.804688 173.832031 90.679688 174.070312 C 90.554688 174.3125 90.472656 174.5625 90.433594 174.832031 C 90.398438 175.097656 90.40625 175.363281 90.460938 175.628906 C 90.515625 175.894531 90.609375 176.140625 90.75 176.371094 C 90.890625 176.601562 91.066406 176.800781 91.273438 176.972656 C 91.484375 177.144531 91.714844 177.273438 91.96875 177.367188 C 92.222656 177.457031 92.484375 177.5 92.753906 177.5 L 95.097656 177.5 L 95.097656 182.191406 C 95.097656 182.5 95.160156 182.800781 95.277344 183.085938 C 95.394531 183.375 95.566406 183.628906 95.785156 183.847656 C 96.003906 184.066406 96.257812 184.238281 96.546875 184.355469 C 96.832031 184.476562 97.132812 184.535156 97.441406 184.535156 C 97.753906 184.535156 98.054688 184.476562 98.339844 184.355469 C 98.628906 184.238281 98.882812 184.066406 99.101562 183.847656 C 99.320312 183.628906 99.488281 183.375 99.609375 183.085938 C 99.726562 182.800781 99.789062 182.5 99.789062 182.191406 L 99.789062 177.5 L 104.476562 177.5 L 104.476562 182.191406 C 104.476562 182.5 104.535156 182.800781 104.65625 183.085938 C 104.773438 183.375 104.941406 183.628906 105.164062 183.847656 C 105.382812 184.066406 105.636719 184.238281 105.921875 184.355469 C 106.210938 184.476562 106.507812 184.535156 106.820312 184.535156 C 107.132812 184.535156 107.429688 184.476562 107.71875 184.355469 C 108.003906 184.238281 108.257812 184.066406 108.476562 183.847656 C 108.699219 183.628906 108.867188 183.375 108.984375 183.085938 C 109.105469 182.800781 109.164062 182.5 109.164062 182.191406 L 109.164062 177.5 L 123.230469 177.5 L 123.230469 185.332031 L 91.832031 198.789062 C 91.582031 198.898438 91.359375 199.042969 91.160156 199.226562 C 90.964844 199.410156 90.800781 199.621094 90.675781 199.859375 C 90.550781 200.097656 90.472656 200.351562 90.433594 200.617188 C 90.394531 200.886719 90.40625 201.152344 90.457031 201.417969 C 90.511719 201.679688 90.609375 201.929688 90.75 202.160156 C 90.890625 202.390625 91.0625 202.589844 91.273438 202.761719 C 91.480469 202.933594 91.714844 203.0625 91.96875 203.152344 C 92.222656 203.242188 92.484375 203.289062 92.753906 203.289062 L 95.097656 203.289062 L 95.097656 207.976562 C 95.097656 208.289062 95.160156 208.585938 95.277344 208.875 C 95.394531 209.160156 95.566406 209.414062 95.785156 209.636719 C 96.003906 209.855469 96.257812 210.023438 96.546875 210.144531 C 96.832031 210.261719 97.132812 210.320312 97.441406 210.320312 C 97.753906 210.320312 98.054688 210.261719 98.339844 210.144531 C 98.628906 210.023438 98.882812 209.855469 99.101562 209.636719 C 99.320312 209.414062 99.488281 209.160156 99.609375 208.875 C 99.726562 208.585938 99.789062 208.289062 99.789062 207.976562 L 99.789062 203.289062 L 104.476562 203.289062 L 104.476562 207.976562 C 104.476562 208.289062 104.535156 208.585938 104.65625 208.875 C 104.773438 209.160156 104.941406 209.414062 105.164062 209.636719 C 105.382812 209.855469 105.636719 210.023438 105.921875 210.144531 C 106.210938 210.261719 106.507812 210.320312 106.820312 210.320312 C 107.132812 210.320312 107.429688 210.261719 107.71875 210.144531 C 108.003906 210.023438 108.257812 209.855469 108.476562 209.636719 C 108.699219 209.414062 108.867188 209.160156 108.984375 208.875 C 109.105469 208.585938 109.164062 208.289062 109.164062 207.976562 L 109.164062 203.289062 L 123.230469 203.289062 L 123.230469 221.53125 L 110.554688 249.1875 C 110.550781 249.195312 110.546875 249.203125 110.546875 249.207031 L 98.28125 275.960938 L 92.753906 275.960938 C 92.445312 275.960938 92.144531 276.019531 91.855469 276.140625 C 91.570312 276.257812 91.316406 276.429688 91.097656 276.648438 C 90.878906 276.867188 90.707031 277.121094 90.589844 277.410156 C 90.46875 277.695312 90.410156 277.996094 90.410156 278.304688 L 90.410156 285.339844 C 90.410156 285.648438 90.46875 285.949219 90.589844 286.234375 C 90.707031 286.523438 90.878906 286.777344 91.097656 286.996094 C 91.316406 287.214844 91.570312 287.386719 91.855469 287.503906 C 92.144531 287.625 92.445312 287.683594 92.753906 287.683594 C 93.066406 287.683594 93.363281 287.625 93.652344 287.503906 C 93.9375 287.386719 94.191406 287.214844 94.414062 286.996094 C 94.632812 286.777344 94.800781 286.523438 94.921875 286.234375 C 95.039062 285.949219 95.097656 285.648438 95.097656 285.339844 L 95.097656 280.648438 L 111.507812 280.648438 L 111.507812 285.339844 C 111.507812 285.648438 111.566406 285.949219 111.6875 286.234375 C 111.804688 286.523438 111.976562 286.777344 112.195312 286.996094 C 112.414062 287.214844 112.667969 287.386719 112.957031 287.503906 C 113.242188 287.625 113.542969 287.683594 113.851562 287.683594 C 114.164062 287.683594 114.464844 287.625 114.75 287.503906 C 115.039062 287.386719 115.289062 287.214844 115.511719 286.996094 C 115.730469 286.777344 115.898438 286.523438 116.019531 286.234375 C 116.136719 285.949219 116.199219 285.648438 116.199219 285.339844 L 116.199219 278.304688 C 116.199219 277.996094 116.136719 277.695312 116.019531 277.410156 C 115.898438 277.121094 115.730469 276.867188 115.511719 276.648438 C 115.289062 276.429688 115.039062 276.257812 114.75 276.140625 C 114.464844 276.019531 114.164062 275.960938 113.851562 275.960938 L 106.820312 275.960938 L 138.078125 252.519531 L 145.890625 252.519531 L 177.148438 275.960938 L 170.117188 275.960938 C 169.804688 275.960938 169.503906 276.019531 169.21875 276.140625 C 168.929688 276.257812 168.679688 276.429688 168.457031 276.648438 C 168.238281 276.867188 168.070312 277.121094 167.949219 277.410156 C 167.832031 277.695312 167.769531 277.996094 167.769531 278.304688 L 167.769531 285.339844 C 167.769531 285.648438 167.832031 285.949219 167.949219 286.234375 C 168.070312 286.523438 168.238281 286.777344 168.457031 286.996094 C 168.679688 287.214844 168.929688 287.386719 169.21875 287.503906 C 169.503906 287.625 169.804688 287.683594 170.117188 287.683594 C 170.425781 287.683594 170.726562 287.625 171.011719 287.503906 C 171.300781 287.386719 171.554688 287.214844 171.773438 286.996094 C 171.992188 286.777344 172.164062 286.523438 172.28125 286.234375 C 172.402344 285.949219 172.460938 285.648438 172.460938 285.339844 L 172.460938 280.648438 L 188.871094 280.648438 L 188.871094 285.339844 C 188.871094 285.648438 188.929688 285.949219 189.046875 286.234375 C 189.167969 286.523438 189.335938 286.777344 189.554688 286.996094 C 189.777344 287.214844 190.03125 287.386719 190.316406 287.503906 C 190.605469 287.625 190.902344 287.683594 191.214844 287.683594 C 191.523438 287.683594 191.824219 287.625 192.113281 287.503906 C 192.398438 287.386719 192.652344 287.214844 192.871094 286.996094 C 193.089844 286.777344 193.261719 286.523438 193.378906 286.234375 C 193.5 285.949219 193.558594 285.648438 193.558594 285.339844 L 193.558594 278.304688 C 193.558594 277.996094 193.5 277.695312 193.378906 277.410156 C 193.261719 277.121094 193.089844 276.867188 192.871094 276.648438 C 192.652344 276.429688 192.398438 276.257812 192.113281 276.140625 C 191.824219 276.019531 191.523438 275.960938 191.214844 275.960938 Z M 120.964844 247.832031 L 141.984375 234.894531 L 163.003906 247.832031 Z M 127.917969 163.4375 L 146.972656 163.4375 L 127.917969 171.601562 Z M 156.050781 217.75 L 146.320312 211.492188 L 156.050781 205.238281 Z M 156.050781 172.8125 L 136.996094 172.8125 L 156.050781 164.648438 Z M 156.050781 177.5 L 156.050781 183.550781 L 139.109375 177.5 Z M 127.917969 178.484375 L 144.859375 184.535156 L 127.917969 184.535156 Z M 156.050781 198.601562 L 136.996094 198.601562 L 156.050781 190.433594 Z M 150.414062 203.289062 L 141.984375 208.707031 L 133.554688 203.289062 Z M 127.917969 205.238281 L 137.648438 211.492188 L 127.917969 217.75 Z M 141.984375 214.28125 L 150.414062 219.699219 L 133.554688 219.699219 Z M 127.917969 189.222656 L 146.972656 189.222656 L 127.917969 197.390625 Z M 150.113281 224.386719 L 141.984375 229.386719 L 133.855469 224.386719 Z M 146.457031 232.140625 L 157.367188 225.429688 L 165.9375 244.128906 Z M 180.542969 198.601562 L 160.738281 198.601562 L 160.738281 190.542969 Z M 160.738281 172.8125 L 160.738281 164.753906 L 180.542969 172.8125 Z M 141.984375 143.8125 L 153.601562 158.746094 L 130.367188 158.746094 Z M 104.175781 172.8125 L 123.230469 164.648438 L 123.230469 172.8125 Z M 104.175781 198.601562 L 123.230469 190.433594 L 123.230469 198.601562 Z M 126.601562 225.429688 L 137.511719 232.140625 L 118.03125 244.128906 Z M 105.761719 270.894531 L 114.183594 252.519531 L 130.261719 252.519531 Z M 169.785156 252.519531 L 178.207031 270.894531 L 153.707031 252.519531 Z M 169.785156 252.519531 " fill-opacity="1" fill-rule="nonzero"/></g><g clip-path="url(#1d6891803b)"><path fill="#000000" d="M 294.714844 275.960938 L 289.1875 275.960938 L 276.921875 249.207031 C 276.921875 249.199219 276.917969 249.191406 276.914062 249.1875 L 264.238281 221.53125 L 264.238281 203.289062 L 280.648438 203.289062 L 280.648438 207.976562 C 280.648438 208.289062 280.707031 208.585938 280.828125 208.875 C 280.945312 209.160156 281.117188 209.414062 281.335938 209.636719 C 281.554688 209.855469 281.808594 210.023438 282.097656 210.144531 C 282.382812 210.261719 282.683594 210.320312 282.992188 210.320312 C 283.304688 210.320312 283.601562 210.261719 283.890625 210.144531 C 284.175781 210.023438 284.429688 209.855469 284.652344 209.636719 C 284.871094 209.414062 285.039062 209.160156 285.160156 208.875 C 285.277344 208.585938 285.335938 208.289062 285.335938 207.976562 L 285.335938 203.289062 L 290.027344 203.289062 L 290.027344 207.976562 C 290.027344 208.289062 290.085938 208.585938 290.203125 208.875 C 290.324219 209.160156 290.492188 209.414062 290.710938 209.636719 C 290.933594 209.855469 291.1875 210.023438 291.472656 210.144531 C 291.761719 210.261719 292.058594 210.320312 292.371094 210.320312 C 292.679688 210.320312 292.980469 210.261719 293.265625 210.144531 C 293.554688 210.023438 293.808594 209.855469 294.027344 209.636719 C 294.246094 209.414062 294.417969 209.160156 294.535156 208.875 C 294.65625 208.585938 294.714844 208.289062 294.714844 207.976562 L 294.714844 203.289062 C 294.980469 203.289062 295.242188 203.246094 295.492188 203.15625 C 295.746094 203.066406 295.976562 202.9375 296.183594 202.773438 C 296.394531 202.605469 296.566406 202.40625 296.707031 202.179688 C 296.847656 201.953125 296.949219 201.707031 297.003906 201.449219 C 297.0625 201.1875 297.074219 200.921875 297.042969 200.65625 C 297.007812 200.390625 296.933594 200.140625 296.816406 199.902344 C 296.695312 199.660156 296.539062 199.449219 296.347656 199.261719 C 296.15625 199.078125 295.9375 198.925781 295.695312 198.816406 L 264.238281 185.378906 L 264.238281 177.5 L 280.648438 177.5 L 280.648438 182.191406 C 280.648438 182.5 280.707031 182.800781 280.828125 183.085938 C 280.945312 183.375 281.117188 183.628906 281.335938 183.847656 C 281.554688 184.066406 281.808594 184.238281 282.097656 184.355469 C 282.382812 184.476562 282.683594 184.535156 282.992188 184.535156 C 283.304688 184.535156 283.601562 184.476562 283.890625 184.355469 C 284.175781 184.238281 284.429688 184.066406 284.652344 183.847656 C 284.871094 183.628906 285.039062 183.375 285.160156 183.085938 C 285.277344 182.800781 285.335938 182.5 285.335938 182.191406 L 285.335938 177.5 L 290.027344 177.5 L 290.027344 182.191406 C 290.027344 182.5 290.085938 182.800781 290.203125 183.085938 C 290.324219 183.375 290.492188 183.628906 290.710938 183.847656 C 290.933594 184.066406 291.1875 184.238281 291.472656 184.355469 C 291.761719 184.476562 292.058594 184.535156 292.371094 184.535156 C 292.679688 184.535156 292.980469 184.476562 293.265625 184.355469 C 293.554688 184.238281 293.808594 184.066406 294.027344 183.847656 C 294.246094 183.628906 294.417969 183.375 294.535156 183.085938 C 294.65625 182.800781 294.714844 182.5 294.714844 182.191406 L 294.714844 177.5 C 294.980469 177.5 295.242188 177.457031 295.492188 177.367188 C 295.746094 177.28125 295.976562 177.152344 296.183594 176.984375 C 296.394531 176.816406 296.566406 176.621094 296.707031 176.394531 C 296.847656 176.164062 296.949219 175.921875 297.003906 175.660156 C 297.0625 175.398438 297.074219 175.136719 297.042969 174.871094 C 297.007812 174.605469 296.933594 174.351562 296.816406 174.113281 C 296.695312 173.875 296.539062 173.660156 296.347656 173.476562 C 296.15625 173.289062 295.9375 173.140625 295.695312 173.027344 L 263.394531 159.203125 L 247.335938 138.554688 C 247.105469 138.28125 246.828125 138.070312 246.503906 137.921875 C 246.179688 137.773438 245.839844 137.699219 245.484375 137.699219 C 245.128906 137.699219 244.789062 137.773438 244.464844 137.921875 C 244.140625 138.070312 243.863281 138.28125 243.632812 138.554688 L 227.59375 159.175781 L 195.332031 173.003906 C 195.085938 173.109375 194.863281 173.253906 194.664062 173.4375 C 194.464844 173.621094 194.304688 173.832031 194.179688 174.070312 C 194.054688 174.3125 193.972656 174.5625 193.933594 174.832031 C 193.898438 175.097656 193.90625 175.363281 193.960938 175.628906 C 194.015625 175.894531 194.109375 176.140625 194.25 176.371094 C 194.390625 176.601562 194.566406 176.800781 194.773438 176.972656 C 194.984375 177.144531 195.214844 177.273438 195.46875 177.367188 C 195.722656 177.457031 195.984375 177.5 196.253906 177.5 L 198.597656 177.5 L 198.597656 182.191406 C 198.597656 182.5 198.660156 182.800781 198.777344 183.085938 C 198.894531 183.375 199.066406 183.628906 199.285156 183.847656 C 199.503906 184.066406 199.757812 184.238281 200.046875 184.355469 C 200.332031 184.476562 200.632812 184.535156 200.941406 184.535156 C 201.253906 184.535156 201.554688 184.476562 201.839844 184.355469 C 202.128906 184.238281 202.378906 184.066406 202.601562 183.847656 C 202.820312 183.628906 202.988281 183.375 203.109375 183.085938 C 203.226562 182.800781 203.289062 182.5 203.289062 182.191406 L 203.289062 177.5 L 207.976562 177.5 L 207.976562 182.191406 C 207.976562 182.5 208.035156 182.800781 208.15625 183.085938 C 208.273438 183.375 208.441406 183.628906 208.664062 183.847656 C 208.882812 184.066406 209.136719 184.238281 209.421875 184.355469 C 209.710938 184.476562 210.007812 184.535156 210.320312 184.535156 C 210.632812 184.535156 210.929688 184.476562 211.21875 184.355469 C 211.503906 184.238281 211.757812 184.066406 211.976562 183.847656 C 212.199219 183.628906 212.367188 183.375 212.484375 183.085938 C 212.605469 182.800781 212.664062 182.5 212.664062 182.191406 L 212.664062 177.5 L 226.730469 177.5 L 226.730469 185.332031 L 195.332031 198.789062 C 195.082031 198.898438 194.859375 199.042969 194.660156 199.226562 C 194.464844 199.410156 194.300781 199.621094 194.175781 199.859375 C 194.050781 200.097656 193.972656 200.351562 193.933594 200.617188 C 193.894531 200.886719 193.90625 201.152344 193.957031 201.417969 C 194.011719 201.679688 194.109375 201.929688 194.25 202.160156 C 194.390625 202.390625 194.5625 202.589844 194.773438 202.761719 C 194.980469 202.933594 195.214844 203.0625 195.46875 203.152344 C 195.722656 203.242188 195.984375 203.289062 196.253906 203.289062 L 198.597656 203.289062 L 198.597656 207.976562 C 198.597656 208.289062 198.660156 208.585938 198.777344 208.875 C 198.894531 209.160156 199.066406 209.414062 199.285156 209.636719 C 199.503906 209.855469 199.757812 210.023438 200.046875 210.144531 C 200.332031 210.261719 200.632812 210.320312 200.941406 210.320312 C 201.253906 210.320312 201.554688 210.261719 201.839844 210.144531 C 202.128906 210.023438 202.378906 209.855469 202.601562 209.636719 C 202.820312 209.414062 202.988281 209.160156 203.109375 208.875 C 203.226562 208.585938 203.289062 208.289062 203.289062 207.976562 L 203.289062 203.289062 L 207.976562 203.289062 L 207.976562 207.976562 C 207.976562 208.289062 208.035156 208.585938 208.15625 208.875 C 208.273438 209.160156 208.441406 209.414062 208.664062 209.636719 C 208.882812 209.855469 209.136719 210.023438 209.421875 210.144531 C 209.710938 210.261719 210.007812 210.320312 210.320312 210.320312 C 210.632812 210.320312 210.929688 210.261719 211.21875 210.144531 C 211.503906 210.023438 211.757812 209.855469 211.976562 209.636719 C 212.199219 209.414062 212.367188 209.160156 212.484375 208.875 C 212.605469 208.585938 212.664062 208.289062 212.664062 207.976562 L 212.664062 203.289062 L 226.730469 203.289062 L 226.730469 221.53125 L 214.054688 249.1875 C 214.050781 249.195312 214.046875 249.203125 214.042969 249.207031 L 201.78125 275.960938 L 196.253906 275.960938 C 195.945312 275.960938 195.644531 276.019531 195.355469 276.140625 C 195.070312 276.257812 194.816406 276.429688 194.597656 276.648438 C 194.378906 276.867188 194.207031 277.121094 194.089844 277.410156 C 193.96875 277.695312 193.910156 277.996094 193.910156 278.304688 L 193.910156 285.339844 C 193.910156 285.648438 193.96875 285.949219 194.089844 286.234375 C 194.207031 286.523438 194.378906 286.777344 194.597656 286.996094 C 194.816406 287.214844 195.070312 287.386719 195.355469 287.503906 C 195.644531 287.625 195.945312 287.683594 196.253906 287.683594 C 196.566406 287.683594 196.863281 287.625 197.152344 287.503906 C 197.4375 287.386719 197.691406 287.214844 197.914062 286.996094 C 198.132812 286.777344 198.300781 286.523438 198.421875 286.234375 C 198.539062 285.949219 198.597656 285.648438 198.597656 285.339844 L 198.597656 280.648438 L 215.007812 280.648438 L 215.007812 285.339844 C 215.007812 285.648438 215.066406 285.949219 215.1875 286.234375 C 215.304688 286.523438 215.476562 286.777344 215.695312 286.996094 C 215.914062 287.214844 216.167969 287.386719 216.457031 287.503906 C 216.742188 287.625 217.042969 287.683594 217.351562 287.683594 C 217.664062 287.683594 217.964844 287.625 218.25 287.503906 C 218.539062 287.386719 218.789062 287.214844 219.011719 286.996094 C 219.230469 286.777344 219.398438 286.523438 219.519531 286.234375 C 219.636719 285.949219 219.695312 285.648438 219.699219 285.339844 L 219.699219 278.304688 C 219.695312 277.996094 219.636719 277.695312 219.519531 277.410156 C 219.398438 277.121094 219.230469 276.867188 219.011719 276.648438 C 218.789062 276.429688 218.539062 276.257812 218.25 276.140625 C 217.964844 276.019531 217.664062 275.960938 217.351562 275.960938 L 210.320312 275.960938 L 241.578125 252.519531 L 249.390625 252.519531 L 280.648438 275.960938 L 273.617188 275.960938 C 273.304688 275.960938 273.003906 276.019531 272.71875 276.140625 C 272.429688 276.257812 272.179688 276.429688 271.957031 276.648438 C 271.738281 276.867188 271.570312 277.121094 271.449219 277.410156 C 271.332031 277.695312 271.269531 277.996094 271.269531 278.304688 L 271.269531 285.339844 C 271.269531 285.648438 271.332031 285.949219 271.449219 286.234375 C 271.570312 286.523438 271.738281 286.777344 271.957031 286.996094 C 272.179688 287.214844 272.429688 287.386719 272.71875 287.503906 C 273.003906 287.625 273.304688 287.683594 273.617188 287.683594 C 273.925781 287.683594 274.226562 287.625 274.511719 287.503906 C 274.800781 287.386719 275.054688 287.214844 275.273438 286.996094 C 275.492188 286.777344 275.664062 286.523438 275.78125 286.234375 C 275.902344 285.949219 275.960938 285.648438 275.960938 285.339844 L 275.960938 280.648438 L 292.371094 280.648438 L 292.371094 285.339844 C 292.371094 285.648438 292.429688 285.949219 292.546875 286.234375 C 292.667969 286.523438 292.835938 286.777344 293.054688 286.996094 C 293.277344 287.214844 293.53125 287.386719 293.816406 287.503906 C 294.105469 287.625 294.402344 287.683594 294.714844 287.683594 C 295.023438 287.683594 295.324219 287.625 295.613281 287.503906 C 295.898438 287.386719 296.152344 287.214844 296.371094 286.996094 C 296.589844 286.777344 296.761719 286.523438 296.878906 286.234375 C 297 285.949219 297.058594 285.648438 297.058594 285.339844 L 297.058594 278.304688 C 297.058594 277.996094 297 277.695312 296.878906 277.410156 C 296.761719 277.121094 296.589844 276.867188 296.371094 276.648438 C 296.152344 276.429688 295.898438 276.257812 295.613281 276.140625 C 295.324219 276.019531 295.023438 275.960938 294.714844 275.960938 Z M 224.464844 247.832031 L 245.484375 234.894531 L 266.503906 247.832031 Z M 231.417969 163.4375 L 250.472656 163.4375 L 231.417969 171.601562 Z M 259.550781 217.75 L 249.820312 211.492188 L 259.550781 205.238281 Z M 259.550781 172.8125 L 240.496094 172.8125 L 259.550781 164.648438 Z M 259.550781 177.5 L 259.550781 183.550781 L 242.609375 177.5 Z M 231.417969 178.484375 L 248.359375 184.535156 L 231.417969 184.535156 Z M 259.550781 198.601562 L 240.496094 198.601562 L 259.550781 190.433594 Z M 253.914062 203.289062 L 245.484375 208.707031 L 237.054688 203.289062 Z M 231.417969 205.238281 L 241.148438 211.492188 L 231.417969 217.75 Z M 245.484375 214.28125 L 253.914062 219.699219 L 237.054688 219.699219 Z M 231.417969 189.222656 L 250.472656 189.222656 L 231.417969 197.390625 Z M 253.613281 224.386719 L 245.484375 229.386719 L 237.355469 224.386719 Z M 249.957031 232.140625 L 260.867188 225.429688 L 269.4375 244.128906 Z M 284.042969 198.601562 L 264.238281 198.601562 L 264.238281 190.542969 Z M 264.238281 172.8125 L 264.238281 164.753906 L 284.042969 172.8125 Z M 245.484375 143.8125 L 257.101562 158.746094 L 233.867188 158.746094 Z M 207.675781 172.8125 L 226.730469 164.648438 L 226.730469 172.8125 Z M 207.675781 198.601562 L 226.730469 190.433594 L 226.730469 198.601562 Z M 230.101562 225.429688 L 241.011719 232.140625 L 221.53125 244.128906 Z M 209.261719 270.894531 L 217.683594 252.519531 L 233.761719 252.519531 Z M 273.285156 252.519531 L 281.707031 270.894531 L 257.207031 252.519531 Z M 273.285156 252.519531 " fill-opacity="1" fill-rule="nonzero"/></g></svg>