<svg xmlns="http://www.w3.org/2000/svg" xmlns:xlink="http://www.w3.org/1999/xlink" width="500" zoomAndPan="magnify" viewBox="0 0 375 374.999991" height="500" preserveAspectRatio="xMidYMid meet" version="1.0"><defs><clipPath id="b1daff92b4"><path d="M 118 310 L 190 310 L 190 368.125 L 118 368.125 Z M 118 310 " clip-rule="nonzero"/></clipPath><clipPath id="70a74b657f"><path d="M 185 310 L 257 310 L 257 368.125 L 185 368.125 Z M 185 310 " clip-rule="nonzero"/></clipPath><clipPath id="dc4d424871"><path d="M 161 6.625 L 190 6.625 L 190 368 L 161 368 Z M 161 6.625 " clip-rule="nonzero"/></clipPath><clipPath id="add55ebcad"><path d="M 184 6.625 L 214 6.625 L 214 368 L 184 368 Z M 184 6.625 " clip-rule="nonzero"/></clipPath><clipPath id="094d3bfe48"><path d="M 184 57 L 293.859375 57 L 293.859375 90 L 184 90 Z M 184 57 " clip-rule="nonzero"/></clipPath></defs><g clip-path="url(#b1daff92b4)"><path fill="#000000" d="M 189.226562 366.007812 L 189.226562 366.011719 C 189.226562 367.011719 188.417969 367.824219 187.417969 367.828125 L 120.332031 368.070312 C 119.613281 368.070312 118.960938 367.648438 118.664062 366.992188 C 118.371094 366.335938 118.492188 365.566406 118.972656 365.03125 L 167.070312 311.488281 C 167.410156 311.109375 167.894531 310.894531 168.402344 310.886719 L 187.589844 310.652344 C 188.59375 310.640625 189.417969 311.441406 189.429688 312.449219 C 189.441406 313.453125 188.636719 314.277344 187.632812 314.289062 L 168.445312 314.523438 L 169.777344 313.921875 L 121.675781 367.464844 L 120.316406 364.429688 L 187.402344 364.191406 L 185.59375 366.011719 L 185.59375 366.007812 C 185.59375 365.003906 186.40625 364.1875 187.410156 364.1875 C 188.414062 364.1875 189.226562 365.003906 189.226562 366.007812 Z M 189.226562 366.007812 " fill-opacity="0.996" fill-rule="nonzero"/></g><g clip-path="url(#70a74b657f)"><path fill="#000000" d="M 185.535156 366.007812 L 185.535156 366.011719 C 185.535156 367.011719 186.34375 367.824219 187.347656 367.828125 L 254.429688 368.070312 C 255.148438 368.070312 255.804688 367.648438 256.097656 366.992188 C 256.390625 366.335938 256.269531 365.566406 255.789062 365.03125 L 207.691406 311.488281 C 207.351562 311.109375 206.867188 310.894531 206.359375 310.886719 L 187.171875 310.652344 C 186.167969 310.640625 185.34375 311.441406 185.332031 312.449219 C 185.320312 313.453125 186.125 314.277344 187.128906 314.289062 L 206.316406 314.523438 L 204.988281 313.921875 L 253.085938 367.464844 L 254.445312 364.429688 L 187.359375 364.191406 L 189.171875 366.011719 L 189.171875 366.007812 C 189.171875 365.003906 188.355469 364.1875 187.351562 364.1875 C 186.347656 364.1875 185.535156 365.003906 185.535156 366.007812 Z M 185.535156 366.007812 " fill-opacity="0.996" fill-rule="nonzero"/></g><g clip-path="url(#dc4d424871)"><path fill="#000000" d="M 172.921875 365.207031 L 172.921875 365.210938 C 172.921875 366.199219 172.136719 367.007812 171.148438 367.03125 C 170.160156 367.054688 169.335938 366.285156 169.289062 365.296875 L 166.789062 312.78125 L 166.789062 312.730469 L 161.574219 57.984375 L 161.589844 57.707031 L 168.125 8.1875 C 168.242188 7.277344 169.023438 6.597656 169.941406 6.605469 L 188.0625 6.742188 C 189.066406 6.75 189.875 7.570312 189.867188 8.574219 C 189.859375 9.578125 189.039062 10.386719 188.035156 10.378906 L 169.914062 10.246094 L 171.730469 8.664062 L 165.195312 58.183594 L 165.210938 57.90625 L 170.421875 312.65625 L 170.421875 312.605469 L 172.921875 365.125 L 169.285156 365.210938 L 169.285156 365.207031 C 169.285156 364.203125 170.101562 363.390625 171.105469 363.390625 C 172.109375 363.390625 172.921875 364.203125 172.921875 365.207031 Z M 172.921875 365.207031 " fill-opacity="0.996" fill-rule="nonzero"/></g><g clip-path="url(#add55ebcad)"><path fill="#000000" d="M 201.839844 365.207031 L 201.839844 365.210938 C 201.839844 366.199219 202.625 367.007812 203.613281 367.03125 C 204.601562 367.054688 205.425781 366.285156 205.472656 365.296875 L 207.972656 312.78125 L 207.972656 312.730469 L 213.1875 57.984375 L 213.171875 57.707031 L 206.636719 8.1875 C 206.519531 7.277344 205.738281 6.601562 204.824219 6.605469 L 186.699219 6.742188 C 185.695312 6.75 184.886719 7.570312 184.894531 8.574219 C 184.902344 9.578125 185.722656 10.386719 186.726562 10.378906 L 204.851562 10.246094 L 203.035156 8.664062 L 209.566406 58.183594 L 209.550781 57.90625 L 204.339844 312.65625 L 204.339844 312.605469 L 201.839844 365.125 L 205.476562 365.210938 L 205.476562 365.207031 C 205.476562 364.203125 204.660156 363.390625 203.65625 363.390625 C 202.652344 363.390625 201.839844 364.203125 201.839844 365.207031 Z M 201.839844 365.207031 " fill-opacity="0.996" fill-rule="nonzero"/></g><path fill="#000000" d="M 172.378906 353.382812 L 172.378906 353.386719 L 169.320312 352.058594 L 203.621094 320.027344 C 204.355469 319.339844 205.503906 319.378906 206.1875 320.113281 C 206.875 320.847656 206.835938 322 206.101562 322.6875 L 171.800781 354.71875 C 171.273438 355.210938 170.5 355.34375 169.835938 355.054688 C 169.175781 354.765625 168.746094 354.113281 168.746094 353.386719 L 168.746094 353.382812 C 168.746094 352.378906 169.558594 351.566406 170.5625 351.566406 C 171.566406 351.566406 172.378906 352.378906 172.378906 353.382812 Z M 172.378906 353.382812 " fill-opacity="0.996" fill-rule="nonzero"/><path fill="#000000" d="M 202.382812 353.386719 L 205.4375 352.058594 L 171.140625 320.027344 C 170.40625 319.339844 169.257812 319.378906 168.570312 320.113281 C 167.886719 320.847656 167.925781 322 168.660156 322.6875 L 202.957031 354.71875 C 203.488281 355.210938 204.257812 355.34375 204.921875 355.054688 C 205.585938 354.765625 206.015625 354.113281 206.015625 353.386719 C 206.015625 352.378906 205.203125 351.566406 204.199219 351.566406 C 203.195312 351.566406 202.382812 352.378906 202.382812 353.386719 Z M 202.382812 353.386719 " fill-opacity="0.996" fill-rule="nonzero"/><path fill="#000000" d="M 189.078125 313.117188 C 189.078125 313.542969 188.929688 313.949219 188.664062 314.277344 L 171.609375 334.9375 C 170.972656 335.710938 169.824219 335.820312 169.050781 335.179688 C 168.277344 334.542969 168.167969 333.394531 168.808594 332.621094 L 185.859375 311.960938 L 185.441406 313.117188 C 185.441406 312.109375 186.257812 311.296875 187.261719 311.296875 C 188.265625 311.296875 189.078125 312.109375 189.078125 313.117188 Z M 189.078125 313.117188 " fill-opacity="0.996" fill-rule="nonzero"/><path fill="#000000" d="M 185.683594 313.117188 C 185.683594 313.542969 185.832031 313.949219 186.101562 314.277344 L 203.152344 334.9375 C 203.789062 335.710938 204.9375 335.820312 205.710938 335.179688 C 206.484375 334.542969 206.59375 333.394531 205.953125 332.621094 L 188.902344 311.960938 L 189.320312 313.117188 C 189.320312 312.109375 188.503906 311.296875 187.5 311.296875 C 186.496094 311.296875 185.683594 312.109375 185.683594 313.117188 Z M 185.683594 313.117188 " fill-opacity="0.996" fill-rule="nonzero"/><path fill="#000000" d="M 189.394531 364.996094 C 189.394531 365.796875 188.875 366.503906 188.109375 366.738281 C 187.347656 366.96875 186.519531 366.679688 186.070312 366.015625 L 169.226562 341.132812 C 168.664062 340.300781 168.882812 339.171875 169.714844 338.605469 C 170.542969 338.042969 171.675781 338.261719 172.238281 339.09375 L 189.082031 363.976562 L 185.757812 364.996094 C 185.757812 363.988281 186.574219 363.175781 187.578125 363.175781 C 188.582031 363.175781 189.394531 363.988281 189.394531 364.996094 Z M 189.394531 364.996094 " fill-opacity="0.996" fill-rule="nonzero"/><path fill="#000000" d="M 185.367188 364.996094 C 185.367188 365.796875 185.886719 366.503906 186.652344 366.738281 C 187.414062 366.96875 188.242188 366.679688 188.691406 366.015625 L 205.535156 341.132812 C 206.097656 340.300781 205.878906 339.171875 205.046875 338.605469 C 204.21875 338.042969 203.085938 338.261719 202.523438 339.09375 L 185.679688 363.976562 L 189.003906 364.996094 C 189.003906 363.988281 188.1875 363.175781 187.183594 363.175781 C 186.179688 363.175781 185.367188 363.988281 185.367188 364.996094 Z M 185.367188 364.996094 " fill-opacity="0.996" fill-rule="nonzero"/><path fill="#000000" d="M 170.578125 335.960938 C 170.578125 336.449219 170.382812 336.914062 170.039062 337.257812 C 169.691406 337.597656 169.226562 337.785156 168.738281 337.78125 L 148.582031 337.5625 C 147.578125 337.550781 146.773438 336.730469 146.785156 335.726562 C 146.796875 334.71875 147.617188 333.914062 148.621094 333.925781 L 168.78125 334.144531 L 166.941406 335.960938 C 166.941406 334.957031 167.753906 334.140625 168.761719 334.140625 C 169.765625 334.140625 170.578125 334.957031 170.578125 335.960938 Z M 170.578125 335.960938 " fill-opacity="0.996" fill-rule="nonzero"/><path fill="#000000" d="M 204.183594 335.960938 C 204.183594 336.449219 204.378906 336.914062 204.722656 337.257812 C 205.070312 337.597656 205.535156 337.785156 206.023438 337.78125 L 226.179688 337.5625 C 227.183594 337.550781 227.988281 336.730469 227.976562 335.726562 C 227.964844 334.71875 227.144531 333.914062 226.140625 333.925781 L 205.984375 334.144531 L 207.820312 335.960938 C 207.820312 334.957031 207.007812 334.140625 206.003906 334.140625 C 205 334.140625 204.183594 334.957031 204.183594 335.960938 Z M 204.183594 335.960938 " fill-opacity="0.996" fill-rule="nonzero"/><path fill="#000000" d="M 172.148438 351.875 L 172.148438 351.878906 C 172.148438 352.871094 171.355469 353.679688 170.363281 353.695312 L 133.65625 354.351562 C 132.652344 354.367188 131.824219 353.570312 131.808594 352.566406 C 131.789062 351.558594 132.589844 350.730469 133.59375 350.714844 L 170.300781 350.058594 L 168.515625 351.878906 L 168.515625 351.875 C 168.515625 350.871094 169.328125 350.054688 170.332031 350.054688 C 171.335938 350.054688 172.148438 350.871094 172.148438 351.875 Z M 172.148438 351.875 " fill-opacity="0.996" fill-rule="nonzero"/><path fill="#000000" d="M 202.613281 351.875 L 202.613281 351.878906 C 202.613281 352.871094 203.40625 353.679688 204.398438 353.695312 L 241.105469 354.351562 C 242.109375 354.367188 242.9375 353.570312 242.957031 352.566406 C 242.972656 351.558594 242.171875 350.730469 241.171875 350.714844 L 204.460938 350.058594 L 206.246094 351.878906 L 206.246094 351.875 C 206.246094 350.871094 205.433594 350.054688 204.429688 350.054688 C 203.425781 350.054688 202.613281 350.871094 202.613281 351.875 Z M 202.613281 351.875 " fill-opacity="0.996" fill-rule="nonzero"/><path fill="#000000" d="M 190.292969 125.378906 L 190.292969 125.382812 C 190.292969 126.375 189.496094 127.183594 188.507812 127.203125 L 134.777344 128.167969 L 136.253906 127.367188 L 125.214844 143.714844 L 123.707031 140.878906 L 188.652344 140.742188 C 189.65625 140.738281 190.472656 141.550781 190.476562 142.554688 C 190.476562 143.5625 189.664062 144.375 188.660156 144.378906 L 123.714844 144.515625 C 123.039062 144.519531 122.421875 144.148438 122.105469 143.554688 C 121.789062 142.960938 121.828125 142.238281 122.203125 141.679688 L 133.238281 125.328125 C 133.570312 124.839844 134.121094 124.539062 134.714844 124.527344 L 188.441406 123.566406 L 186.65625 125.382812 L 186.65625 125.378906 C 186.65625 124.375 187.46875 123.5625 188.472656 123.5625 C 189.476562 123.5625 190.292969 124.375 190.292969 125.378906 Z M 190.292969 125.378906 " fill-opacity="0.996" fill-rule="nonzero"/><path fill="#000000" d="M 184.472656 125.378906 L 184.472656 125.382812 C 184.472656 126.375 185.265625 127.183594 186.257812 127.203125 L 239.984375 128.167969 L 238.507812 127.367188 L 249.546875 143.714844 L 251.054688 140.878906 L 186.109375 140.742188 C 185.105469 140.738281 184.289062 141.550781 184.289062 142.554688 C 184.285156 143.5625 185.097656 144.375 186.101562 144.378906 L 251.046875 144.519531 C 251.722656 144.519531 252.339844 144.148438 252.65625 143.554688 C 252.972656 142.960938 252.9375 142.238281 252.558594 141.679688 L 241.523438 125.328125 C 241.191406 124.839844 240.640625 124.539062 240.046875 124.53125 L 186.320312 123.566406 L 188.105469 125.382812 L 188.105469 125.378906 C 188.105469 124.375 187.292969 123.5625 186.289062 123.5625 C 185.285156 123.5625 184.472656 124.375 184.472656 125.378906 Z M 184.472656 125.378906 " fill-opacity="0.996" fill-rule="nonzero"/><path fill="#000000" d="M 131.25 143.234375 L 131.25 143.265625 L 131.082031 152.867188 C 131.066406 153.875 130.234375 154.671875 129.234375 154.65625 C 128.230469 154.636719 127.429688 153.808594 127.445312 152.804688 L 127.613281 143.203125 L 127.613281 143.234375 C 127.613281 142.226562 128.429688 141.414062 129.433594 141.414062 C 130.4375 141.414062 131.25 142.226562 131.25 143.234375 Z M 131.25 143.234375 " fill-opacity="0.996" fill-rule="nonzero"/><path fill="#000000" d="M 243.511719 143.234375 L 243.511719 143.265625 L 243.679688 152.867188 C 243.699219 153.875 244.527344 154.671875 245.53125 154.65625 C 246.53125 154.636719 247.332031 153.808594 247.316406 152.804688 L 247.148438 143.203125 L 247.148438 143.234375 C 247.148438 142.226562 246.332031 141.414062 245.332031 141.414062 C 244.324219 141.414062 243.511719 142.226562 243.511719 143.234375 Z M 243.511719 143.234375 " fill-opacity="0.996" fill-rule="nonzero"/><path fill="#000000" d="M 144.253906 143.792969 L 144.253906 143.796875 L 144.253906 143.792969 L 144.261719 152.425781 C 144.261719 153.429688 143.449219 154.246094 142.445312 154.246094 C 141.4375 154.246094 140.625 153.433594 140.625 152.429688 L 140.617188 143.796875 L 140.617188 143.792969 C 140.617188 142.789062 141.433594 141.972656 142.4375 141.972656 C 143.441406 141.972656 144.253906 142.789062 144.253906 143.792969 Z M 144.253906 143.792969 " fill-opacity="0.996" fill-rule="nonzero"/><path fill="#000000" d="M 230.507812 143.792969 L 230.507812 143.796875 L 230.503906 152.425781 C 230.5 153.429688 231.3125 154.246094 232.320312 154.246094 C 233.324219 154.246094 234.136719 153.433594 234.136719 152.429688 L 234.144531 143.796875 L 234.144531 143.792969 C 234.144531 142.789062 233.332031 141.972656 232.324219 141.972656 C 231.320312 141.972656 230.507812 142.789062 230.507812 143.792969 Z M 230.507812 143.792969 " fill-opacity="0.996" fill-rule="nonzero"/><path fill="#000000" d="M 189.910156 59.710938 L 189.910156 59.714844 C 189.910156 60.71875 189.097656 61.53125 188.097656 61.535156 L 101.644531 61.800781 L 103.121094 61.035156 L 84.464844 87.261719 L 83.007812 84.386719 L 188.496094 85.792969 C 189.5 85.804688 190.304688 86.632812 190.289062 87.636719 C 190.277344 88.640625 189.453125 89.445312 188.449219 89.429688 L 82.957031 88.027344 C 82.28125 88.015625 81.667969 87.632812 81.359375 87.03125 C 81.054688 86.425781 81.109375 85.703125 81.5 85.152344 L 100.15625 58.925781 C 100.496094 58.449219 101.046875 58.164062 101.632812 58.160156 L 188.085938 57.894531 L 186.273438 59.714844 L 186.273438 59.710938 C 186.273438 58.707031 187.085938 57.894531 188.089844 57.894531 C 189.09375 57.894531 189.910156 58.707031 189.910156 59.710938 Z M 189.910156 59.710938 " fill-opacity="0.996" fill-rule="nonzero"/><g clip-path="url(#094d3bfe48)"><path fill="#000000" d="M 184.851562 59.710938 L 184.851562 59.714844 C 184.851562 60.71875 185.664062 61.53125 186.664062 61.535156 L 273.117188 61.800781 L 271.640625 61.035156 L 290.296875 87.261719 L 291.753906 84.386719 L 186.265625 85.792969 C 185.261719 85.804688 184.457031 86.632812 184.472656 87.636719 C 184.484375 88.640625 185.308594 89.445312 186.3125 89.429688 L 291.804688 88.027344 C 292.480469 88.015625 293.09375 87.632812 293.402344 87.03125 C 293.707031 86.425781 293.652344 85.703125 293.261719 85.152344 L 274.605469 58.925781 C 274.265625 58.449219 273.714844 58.164062 273.128906 58.160156 L 186.675781 57.894531 L 188.488281 59.714844 L 188.488281 59.710938 C 188.488281 58.707031 187.675781 57.894531 186.671875 57.894531 C 185.667969 57.894531 184.851562 58.707031 184.851562 59.710938 Z M 184.851562 59.710938 " fill-opacity="0.996" fill-rule="nonzero"/></g><path fill="#000000" d="M 92.820312 86.855469 L 92.820312 97.558594 C 92.820312 98.5625 92.007812 99.378906 91.003906 99.378906 C 90 99.378906 89.1875 98.5625 89.1875 97.558594 L 89.1875 86.855469 C 89.1875 85.847656 90 85.035156 91.003906 85.035156 C 92.007812 85.035156 92.820312 85.847656 92.820312 86.855469 Z M 92.820312 86.855469 " fill-opacity="0.996" fill-rule="nonzero"/><path fill="#000000" d="M 281.941406 86.855469 L 281.941406 97.558594 C 281.941406 98.5625 282.753906 99.378906 283.757812 99.378906 C 284.761719 99.378906 285.578125 98.5625 285.578125 97.558594 L 285.578125 86.855469 C 285.578125 85.847656 284.761719 85.035156 283.757812 85.035156 C 282.753906 85.035156 281.941406 85.847656 281.941406 86.855469 Z M 281.941406 86.855469 " fill-opacity="0.996" fill-rule="nonzero"/><path fill="#000000" d="M 105.558594 87.160156 L 105.558594 87.175781 L 105.488281 97.054688 C 105.480469 98.0625 104.660156 98.871094 103.65625 98.863281 C 102.652344 98.855469 101.84375 98.035156 101.851562 97.03125 L 101.921875 87.148438 L 101.921875 87.160156 C 101.921875 86.152344 102.734375 85.339844 103.738281 85.339844 C 104.742188 85.339844 105.558594 86.152344 105.558594 87.160156 Z M 105.558594 87.160156 " fill-opacity="0.996" fill-rule="nonzero"/><path fill="#000000" d="M 269.207031 87.160156 L 269.207031 87.175781 L 269.277344 97.054688 C 269.285156 98.0625 270.101562 98.871094 271.105469 98.863281 C 272.109375 98.855469 272.917969 98.035156 272.914062 97.03125 L 272.84375 87.148438 L 272.84375 87.160156 C 272.84375 86.152344 272.027344 85.339844 271.023438 85.339844 C 270.019531 85.339844 269.207031 86.152344 269.207031 87.160156 Z M 269.207031 87.160156 " fill-opacity="0.996" fill-rule="nonzero"/><path fill="#000000" d="M 104.386719 60.535156 L 104.386719 60.539062 L 103.910156 59.308594 L 127.472656 85.0625 C 128.152344 85.804688 128.101562 86.953125 127.363281 87.632812 C 126.621094 88.3125 125.46875 88.261719 124.792969 87.519531 L 101.226562 61.765625 C 100.921875 61.429688 100.75 60.992188 100.75 60.539062 L 100.75 60.535156 C 100.75 59.53125 101.5625 58.714844 102.566406 58.714844 C 103.570312 58.714844 104.386719 59.53125 104.386719 60.535156 Z M 104.386719 60.535156 " fill-opacity="0.996" fill-rule="nonzero"/><path fill="#000000" d="M 270.375 60.535156 L 270.375 60.539062 L 270.851562 59.308594 L 247.289062 85.0625 C 246.609375 85.804688 246.660156 86.953125 247.402344 87.632812 C 248.140625 88.3125 249.292969 88.261719 249.96875 87.519531 L 273.535156 61.765625 C 273.84375 61.429688 274.011719 60.992188 274.011719 60.539062 L 274.011719 60.535156 C 274.011719 59.53125 273.199219 58.714844 272.195312 58.714844 C 271.191406 58.714844 270.375 59.53125 270.375 60.535156 Z M 270.375 60.535156 " fill-opacity="0.996" fill-rule="nonzero"/><path fill="#000000" d="M 105.9375 86.539062 L 105.9375 86.542969 L 102.773438 85.320312 L 126.371094 59.28125 C 127.046875 58.539062 128.195312 58.480469 128.9375 59.15625 C 129.683594 59.832031 129.738281 60.980469 129.0625 61.726562 L 105.46875 87.765625 C 104.960938 88.320312 104.167969 88.507812 103.464844 88.238281 C 102.765625 87.96875 102.300781 87.292969 102.300781 86.542969 L 102.300781 86.539062 C 102.300781 85.535156 103.117188 84.71875 104.121094 84.71875 C 105.125 84.71875 105.9375 85.535156 105.9375 86.539062 Z M 105.9375 86.539062 " fill-opacity="0.996" fill-rule="nonzero"/><path fill="#000000" d="M 268.824219 86.539062 L 268.824219 86.542969 L 271.988281 85.320312 L 248.390625 59.28125 C 247.71875 58.539062 246.566406 58.480469 245.824219 59.15625 C 245.078125 59.832031 245.023438 60.980469 245.699219 61.726562 L 269.296875 87.765625 C 269.800781 88.320312 270.59375 88.511719 271.296875 88.238281 C 271.996094 87.96875 272.460938 87.292969 272.460938 86.542969 L 272.460938 86.539062 C 272.460938 85.535156 271.644531 84.71875 270.640625 84.71875 C 269.636719 84.71875 268.824219 85.535156 268.824219 86.539062 Z M 268.824219 86.539062 " fill-opacity="0.996" fill-rule="nonzero"/><path fill="#000000" d="M 134.457031 86.339844 L 134.457031 86.34375 L 131.257812 85.15625 L 153.730469 58.976562 C 154.386719 58.214844 155.53125 58.125 156.292969 58.78125 C 157.054688 59.4375 157.144531 60.585938 156.488281 61.347656 L 134.015625 87.527344 C 133.523438 88.105469 132.71875 88.3125 132.007812 88.046875 C 131.292969 87.78125 130.820312 87.101562 130.820312 86.34375 L 130.820312 86.339844 C 130.820312 85.335938 131.632812 84.519531 132.636719 84.519531 C 133.640625 84.519531 134.457031 85.335938 134.457031 86.339844 Z M 134.457031 86.339844 " fill-opacity="0.996" fill-rule="nonzero"/><path fill="#000000" d="M 240.308594 86.339844 L 240.308594 86.34375 L 243.503906 85.15625 L 221.03125 58.976562 C 220.378906 58.214844 219.230469 58.125 218.46875 58.78125 C 217.707031 59.4375 217.621094 60.585938 218.273438 61.347656 L 240.746094 87.527344 C 241.242188 88.105469 242.042969 88.3125 242.757812 88.046875 C 243.46875 87.78125 243.941406 87.101562 243.941406 86.34375 L 243.941406 86.339844 C 243.941406 85.335938 243.128906 84.519531 242.125 84.519531 C 241.121094 84.519531 240.308594 85.335938 240.308594 86.339844 Z M 240.308594 86.339844 " fill-opacity="0.996" fill-rule="nonzero"/><path fill="#000000" d="M 133.875 59.9375 L 133.875 59.941406 L 133.382812 58.695312 L 158.269531 85.191406 C 158.957031 85.925781 158.921875 87.074219 158.191406 87.765625 C 157.460938 88.453125 156.308594 88.417969 155.621094 87.683594 L 130.734375 61.1875 C 130.417969 60.847656 130.238281 60.402344 130.238281 59.941406 L 130.238281 59.9375 C 130.238281 58.933594 131.054688 58.117188 132.058594 58.117188 C 133.0625 58.117188 133.875 58.933594 133.875 59.9375 Z M 133.875 59.9375 " fill-opacity="0.996" fill-rule="nonzero"/><path fill="#000000" d="M 240.886719 59.9375 L 240.886719 59.941406 L 241.378906 58.695312 L 216.492188 85.191406 C 215.804688 85.925781 215.839844 87.074219 216.574219 87.765625 C 217.304688 88.453125 218.453125 88.417969 219.140625 87.683594 L 244.03125 61.1875 C 244.347656 60.847656 244.523438 60.402344 244.523438 59.941406 L 244.523438 59.9375 C 244.523438 58.933594 243.707031 58.117188 242.703125 58.117188 C 241.699219 58.117188 240.886719 58.933594 240.886719 59.9375 Z M 240.886719 59.9375 " fill-opacity="0.996" fill-rule="nonzero"/><path fill="#000000" d="M 167.671875 85.902344 L 167.671875 85.90625 L 164.4375 84.765625 L 184.949219 59.257812 C 185.578125 58.472656 186.722656 58.351562 187.503906 58.980469 C 188.285156 59.609375 188.410156 60.753906 187.78125 61.539062 L 167.269531 87.042969 C 166.785156 87.644531 165.976562 87.875 165.246094 87.621094 C 164.519531 87.363281 164.035156 86.675781 164.035156 85.90625 L 164.035156 85.902344 C 164.035156 84.898438 164.847656 84.082031 165.851562 84.082031 C 166.855469 84.082031 167.671875 84.898438 167.671875 85.902344 Z M 167.671875 85.902344 " fill-opacity="0.996" fill-rule="nonzero"/><path fill="#000000" d="M 207.089844 85.902344 L 207.089844 85.90625 L 210.324219 84.765625 L 189.8125 59.257812 C 189.183594 58.472656 188.039062 58.351562 187.257812 58.980469 C 186.476562 59.609375 186.351562 60.753906 186.980469 61.539062 L 207.492188 87.046875 C 207.976562 87.644531 208.785156 87.875 209.511719 87.621094 C 210.242188 87.363281 210.726562 86.675781 210.726562 85.90625 L 210.726562 85.902344 C 210.726562 84.898438 209.914062 84.082031 208.910156 84.082031 C 207.90625 84.082031 207.089844 84.898438 207.089844 85.902344 Z M 207.089844 85.902344 " fill-opacity="0.996" fill-rule="nonzero"/><path fill="#000000" d="M 166.535156 61.375 L 166.535156 61.378906 L 166.109375 60.207031 L 187.144531 85.234375 C 187.789062 86.003906 187.691406 87.148438 186.925781 87.796875 C 186.15625 88.445312 185.007812 88.34375 184.363281 87.574219 L 163.328125 62.550781 C 163.050781 62.222656 162.898438 61.804688 162.898438 61.378906 L 162.898438 61.375 C 162.898438 60.371094 163.714844 59.554688 164.71875 59.554688 C 165.722656 59.554688 166.535156 60.371094 166.535156 61.375 Z M 166.535156 61.375 " fill-opacity="0.996" fill-rule="nonzero"/><path fill="#000000" d="M 208.226562 61.375 L 208.226562 61.378906 L 208.652344 60.207031 L 187.617188 85.234375 C 186.96875 86.003906 187.070312 87.152344 187.835938 87.796875 C 188.605469 88.445312 189.753906 88.34375 190.398438 87.574219 L 211.433594 62.550781 C 211.710938 62.222656 211.863281 61.804688 211.863281 61.378906 L 211.863281 61.375 C 211.863281 60.371094 211.046875 59.554688 210.042969 59.554688 C 209.039062 59.554688 208.226562 60.371094 208.226562 61.375 Z M 208.226562 61.375 " fill-opacity="0.996" fill-rule="nonzero"/><path fill="#000000" d="M 142.210938 142.21875 L 142.210938 142.222656 L 139.09375 140.949219 L 154.6875 124.964844 C 155.386719 124.246094 156.539062 124.230469 157.257812 124.933594 C 157.976562 125.636719 157.988281 126.785156 157.289062 127.503906 L 141.691406 143.492188 C 141.175781 144.023438 140.390625 144.183594 139.707031 143.90625 C 139.023438 143.628906 138.574219 142.960938 138.574219 142.222656 L 138.574219 142.21875 C 138.574219 141.214844 139.386719 140.398438 140.390625 140.398438 C 141.394531 140.398438 142.210938 141.214844 142.210938 142.21875 Z M 142.210938 142.21875 " fill-opacity="0.996" fill-rule="nonzero"/><path fill="#000000" d="M 232.550781 142.21875 L 232.550781 142.222656 L 235.671875 140.949219 L 220.074219 124.964844 C 219.375 124.246094 218.222656 124.230469 217.503906 124.933594 C 216.785156 125.636719 216.773438 126.785156 217.472656 127.503906 L 233.070312 143.492188 C 233.585938 144.023438 234.371094 144.183594 235.054688 143.90625 C 235.738281 143.628906 236.1875 142.960938 236.1875 142.222656 L 236.1875 142.21875 C 236.1875 141.214844 235.375 140.398438 234.371094 140.398438 C 233.367188 140.398438 232.550781 141.214844 232.550781 142.21875 Z M 232.550781 142.21875 " fill-opacity="0.996" fill-rule="nonzero"/><path fill="#000000" d="M 142.335938 126.574219 L 141.875 125.363281 L 155.542969 140.652344 C 156.210938 141.402344 156.148438 142.550781 155.398438 143.222656 C 154.652344 143.890625 153.503906 143.828125 152.832031 143.078125 L 139.164062 127.789062 C 138.867188 127.453125 138.699219 127.023438 138.699219 126.574219 C 138.699219 125.566406 139.515625 124.753906 140.519531 124.753906 C 141.523438 124.753906 142.335938 125.566406 142.335938 126.574219 Z M 142.335938 126.574219 " fill-opacity="0.996" fill-rule="nonzero"/><path fill="#000000" d="M 232.425781 126.574219 L 232.890625 125.363281 L 219.21875 140.652344 C 218.550781 141.402344 218.613281 142.550781 219.363281 143.222656 C 220.109375 143.890625 221.261719 143.828125 221.929688 143.078125 L 235.597656 127.789062 C 235.898438 127.457031 236.0625 127.023438 236.0625 126.574219 C 236.0625 125.566406 235.246094 124.753906 234.242188 124.753906 C 233.238281 124.753906 232.425781 125.566406 232.425781 126.574219 Z M 232.425781 126.574219 " fill-opacity="0.996" fill-rule="nonzero"/><path fill="#000000" d="M 168.324219 127.265625 L 168.324219 127.269531 L 167.730469 125.925781 L 184.035156 140.847656 C 184.777344 141.527344 184.828125 142.675781 184.152344 143.417969 C 183.472656 144.160156 182.324219 144.210938 181.582031 143.53125 L 165.277344 128.609375 C 164.902344 128.265625 164.6875 127.78125 164.6875 127.269531 L 164.6875 127.265625 C 164.6875 126.261719 165.5 125.445312 166.503906 125.445312 C 167.507812 125.445312 168.324219 126.261719 168.324219 127.265625 Z M 168.324219 127.265625 " fill-opacity="0.996" fill-rule="nonzero"/><path fill="#000000" d="M 206.441406 127.265625 L 206.441406 127.269531 L 207.03125 125.925781 L 190.726562 140.847656 C 189.984375 141.527344 189.933594 142.675781 190.613281 143.417969 C 191.289062 144.160156 192.4375 144.210938 193.179688 143.53125 L 209.484375 128.609375 C 209.859375 128.265625 210.074219 127.78125 210.074219 127.269531 L 210.074219 127.265625 C 210.074219 126.261719 209.261719 125.445312 208.257812 125.445312 C 207.253906 125.445312 206.441406 126.261719 206.441406 127.265625 Z M 206.441406 127.265625 " fill-opacity="0.996" fill-rule="nonzero"/><path fill="#000000" d="M 168.5 141.476562 L 165.429688 140.160156 L 182.246094 124.179688 C 182.972656 123.488281 184.125 123.519531 184.816406 124.246094 C 185.507812 124.976562 185.476562 126.128906 184.75 126.820312 L 167.933594 142.796875 C 167.40625 143.296875 166.632812 143.4375 165.964844 143.148438 C 165.296875 142.863281 164.863281 142.207031 164.863281 141.476562 C 164.863281 140.46875 165.679688 139.65625 166.683594 139.65625 C 167.6875 139.65625 168.5 140.46875 168.5 141.476562 Z M 168.5 141.476562 " fill-opacity="0.996" fill-rule="nonzero"/><path fill="#000000" d="M 206.261719 141.476562 L 209.332031 140.160156 L 192.515625 124.179688 C 191.789062 123.488281 190.636719 123.519531 189.945312 124.246094 C 189.253906 124.976562 189.285156 126.128906 190.011719 126.820312 L 206.828125 142.796875 C 207.355469 143.296875 208.128906 143.4375 208.796875 143.148438 C 209.464844 142.863281 209.898438 142.207031 209.898438 141.476562 C 209.898438 140.46875 209.085938 139.65625 208.082031 139.65625 C 207.074219 139.65625 206.261719 140.46875 206.261719 141.476562 Z M 206.261719 141.476562 " fill-opacity="0.996" fill-rule="nonzero"/><path fill="#000000" d="M 185.507812 361.726562 L 186.230469 9.816406 C 186.234375 8.8125 187.046875 8 188.050781 8 C 189.058594 8.003906 189.867188 8.820312 189.867188 9.824219 L 189.144531 361.734375 C 189.140625 362.738281 188.328125 363.550781 187.324219 363.546875 C 186.320312 363.546875 185.507812 362.730469 185.507812 361.726562 Z M 185.507812 361.726562 " fill-opacity="0.996" fill-rule="nonzero"/><path fill="#000000" d="M 166.933594 45.753906 L 166.933594 45.757812 L 163.90625 44.402344 L 186.085938 24.53125 C 186.835938 23.863281 187.984375 23.925781 188.652344 24.675781 C 189.324219 25.421875 189.261719 26.574219 188.511719 27.242188 L 166.328125 47.113281 C 165.796875 47.589844 165.03125 47.710938 164.375 47.417969 C 163.722656 47.125 163.300781 46.472656 163.300781 45.757812 L 163.300781 45.753906 C 163.300781 44.75 164.113281 43.933594 165.117188 43.933594 C 166.121094 43.933594 166.933594 44.75 166.933594 45.753906 Z M 166.933594 45.753906 " fill-opacity="0.996" fill-rule="nonzero"/><path fill="#000000" d="M 207.828125 45.753906 L 207.828125 45.757812 L 210.859375 44.402344 L 188.675781 24.53125 C 187.925781 23.863281 186.777344 23.925781 186.109375 24.675781 C 185.4375 25.421875 185.5 26.574219 186.25 27.242188 L 208.433594 47.113281 C 208.96875 47.589844 209.730469 47.710938 210.386719 47.417969 C 211.042969 47.125 211.464844 46.472656 211.464844 45.757812 L 211.464844 45.753906 C 211.464844 44.75 210.648438 43.933594 209.644531 43.933594 C 208.640625 43.933594 207.828125 44.75 207.828125 45.753906 Z M 207.828125 45.753906 " fill-opacity="0.996" fill-rule="nonzero"/><path fill="#000000" d="M 169.792969 28.0625 L 169.792969 28.066406 L 169.253906 26.773438 L 188.421875 45.703125 C 189.136719 46.40625 189.144531 47.558594 188.4375 48.273438 C 187.734375 48.988281 186.582031 48.996094 185.867188 48.292969 L 166.699219 29.363281 C 166.351562 29.019531 166.15625 28.554688 166.15625 28.066406 L 166.15625 28.0625 C 166.15625 27.058594 166.972656 26.246094 167.976562 26.246094 C 168.980469 26.246094 169.792969 27.058594 169.792969 28.0625 Z M 169.792969 28.0625 " fill-opacity="0.996" fill-rule="nonzero"/><path fill="#000000" d="M 204.96875 28.0625 L 204.96875 28.066406 L 205.511719 26.773438 L 186.339844 45.703125 C 185.625 46.40625 185.617188 47.558594 186.324219 48.273438 C 187.027344 48.988281 188.179688 48.996094 188.894531 48.292969 L 208.0625 29.363281 C 208.410156 29.019531 208.605469 28.554688 208.605469 28.066406 L 208.605469 28.0625 C 208.605469 27.058594 207.792969 26.246094 206.789062 26.246094 C 205.78125 26.246094 204.96875 27.058594 204.96875 28.0625 Z M 204.96875 28.0625 " fill-opacity="0.996" fill-rule="nonzero"/><path fill="#000000" d="M 166.742188 118.046875 L 163.644531 116.757812 L 185.792969 94.785156 C 186.507812 94.078125 187.660156 94.085938 188.367188 94.796875 C 189.074219 95.511719 189.066406 96.664062 188.355469 97.371094 L 166.203125 119.339844 C 165.679688 119.855469 164.902344 120.011719 164.222656 119.726562 C 163.546875 119.445312 163.105469 118.78125 163.105469 118.046875 C 163.105469 117.042969 163.917969 116.226562 164.921875 116.226562 C 165.925781 116.226562 166.742188 117.042969 166.742188 118.046875 Z M 166.742188 118.046875 " fill-opacity="0.996" fill-rule="nonzero"/><path fill="#000000" d="M 208.023438 118.046875 L 211.121094 116.757812 L 188.96875 94.785156 C 188.253906 94.078125 187.101562 94.085938 186.394531 94.796875 C 185.691406 95.511719 185.695312 96.664062 186.40625 97.371094 L 208.558594 119.339844 C 209.082031 119.855469 209.863281 120.011719 210.539062 119.726562 C 211.214844 119.445312 211.65625 118.78125 211.65625 118.046875 C 211.65625 117.042969 210.84375 116.226562 209.839844 116.226562 C 208.835938 116.226562 208.023438 117.042969 208.023438 118.046875 Z M 208.023438 118.046875 " fill-opacity="0.996" fill-rule="nonzero"/><path fill="#000000" d="M 166.710938 94.726562 L 166.710938 94.730469 L 166.179688 93.445312 L 188.351562 115.710938 C 189.0625 116.421875 189.058594 117.574219 188.347656 118.285156 C 187.636719 118.992188 186.484375 118.992188 185.777344 118.28125 L 163.605469 96.015625 C 163.265625 95.671875 163.074219 95.210938 163.074219 94.730469 L 163.074219 94.726562 C 163.074219 93.722656 163.890625 92.90625 164.894531 92.90625 C 165.898438 92.90625 166.710938 93.722656 166.710938 94.726562 Z M 166.710938 94.726562 " fill-opacity="0.996" fill-rule="nonzero"/><path fill="#000000" d="M 208.050781 94.726562 L 208.050781 94.730469 L 208.582031 93.445312 L 186.410156 115.710938 C 185.699219 116.421875 185.703125 117.574219 186.414062 118.285156 C 187.125 118.992188 188.277344 118.992188 188.984375 118.28125 L 211.15625 96.015625 C 211.496094 95.671875 211.6875 95.210938 211.6875 94.730469 L 211.6875 94.726562 C 211.6875 93.722656 210.871094 92.90625 209.867188 92.90625 C 208.863281 92.90625 208.050781 93.722656 208.050781 94.726562 Z M 208.050781 94.726562 " fill-opacity="0.996" fill-rule="nonzero"/><path fill="#000000" d="M 167.820312 174.195312 L 167.820312 174.199219 L 164.800781 172.835938 L 185.816406 154.261719 C 186.570312 153.59375 187.71875 153.667969 188.382812 154.417969 C 189.046875 155.171875 188.976562 156.324219 188.222656 156.988281 L 167.207031 175.5625 C 166.671875 176.035156 165.90625 176.148438 165.257812 175.855469 C 164.605469 175.5625 164.183594 174.914062 164.183594 174.199219 L 164.183594 174.195312 C 164.183594 173.191406 165 172.375 166.003906 172.375 C 167.007812 172.375 167.820312 173.191406 167.820312 174.195312 Z M 167.820312 174.195312 " fill-opacity="0.996" fill-rule="nonzero"/><path fill="#000000" d="M 206.941406 174.195312 L 206.941406 174.199219 L 209.960938 172.835938 L 188.945312 154.261719 C 188.191406 153.59375 187.042969 153.667969 186.378906 154.417969 C 185.714844 155.171875 185.785156 156.324219 186.539062 156.988281 L 207.554688 175.5625 C 208.089844 176.035156 208.855469 176.152344 209.503906 175.855469 C 210.15625 175.5625 210.578125 174.914062 210.578125 174.199219 L 210.578125 174.195312 C 210.578125 173.191406 209.761719 172.375 208.757812 172.375 C 207.753906 172.375 206.941406 173.191406 206.941406 174.195312 Z M 206.941406 174.195312 " fill-opacity="0.996" fill-rule="nonzero"/><path fill="#000000" d="M 168.015625 155.570312 L 167.449219 154.253906 L 188.011719 173.886719 C 188.738281 174.582031 188.765625 175.734375 188.070312 176.460938 C 187.378906 177.1875 186.226562 177.214844 185.5 176.519531 L 164.941406 156.886719 C 164.582031 156.542969 164.378906 156.070312 164.378906 155.570312 C 164.378906 154.5625 165.191406 153.75 166.195312 153.75 C 167.199219 153.75 168.015625 154.5625 168.015625 155.570312 Z M 168.015625 155.570312 " fill-opacity="0.996" fill-rule="nonzero"/><path fill="#000000" d="M 206.75 155.570312 L 207.3125 154.253906 L 186.75 173.886719 C 186.023438 174.582031 185.996094 175.734375 186.691406 176.460938 C 187.382812 177.1875 188.535156 177.214844 189.261719 176.519531 L 209.820312 156.886719 C 210.179688 156.542969 210.382812 156.070312 210.382812 155.570312 C 210.382812 154.566406 209.570312 153.75 208.566406 153.75 C 207.5625 153.75 206.75 154.566406 206.75 155.570312 Z M 206.75 155.570312 " fill-opacity="0.996" fill-rule="nonzero"/><path fill="#000000" d="M 169.164062 212.546875 L 169.164062 212.550781 L 166.0625 211.261719 L 185.96875 191.421875 C 186.679688 190.710938 187.832031 190.714844 188.539062 191.425781 C 189.246094 192.136719 189.246094 193.289062 188.535156 194 L 168.628906 213.839844 C 168.109375 214.355469 167.328125 214.511719 166.648438 214.230469 C 165.96875 213.945312 165.527344 213.285156 165.527344 212.550781 L 165.527344 212.546875 C 165.527344 211.542969 166.339844 210.726562 167.34375 210.726562 C 168.351562 210.726562 169.164062 211.542969 169.164062 212.546875 Z M 169.164062 212.546875 " fill-opacity="0.996" fill-rule="nonzero"/><path fill="#000000" d="M 205.597656 212.546875 L 205.597656 212.550781 L 208.699219 211.261719 L 188.792969 191.421875 C 188.082031 190.710938 186.933594 190.714844 186.222656 191.425781 C 185.515625 192.136719 185.515625 193.289062 186.230469 194 L 206.132812 213.839844 C 206.652344 214.355469 207.4375 214.511719 208.113281 214.230469 C 208.792969 213.949219 209.234375 213.285156 209.234375 212.550781 L 209.234375 212.546875 C 209.234375 211.542969 208.421875 210.726562 207.417969 210.726562 C 206.414062 210.726562 205.597656 211.542969 205.597656 212.546875 Z M 205.597656 212.546875 " fill-opacity="0.996" fill-rule="nonzero"/><path fill="#000000" d="M 168.386719 192.480469 L 168.386719 192.484375 L 167.847656 191.191406 L 188.339844 211.527344 C 189.054688 212.234375 189.058594 213.386719 188.351562 214.097656 C 187.644531 214.8125 186.492188 214.816406 185.78125 214.109375 L 165.289062 193.773438 C 164.945312 193.433594 164.75 192.96875 164.75 192.484375 L 164.75 192.480469 C 164.75 191.476562 165.566406 190.660156 166.566406 190.660156 C 167.574219 190.660156 168.386719 191.476562 168.386719 192.480469 Z M 168.386719 192.480469 " fill-opacity="0.996" fill-rule="nonzero"/><path fill="#000000" d="M 206.375 192.480469 L 206.375 192.484375 L 206.914062 191.191406 L 186.421875 211.527344 C 185.710938 212.234375 185.703125 213.386719 186.410156 214.097656 C 187.117188 214.8125 188.269531 214.816406 188.980469 214.109375 L 209.472656 193.773438 C 209.816406 193.433594 210.011719 192.96875 210.011719 192.484375 L 210.011719 192.480469 C 210.011719 191.476562 209.199219 190.660156 208.195312 190.660156 C 207.191406 190.660156 206.375 191.476562 206.375 192.480469 Z M 206.375 192.480469 " fill-opacity="0.996" fill-rule="nonzero"/><path fill="#000000" d="M 170.171875 249.089844 L 170.171875 249.09375 L 167.070312 247.804688 L 185.46875 229.472656 C 186.179688 228.761719 187.332031 228.765625 188.039062 229.476562 C 188.746094 230.1875 188.746094 231.339844 188.035156 232.050781 L 169.636719 250.382812 C 169.113281 250.902344 168.335938 251.054688 167.65625 250.773438 C 166.976562 250.492188 166.535156 249.828125 166.535156 249.09375 L 166.535156 249.089844 C 166.535156 248.085938 167.347656 247.269531 168.351562 247.269531 C 169.355469 247.269531 170.171875 248.085938 170.171875 249.089844 Z M 170.171875 249.089844 " fill-opacity="0.996" fill-rule="nonzero"/><path fill="#000000" d="M 204.589844 249.089844 L 204.589844 249.09375 L 207.691406 247.804688 L 189.292969 229.472656 C 188.582031 228.761719 187.429688 228.765625 186.722656 229.476562 C 186.015625 230.1875 186.015625 231.339844 186.730469 232.050781 L 205.125 250.382812 C 205.648438 250.902344 206.429688 251.054688 207.105469 250.773438 C 207.785156 250.492188 208.226562 249.828125 208.226562 249.09375 L 208.226562 249.089844 C 208.226562 248.085938 207.414062 247.269531 206.410156 247.269531 C 205.40625 247.269531 204.589844 248.085938 204.589844 249.089844 Z M 204.589844 249.089844 " fill-opacity="0.996" fill-rule="nonzero"/><path fill="#000000" d="M 169.90625 231.035156 L 169.90625 231.039062 L 169.417969 229.800781 L 188.308594 250.144531 C 188.992188 250.878906 188.949219 252.03125 188.214844 252.714844 C 187.480469 253.398438 186.328125 253.355469 185.644531 252.621094 L 166.757812 232.277344 C 166.445312 231.941406 166.269531 231.496094 166.269531 231.039062 L 166.269531 231.035156 C 166.269531 230.03125 167.085938 229.214844 168.085938 229.214844 C 169.09375 229.214844 169.90625 230.03125 169.90625 231.035156 Z M 169.90625 231.035156 " fill-opacity="0.996" fill-rule="nonzero"/><path fill="#000000" d="M 204.855469 231.035156 L 204.855469 231.039062 L 205.34375 229.800781 L 186.453125 250.144531 C 185.769531 250.878906 185.8125 252.03125 186.546875 252.714844 C 187.28125 253.398438 188.433594 253.355469 189.117188 252.621094 L 208.003906 232.277344 C 208.316406 231.941406 208.492188 231.496094 208.492188 231.039062 L 208.492188 231.035156 C 208.492188 230.03125 207.675781 229.214844 206.671875 229.214844 C 205.667969 229.214844 204.855469 230.03125 204.855469 231.035156 Z M 204.855469 231.035156 " fill-opacity="0.996" fill-rule="nonzero"/><path fill="#000000" d="M 169.941406 285.824219 L 169.941406 285.828125 L 166.917969 284.464844 L 186.1875 267.371094 C 186.9375 266.707031 188.085938 266.773438 188.753906 267.527344 C 189.417969 268.277344 189.351562 269.429688 188.597656 270.09375 L 169.328125 287.1875 C 168.792969 287.664062 168.027344 287.78125 167.375 287.484375 C 166.722656 287.191406 166.304688 286.542969 166.304688 285.828125 L 166.304688 285.824219 C 166.304688 284.820312 167.117188 284.003906 168.121094 284.003906 C 169.125 284.003906 169.941406 284.820312 169.941406 285.824219 Z M 169.941406 285.824219 " fill-opacity="0.996" fill-rule="nonzero"/><path fill="#000000" d="M 204.820312 285.824219 L 204.820312 285.828125 L 207.84375 284.464844 L 188.574219 267.371094 C 187.824219 266.707031 186.675781 266.777344 186.007812 267.527344 C 185.34375 268.277344 185.414062 269.429688 186.164062 270.09375 L 205.433594 287.1875 C 205.96875 287.664062 206.734375 287.78125 207.386719 287.488281 C 208.039062 287.191406 208.457031 286.542969 208.457031 285.828125 L 208.457031 285.824219 C 208.457031 284.820312 207.644531 284.007812 206.640625 284.007812 C 205.636719 284.007812 204.820312 284.820312 204.820312 285.824219 Z M 204.820312 285.824219 " fill-opacity="0.996" fill-rule="nonzero"/><path fill="#000000" d="M 170.023438 270.179688 L 170.023438 270.183594 L 169.394531 268.808594 L 188.535156 285.382812 C 189.292969 286.039062 189.378906 287.1875 188.722656 287.949219 C 188.0625 288.707031 186.914062 288.792969 186.15625 288.132812 L 167.015625 271.558594 C 166.617188 271.210938 166.386719 270.710938 166.386719 270.183594 L 166.386719 270.179688 C 166.386719 269.175781 167.199219 268.359375 168.203125 268.359375 C 169.207031 268.359375 170.023438 269.175781 170.023438 270.179688 Z M 170.023438 270.179688 " fill-opacity="0.996" fill-rule="nonzero"/><path fill="#000000" d="M 204.738281 270.179688 L 204.738281 270.183594 L 205.367188 268.808594 L 186.226562 285.382812 C 185.46875 286.039062 185.386719 287.1875 186.042969 287.949219 C 186.699219 288.707031 187.847656 288.792969 188.605469 288.132812 L 207.746094 271.558594 C 208.148438 271.210938 208.375 270.710938 208.375 270.183594 L 208.375 270.179688 C 208.375 269.175781 207.5625 268.359375 206.558594 268.359375 C 205.554688 268.359375 204.738281 269.175781 204.738281 270.179688 Z M 204.738281 270.179688 " fill-opacity="0.996" fill-rule="nonzero"/></svg>