<svg xmlns="http://www.w3.org/2000/svg" xmlns:xlink="http://www.w3.org/1999/xlink" width="500" zoomAndPan="magnify" viewBox="0 0 375 374.999991" height="500" preserveAspectRatio="xMidYMid meet" version="1.0"><defs><clipPath id="e77b57aa80"><path d="M 92 4 L 285.28125 4 L 285.28125 371.101562 L 92 371.101562 Z M 92 4 " clip-rule="nonzero"/></clipPath><clipPath id="fa6aee1558"><path d="M 89.53125 169 L 196 169 L 196 370 L 89.53125 370 Z M 89.53125 169 " clip-rule="nonzero"/></clipPath></defs><g clip-path="url(#e77b57aa80)"><path fill="#000000" d="M 201.480469 371.066406 C 201.480469 371.066406 206.347656 234.0625 206.773438 223.105469 C 207.359375 207.964844 211.175781 141.972656 211.152344 140.589844 C 211.113281 138.160156 211.089844 138.074219 210.445312 138.074219 C 208.34375 138.347656 206.4375 139.410156 204.328125 139.65625 C 201.40625 139.019531 198.640625 137.449219 196.175781 135.773438 C 194.675781 134.074219 195.628906 131.234375 196.414062 129.175781 C 196.589844 128.714844 197.300781 127.351562 197.730469 126.011719 C 200.175781 118.386719 199.855469 119.066406 201.351562 118.285156 C 203.839844 117.492188 206.183594 119.484375 208.089844 120.957031 L 209.136719 121.796875 C 211.949219 120.699219 214.960938 120.179688 217.703125 118.902344 C 217.769531 118.855469 217.253906 118.230469 216.554688 117.511719 C 215.40625 116.34375 213.140625 114.855469 208.734375 112.390625 C 207.910156 111.929688 199.386719 105.375 196.96875 103.117188 C 194.222656 100.550781 191.671875 97.972656 185.117188 91.136719 C 176.746094 82.40625 172.476562 78.167969 153.300781 59.558594 C 151.210938 57.53125 135.664062 43.425781 134.191406 42.101562 C 131.488281 39.660156 95.148438 8.457031 94.183594 7.613281 C 92.261719 5.929688 91.832031 5.332031 92.078125 4.6875 C 92.5 3.59375 96.578125 5.054688 100.449219 7.6875 C 101.589844 8.460938 138.304688 37.238281 140.457031 38.917969 C 141.480469 39.722656 162.359375 57.207031 163.578125 58.074219 C 164.964844 59.058594 185.355469 76.738281 187.558594 78.828125 C 188.765625 79.972656 216.058594 104.035156 220.960938 108.429688 C 223.535156 110.734375 225.320312 112.109375 226.097656 112.382812 C 226.753906 112.613281 227.433594 112.914062 227.605469 113.046875 C 227.777344 113.179688 228.214844 113.359375 228.578125 113.449219 C 229.410156 113.65625 231.070312 112.277344 231.355469 111.152344 C 231.722656 109.679688 235.773438 101.730469 236.867188 100.328125 C 238.730469 97.945312 254.835938 84.394531 256.367188 83.210938 C 257.902344 82.023438 275.003906 68.570312 275.621094 68.054688 C 280.5625 63.941406 283.671875 61.578125 284.335938 61.433594 C 284.914062 61.308594 285.207031 61.929688 285.214844 63.273438 C 285.21875 64.703125 283.757812 67.109375 281.019531 70.179688 C 280.011719 71.3125 264.382812 89.6875 263.3125 90.800781 C 262.242188 91.917969 246.894531 109.121094 243.761719 112.261719 L 238.070312 117.964844 L 237.820312 119.617188 C 237.367188 122.597656 237.105469 123.304688 236.027344 124.492188 C 235.324219 125.34375 235.226562 126.402344 235.363281 127.480469 C 235.484375 128.398438 235.886719 130.691406 236.535156 133.046875 C 236.75 133.835938 242.621094 155.898438 242.828125 156.890625 C 243.082031 158.097656 257.898438 201.679688 258.226562 202.707031 C 258.558594 203.734375 271.074219 248.949219 271.277344 249.820312 C 274.898438 263.066406 277.765625 276.5 280.808594 289.890625 C 281.132812 291.398438 281.738281 295.226562 282.03125 297.9375 C 282.003906 298.199219 281.871094 298.363281 281.617188 298.363281 C 281.375 298.363281 281.105469 298.140625 281.015625 297.863281 C 280.925781 297.585938 280.398438 296.195312 279.847656 294.773438 C 278.503906 291.332031 277.359375 287.800781 276.320312 283.902344 C 275.851562 282.140625 268.183594 255.167969 267.394531 252.402344 C 266.605469 249.636719 253.296875 205.890625 252.46875 203.28125 C 248.375 190.359375 237.140625 157.722656 235.515625 154.019531 C 232.75 147.414062 230.375 140.644531 227.460938 134.105469 C 226.539062 132.125 226.054688 131.546875 225.410156 131.09375 C 224.785156 130.652344 224.148438 130.332031 223.992188 130.382812 C 223.839844 130.433594 223.363281 131.3125 222.941406 132.335938 C 222.175781 134.175781 222.167969 134.261719 222.265625 139.796875 C 222.320312 142.878906 226.785156 223.039062 226.898438 227.699219 L 230.4375 371.039062 L 201.480469 371.0625 Z M 201.480469 371.066406 " fill-opacity="1" fill-rule="nonzero"/></g><g clip-path="url(#fa6aee1558)"><path fill="#000000" d="M 149.9375 369.550781 C 149.9375 369.550781 152.613281 294.710938 152.847656 288.722656 C 153.171875 280.453125 155.269531 244.402344 155.257812 243.644531 C 155.234375 242.320312 155.222656 242.273438 154.867188 242.273438 C 153.714844 242.421875 152.664062 243 151.503906 243.136719 C 149.898438 242.789062 148.378906 241.929688 147.023438 241.015625 C 146.195312 240.085938 146.71875 238.535156 147.152344 237.410156 C 147.25 237.160156 147.640625 236.414062 147.875 235.683594 C 149.21875 231.515625 149.042969 231.886719 149.867188 231.460938 C 151.234375 231.027344 152.527344 232.117188 153.574219 232.921875 L 154.148438 233.378906 C 155.695312 232.78125 157.351562 232.496094 158.859375 231.800781 C 158.894531 231.773438 158.613281 231.429688 158.226562 231.039062 C 157.597656 230.398438 156.351562 229.589844 153.925781 228.242188 C 153.472656 227.988281 148.789062 224.40625 147.457031 223.175781 C 145.945312 221.773438 144.546875 220.363281 140.941406 216.628906 C 136.339844 211.859375 133.992188 209.546875 123.449219 199.378906 C 122.296875 198.273438 113.75 190.566406 112.941406 189.839844 C 111.453125 188.507812 91.472656 171.460938 90.941406 171.003906 C 89.886719 170.082031 89.648438 169.757812 89.785156 169.402344 C 90.015625 168.804688 92.257812 169.605469 94.386719 171.042969 C 95.015625 171.464844 115.203125 187.1875 116.382812 188.105469 C 116.949219 188.542969 128.429688 198.09375 129.097656 198.566406 C 129.859375 199.105469 141.070312 208.765625 142.285156 209.90625 C 142.949219 210.53125 157.953125 223.675781 160.652344 226.078125 C 162.066406 227.335938 163.046875 228.085938 163.476562 228.238281 C 163.835938 228.363281 164.207031 228.527344 164.304688 228.601562 C 164.398438 228.671875 164.640625 228.769531 164.839844 228.820312 C 165.296875 228.933594 166.207031 228.179688 166.363281 227.566406 C 166.566406 226.757812 168.792969 222.417969 169.398438 221.652344 C 170.417969 220.351562 179.277344 212.945312 180.121094 212.300781 C 180.960938 211.652344 190.367188 204.300781 190.707031 204.019531 C 193.421875 201.773438 195.132812 200.484375 195.496094 200.402344 C 195.8125 200.335938 195.976562 200.675781 195.980469 201.40625 C 195.984375 202.191406 195.179688 203.503906 193.671875 205.183594 C 193.117188 205.800781 184.523438 215.839844 183.9375 216.449219 C 183.347656 217.058594 174.910156 226.457031 173.1875 228.171875 L 170.058594 231.285156 L 169.917969 232.1875 C 169.671875 233.816406 169.527344 234.203125 168.933594 234.851562 C 168.546875 235.316406 168.492188 235.894531 168.570312 236.484375 C 168.636719 236.988281 168.855469 238.238281 169.214844 239.527344 C 169.332031 239.957031 172.558594 252.007812 172.675781 252.550781 C 172.8125 253.210938 180.960938 277.019531 181.140625 277.582031 C 181.324219 278.140625 188.207031 302.84375 188.316406 303.316406 C 190.308594 310.554688 191.886719 317.894531 193.554688 325.207031 C 193.734375 326.03125 194.066406 328.121094 194.230469 329.605469 C 194.214844 329.746094 194.140625 329.839844 194.003906 329.839844 C 193.871094 329.839844 193.71875 329.714844 193.671875 329.5625 C 193.621094 329.414062 193.332031 328.652344 193.027344 327.875 C 192.289062 325.996094 191.660156 324.066406 191.089844 321.9375 C 190.832031 320.976562 186.617188 306.238281 186.183594 304.730469 C 185.75 303.21875 178.429688 279.320312 177.976562 277.894531 C 175.722656 270.835938 169.546875 253.003906 168.652344 250.980469 C 167.132812 247.375 165.828125 243.675781 164.222656 240.105469 C 163.71875 239.023438 163.449219 238.707031 163.097656 238.457031 C 162.753906 238.214844 162.402344 238.042969 162.316406 238.070312 C 162.234375 238.097656 161.972656 238.578125 161.738281 239.136719 C 161.320312 240.140625 161.3125 240.191406 161.367188 243.214844 C 161.398438 244.898438 163.851562 288.6875 163.917969 291.234375 L 165.859375 369.542969 L 149.941406 369.558594 Z M 149.9375 369.550781 " fill-opacity="1" fill-rule="nonzero"/></g></svg>